<?xml version="1.0" encoding="utf-8"?>
<!-- Generator: Adobe Illustrator 18.1.1, SVG Export Plug-In . SVG Version: 6.00 Build 0)  -->
<svg version="1.1" id="Calque_1" xmlns="http://www.w3.org/2000/svg" xmlns:xlink="http://www.w3.org/1999/xlink" x="0px" y="0px"
	 viewBox="23.5 229.9 891.4 84.6" enable-background="new 23.5 229.9 891.4 84.6" xml:space="preserve">
<rect x="0.4" y="112" display="none" fill="#131822" width="960" height="336"/>
<path fill="#FFFFFF" d="M330,246h16.1v17.1h14.8V246H377v48.3h-16.1V277h-14.8v17.3H330V246z"/>
<path fill="#FFFFFF" d="M53.1,259.6H38.9V246h44.6v13.6H69.2v34.7H53.1V259.6z"/>
<path fill="#FFFFFF" d="M104.4,246h16.1v17.1h14.8V246h16.1v48.3h-16.1V277h-14.8v17.3h-16.1V246z"/>
<path fill="#FFFFFF" d="M174.2,246h41.2v13.2h-25.3v4.9h23.6v11.6h-23.6v5.3h25.6v13.2h-41.6L174.2,246L174.2,246z"/>
<path fill="#FFFFFF" d="M278.7,259.6h-14.2V246h44.6v13.6h-14.2v34.7h-16.1L278.7,259.6L278.7,259.6z"/>
<path fill="#FFFFFF" d="M399.8,246h23.6c8.5,0,14,2.1,17.4,5.6c2.9,2.9,4.4,6.5,4.4,11.4v0.1c0,7-3.6,11.9-9.5,14.8l11.2,16.4h-18.4
	l-9.1-13.8H416v13.8h-16.1L399.8,246L399.8,246z M423,268.9c3.8,0,6.2-1.7,6.2-4.7v-0.1c0-3.1-2.4-4.6-6.1-4.6h-7v9.5L423,268.9
	L423,268.9z"/>
<path fill="#FFFFFF" d="M466.6,246h16.1v48.3h-16.1V246z"/>
<path fill="#FFFFFF" d="M505.6,246h16.1v34.6h22.8v13.8h-38.9V246z"/>
<path fill="#FFFFFF" d="M565.2,246h16.1v34.6h22.8v13.8h-38.9V246z"/>
<path fill="#FFFFFF" d="M666.5,259.6h-14.2V246H697v13.6h-14.2v34.7h-16.1L666.5,259.6L666.5,259.6z"/>
<path fill="#FFFFFF" d="M788.6,272.1v-26.7h16.4v26.5c0,6,3.1,8.5,7.5,8.5c4.3,0,7.5-2.3,7.5-8.3v-26.8h16.4v26.3
	c0,16.5-9.6,22.9-24,22.9C798,294.8,788.6,288.1,788.6,272.1z"/>
<path fill="#FFFFFF" d="M858.8,246h23.6c8.5,0,14,2.1,17.4,5.6c2.9,2.9,4.4,6.5,4.4,11.4v0.1c0,7-3.6,11.9-9.5,14.8l11.2,16.4h-18.4
	l-9.1-13.8h-3.5v13.8h-16.1L858.8,246L858.8,246z M881.9,268.9c3.8,0,6.2-1.7,6.2-4.7v-0.1c0-3.1-2.4-4.6-6.1-4.6h-7v9.5
	L881.9,268.9L881.9,268.9z"/>
<g>
	<circle fill="#D81125" cx="741.6" cy="270.2" r="8.1"/>
	<path fill="#FFFFFF" d="M741.8,295.6c-14,0-25.5-11.4-25.5-25.5c0-14,11.4-25.5,25.5-25.5c14,0,25.5,11.4,25.5,25.5
		C767.3,284.2,755.8,295.6,741.8,295.6z M741.8,247.1c-12.8,0-23.1,10.4-23.1,23.1s10.4,23.1,23.1,23.1s23.1-10.4,23.1-23.1
		S754.6,247.1,741.8,247.1z"/>
	<circle fill="#FFFFFF" cx="741.8" cy="270.2" r="3.4"/>
</g>
</svg>
