<?xml version="1.0" encoding="UTF-8" standalone="no"?>
<svg width="351px" height="698px" viewBox="0 0 351 698" version="1.1" xmlns="http://www.w3.org/2000/svg" xmlns:xlink="http://www.w3.org/1999/xlink">
    <!-- Generator: Sketch 3.7.1 (28215) - http://www.bohemiancoding.com/sketch -->
    <title>Group 14</title>
    <desc>Created with Sketch.</desc>
    <defs></defs>
    <g id="Page-1" stroke="none" stroke-width="1" fill="none" fill-rule="evenodd">
        <g id="Coechella-FEST" transform="translate(-1089.000000, -4835.000000)">
            <g id="Group-12" transform="translate(1105.000000, 4835.000000)">
                <g id="Group-14">
                    <g id="Group-13">
                        <g id="Group-8" transform="translate(46.000000, 0.000000)">
                            <circle id="Oval-1" stroke="#FC9004" stroke-width="2" stroke-dasharray="1,8" cx="349.9375" cy="349.9375" r="333.5"></circle>
                            <circle id="Oval-1" stroke="#4A4A4A" stroke-width="5" stroke-dasharray="1,9" cx="349.9375" cy="349.9375" r="278.0625"></circle>
                            <ellipse id="Oval-1" stroke="#FBFBFB" stroke-width="10" stroke-dasharray="1,6" opacity="0.279384328" cx="348.9375" cy="348.9375" rx="348.9375" ry="348.9375"></ellipse>
                        </g>
                        <circle id="Oval-3-Copy" stroke="#FC9004" stroke-width="31" stroke-dasharray="1" opacity="0.272621269" cx="45.5" cy="318.5" r="45.5"></circle>
                        <g id="Group-4" transform="translate(18.000000, 291.000000)" stroke="#FC9004" stroke-width="2" fill="#131822">
                            <circle id="Oval-3-Copy" cx="27.5" cy="27.5" r="27.5"></circle>
                        </g>
                        <g id="Group-5" transform="translate(36.000000, 309.000000)">
                            <path d="M9.5,14.25 C12.1233526,14.25 14.25,12.1233526 14.25,9.5 C14.25,6.87664744 12.1233526,4.75 9.5,4.75 C6.87664744,4.75 4.75,6.87664744 4.75,9.5 C4.75,12.1233526 6.87664744,14.25 9.5,14.25 Z" id="Oval-3-Copy-4" fill="#FC9004"></path>
                            <path d="M9.5,19 C14.7467051,19 19,14.7467051 19,9.5 C19,4.25329488 14.7467051,0 9.5,0 C4.25329488,0 0,4.25329488 0,9.5 C0,14.7467051 4.25329488,19 9.5,19 Z" id="Oval-3-Copy-4" stroke="#FC9004" stroke-width="2" opacity="0.47160681"></path>
                        </g>
                    </g>
                </g>
            </g>
        </g>
    </g>
</svg>