<?xml version="1.0" encoding="UTF-8" standalone="no"?>
<svg width="21px" height="21px" viewBox="0 0 21 21" version="1.1" xmlns="http://www.w3.org/2000/svg" xmlns:xlink="http://www.w3.org/1999/xlink">
    <!-- Generator: Sketch 3.7.1 (28215) - http://www.bohemiancoding.com/sketch -->
    <title>Group 5 Copy</title>
    <desc>Created with Sketch.</desc>
    <defs></defs>
    <g id="Page-1" stroke="none" stroke-width="1" fill="none" fill-rule="evenodd">
        <g id="Artboard-3-Copy-3" transform="translate(-590.000000, -213.000000)">
            <g id="Group-2" transform="translate(600.500000, 224.500000) rotate(-180.000000) translate(-600.500000, -224.500000) translate(555.000000, 179.000000)">
                <g id="Group-5-Copy" transform="translate(36.000000, 37.000000)">
                    <path d="M9.5,14.25 C12.1233526,14.25 14.25,12.1233526 14.25,9.5 C14.25,6.87664744 12.1233526,4.75 9.5,4.75 C6.87664744,4.75 4.75,6.87664744 4.75,9.5 C4.75,12.1233526 6.87664744,14.25 9.5,14.25 Z" id="Oval-3-Copy-4" fill="#51E6FB"></path>
                    <path d="M9.5,19 C14.7467051,19 19,14.7467051 19,9.5 C19,4.25329488 14.7467051,0 9.5,0 C4.25329488,0 0,4.25329488 0,9.5 C0,14.7467051 4.25329488,19 9.5,19 Z" id="Oval-3-Copy-4" stroke="#51E6FB" stroke-width="2" opacity="0.47160681"></path>
                </g>
            </g>
        </g>
    </g>
</svg>