<?xml version="1.0" encoding="UTF-8" standalone="no"?>
<svg width="416px" height="927px" viewBox="0 0 416 927" version="1.1" xmlns="http://www.w3.org/2000/svg" xmlns:xlink="http://www.w3.org/1999/xlink">
    <!-- Generator: Sketch 3.8.3 (29802) - http://www.bohemiancoding.com/sketch -->
    <title>Group 10</title>
    <desc>Created with Sketch.</desc>
    <defs></defs>
    <g id="Page-1" stroke="none" stroke-width="1" fill="none" fill-rule="evenodd">
        <g id="Coechella-festival" transform="translate(0.000000, -3195.000000)">
            <g id="Group-10" transform="translate(-512.000000, 3197.000000)">
                <g id="Group-8-Copy">
                    <circle id="Oval-1" stroke="#FC9004" stroke-width="2" stroke-dasharray="1,8" cx="462.739703" cy="462.739703" r="441.003582"></circle>
                    <ellipse id="Oval-1" stroke="#4A4A4A" stroke-width="5" stroke-dasharray="1,9" cx="462.739703" cy="462.739703" rx="367.695827" ry="367.695827"></ellipse>
                    <ellipse id="Oval-1" stroke="#FBFBFB" stroke-width="10" stroke-dasharray="1,6" opacity="0.279384328" cx="461.417353" cy="461.417353" rx="461.417353" ry="461.417353"></ellipse>
                </g>
                <g id="Group-9-Copy" transform="translate(453.000000, 381.000000)">
                    <path d="M59,118 C91.5848002,118 118,91.5848002 118,59 C118,26.4151998 91.5848002,-4.54747351e-13 59,-4.54747351e-13 C26.4151998,-4.54747351e-13 2.27373675e-13,26.4151998 2.27373675e-13,59 C2.27373675e-13,91.5848002 26.4151998,118 59,118 Z" id="Oval-3-Copy-4" stroke="#5A616D" stroke-width="31" stroke-dasharray="1"></path>
                    <path d="M59,69 C64.5228475,69 69,64.5228475 69,59 C69,53.4771525 64.5228475,49 59,49 C53.4771525,49 49,53.4771525 49,59 C49,64.5228475 53.4771525,69 59,69 Z" id="Oval-3-Copy-4" fill="#FC9004"></path>
                </g>
            </g>
        </g>
    </g>
</svg>