<?xml version="1.0" encoding="UTF-8" standalone="no"?>
<svg width="16px" height="24px" viewBox="0 0 16 24" version="1.1" xmlns="http://www.w3.org/2000/svg" xmlns:xlink="http://www.w3.org/1999/xlink">
    <!-- Generator: Sketch 3.7.1 (28215) - http://www.bohemiancoding.com/sketch -->
    <title>noun_56770_cc</title>
    <desc>Created with Sketch.</desc>
    <defs></defs>
    <g id="Page-1" stroke="none" stroke-width="1" fill="none" fill-rule="evenodd">
        <g id="Coechella-FEST" transform="translate(-635.000000, -1014.000000)" fill="#5F6672">
            <g id="Group-6-Copy" transform="translate(569.000000, 1014.000000)">
                <g id="noun_56770_cc" transform="translate(66.000000, 0.000000)">
                    <polygon id="Shape" points="13.7275524 7.86556266 10.9664172 7.86582686 10.9664172 9.94850112 13.7275524 9.94850112 13.7275524 21.4033417 2.27244763 21.4033417 2.27244763 9.94850112 5.03384702 9.94850112 5.03384702 7.86582686 2.27244763 7.86582686 0.189773367 7.86556266 0.189773367 9.94850112 0.189773367 21.4033417 0.189773367 23.4860159 15.8102266 23.4862801 15.8102266 21.4033417 15.8102266 9.94850112 15.8102266 7.86582686"></polygon>
                    <polygon id="Shape" points="12.4514752 4.96493083 9.47290486 1.98662473 8 0.513719874 3.54852485 4.96493083 5.0216939 6.43783569 6.95853077 4.50099882 6.95853077 6.80903414 6.95853077 10.6811227 6.95853077 14.5534754 9.04146923 14.5534754 9.04146923 10.6811227 9.04146923 6.80903414 9.04146923 4.50099882 10.9783061 6.43783569"></polygon>
                </g>
            </g>
        </g>
    </g>
</svg>