<?xml version="1.0" encoding="UTF-8" standalone="no"?>
<svg width="49px" height="21px" viewBox="0 0 49 21" version="1.1" xmlns="http://www.w3.org/2000/svg" xmlns:xlink="http://www.w3.org/1999/xlink">
    <!-- Generator: Sketch 3.8.3 (29802) - http://www.bohemiancoding.com/sketch -->
    <title>Group 12</title>
    <desc>Created with Sketch.</desc>
    <defs></defs>
    <g id="Page-1" stroke="none" stroke-width="1" fill="none" fill-rule="evenodd">
        <g id="A4-Copy" transform="translate(-562.000000, -3243.000000)">
            <g id="Group-12" transform="translate(563.000000, 3244.000000)">
                <path d="M16.5,9 L37,9" id="Line-Copy-8" stroke="#51E6FB" stroke-width="4" stroke-linecap="square" transform="translate(26.500000, 9.000000) rotate(180.000000) translate(-26.500000, -9.000000) "></path>
                <path d="M0.5,9 L21,9" id="Line-Copy-9" stroke="#51E6FB" stroke-width="2" stroke-linecap="square" transform="translate(10.500000, 9.000000) rotate(180.000000) translate(-10.500000, -9.000000) "></path>
                <ellipse id="Oval-3-Copy-4" fill="#51E6FB" transform="translate(37.250000, 9.250000) rotate(180.000000) translate(-37.250000, -9.250000) " cx="37.25" cy="9.25" rx="4.75" ry="4.75"></ellipse>
                <path d="M37.5,19 C42.7467051,19 47,14.7467051 47,9.5 C47,4.25329488 42.7467051,-3.55271368e-15 37.5,-3.55271368e-15 C32.2532949,-3.55271368e-15 28,4.25329488 28,9.5 C28,14.7467051 32.2532949,19 37.5,19 Z" id="Oval-3-Copy-4" stroke="#51E6FB" stroke-width="2" transform="translate(37.500000, 9.500000) rotate(180.000000) translate(-37.500000, -9.500000) "></path>
            </g>
        </g>
    </g>
</svg>