<?xml version="1.0" encoding="UTF-8" standalone="no"?>
<svg width="765px" height="708px" viewBox="0 0 765 708" version="1.1" xmlns="http://www.w3.org/2000/svg" xmlns:xlink="http://www.w3.org/1999/xlink">
    <!-- Generator: Sketch 3.8.3 (29802) - http://www.bohemiancoding.com/sketch -->
    <title>Group 3</title>
    <desc>Created with Sketch.</desc>
    <defs></defs>
    <g id="Page-1" stroke="none" stroke-width="1" fill="none" fill-rule="evenodd">
        <g id="Artboard-16" transform="translate(-1380.000000, -1399.000000)">
            <g id="Group-3" transform="translate(1396.000000, 1404.000000)">
                <circle id="Oval-1" stroke="#51E6FB" stroke-width="2" stroke-dasharray="1,8" cx="395.9375" cy="349.9375" r="333.5"></circle>
                <circle id="Oval-1" stroke="#4A4A4A" stroke-width="5" stroke-dasharray="1,9" cx="395.9375" cy="349.9375" r="278.0625"></circle>
                <ellipse id="Oval-1" stroke="#FBFBFB" stroke-width="10" stroke-dasharray="1,6" opacity="0.279384328" cx="394.9375" cy="348.9375" rx="348.9375" ry="348.9375"></ellipse>
                <circle id="Oval-3-Copy" stroke="#51E6FB" stroke-width="31" stroke-dasharray="1" opacity="0.272621269" cx="45.5" cy="318.5" r="45.5"></circle>
                <circle id="Oval-3-Copy" stroke="#51E6FB" stroke-width="2" fill="#131822" cx="45.5" cy="318.5" r="27.5"></circle>
                <path d="M45.5,323.25 C48.1233526,323.25 50.25,321.123353 50.25,318.5 C50.25,315.876647 48.1233526,313.75 45.5,313.75 C42.8766474,313.75 40.75,315.876647 40.75,318.5 C40.75,321.123353 42.8766474,323.25 45.5,323.25 Z" id="Oval-3-Copy-4" fill="#51E6FB"></path>
                <path d="M45.5,328 C50.7467051,328 55,323.746705 55,318.5 C55,313.253295 50.7467051,309 45.5,309 C40.2532949,309 36,313.253295 36,318.5 C36,323.746705 40.2532949,328 45.5,328 Z" id="Oval-3-Copy-4" stroke="#51E6FB" stroke-width="2" opacity="0.47160681"></path>
            </g>
        </g>
    </g>
</svg>