<?xml version="1.0" encoding="utf-8"?>
<!-- Generator: Adobe Illustrator 16.0.0, SVG Export Plug-In . SVG Version: 6.00 Build 0)  -->
<!DOCTYPE svg PUBLIC "-//W3C//DTD SVG 1.1//EN" "http://www.w3.org/Graphics/SVG/1.1/DTD/svg11.dtd">
<svg version="1.1" id="Calque_1" xmlns="http://www.w3.org/2000/svg" xmlns:xlink="http://www.w3.org/1999/xlink" x="0px" y="0px"
	 width="957px" height="949px" viewBox="-12 -7 957 949" enable-background="new -12 -7 957 949" xml:space="preserve">
<title>Group</title>
<desc>Created with Sketch.</desc>
<g id="Oval-1">
	<path fill="#ED145B" d="M467.586,909.743l-1.003-0.001l0.006-2l0.997,0.001V909.743z M475.62,909.675l-0.053-2l0.995-0.019l0.041,2
		L475.62,909.675z M458.568,909.649l-1.002-0.021l0.047-2l0.997,0.021L458.568,909.649z M484.6,909.427l-0.076-1.998l0.995-0.038
		l0.076,1.998L484.6,909.427z M449.552,909.375l-0.999-0.041l0.082-1.998l0.999,0.041L449.552,909.375z M493.605,908.999
		l-0.117-1.996l0.998-0.059l0.117,1.996L493.605,908.999z M440.546,908.92l-0.998-0.062l0.123-1.996l0.998,0.062L440.546,908.92z
		 M502.604,908.39l-0.158-1.994l0.996-0.079l0.158,1.994L502.604,908.39z M431.55,908.283l-0.997-0.083l0.164-1.993l0.997,0.082
		L431.55,908.283z M511.587,907.596l-0.199-1.99l0.995-0.1l0.199,1.99L511.587,907.596z M422.571,907.464l-0.998-0.102l0.205-1.99
		l0.992,0.102L422.571,907.464z M520.551,906.62l-0.234-1.986l0.989-0.119l0.24,1.986L520.551,906.62z M413.607,906.462
		l-0.995-0.123l0.246-1.984l0.989,0.121L413.607,906.462z M529.494,905.463l-0.275-1.98l0.987-0.14l0.281,1.98L529.494,905.463z
		 M404.666,905.277l-0.993-0.144l0.287-1.979l0.987,0.142L404.666,905.277z M538.413,904.124l-0.316-1.975l0.984-0.16l0.322,1.975
		L538.413,904.124z M395.751,903.91l-0.989-0.164l0.328-1.973l0.983,0.162L395.751,903.91z M547.304,902.601l-0.357-1.967l0.98-0.18
		l0.363,1.967L547.304,902.601z M386.866,902.361l-0.986-0.184l0.369-1.965l0.98,0.182L386.866,902.361z M556.16,900.897
		l-0.398-1.96l0.977-0.2l0.404,1.959L556.16,900.897z M378.014,900.631l-0.982-0.204l0.41-1.957l0.976,0.202L378.014,900.631z
		 M564.983,899.013l-0.441-1.951l0.973-0.22l0.445,1.949L564.983,899.013z M369.2,898.718l-0.975-0.223l0.445-1.949l0.975,0.223
		L369.2,898.718z M573.76,896.945l-0.479-1.941l0.97-0.24l0.48,1.941L573.76,896.945z M360.426,896.625l-0.97-0.243l0.486-1.939
		l0.97,0.243L360.426,896.625z M582.494,894.7l-0.518-1.932l0.963-0.259l0.521,1.93L582.494,894.7z M351.7,894.354l-0.968-0.264
		l0.527-1.93l0.962,0.262L351.7,894.354z M591.182,892.275l-0.559-1.92l0.958-0.28l0.562,1.92L591.182,892.275z M343.019,891.902
		l-0.959-0.282l0.563-1.92l0.958,0.282L343.019,891.902z M599.818,889.673l-0.6-1.908l0.951-0.299l0.604,1.906L599.818,889.673z
		 M334.392,889.272l-0.961-0.305l0.607-1.906l0.954,0.303L334.392,889.272z M608.398,886.893l-0.639-1.896l0.947-0.318l0.639,1.895
		L608.398,886.893z M325.786,886.454l-0.954-0.324l0.647-1.893l0.948,0.322L325.786,886.454z M616.915,883.937l-0.672-1.883
		l0.938-0.338l0.68,1.881L616.915,883.937z M317.242,883.461l-0.944-0.344l0.683-1.879l0.943,0.342L317.242,883.461z
		 M625.376,880.804l-0.715-1.867l0.935-0.357l0.715,1.867L625.376,880.804z M308.765,880.292l-0.938-0.363l0.724-1.865l0.934,0.361
		L308.765,880.292z M633.766,877.501l-0.748-1.854l0.923-0.376l0.756,1.852L633.766,877.501z M300.356,876.948l-0.929-0.381
		l0.76-1.85l0.928,0.381L300.356,876.948z M642.062,874.038l-0.789-1.838l0.911-0.393l0.795,1.836L642.062,874.038z M292.02,873.436
		l-0.922-0.401l0.8-1.834l0.917,0.399L292.02,873.436z M650.281,870.408l-0.828-1.82l0.905-0.413l0.83,1.82L650.281,870.408z
		 M283.759,869.751l-0.911-0.419l0.836-1.816l0.911,0.419L283.759,869.751z M658.425,866.608l-0.861-1.805l0.894-0.43l0.871,1.801
		L658.425,866.608z M275.579,865.898l-0.905-0.438l0.876-1.799l0.9,0.437L275.579,865.898z M666.492,862.643l-0.896-1.787
		l0.885-0.447l0.906,1.783L666.492,862.643z M267.481,861.88l-0.896-0.458l0.912-1.779l0.89,0.454L267.481,861.88z M674.481,858.512
		l-0.934-1.768l0.876-0.467l0.941,1.765L674.481,858.512z M259.469,857.696l-0.885-0.475l0.946-1.762l0.881,0.473L259.469,857.696z
		 M682.383,854.218l-0.969-1.75l0.867-0.483l0.977,1.746L682.383,854.218z M251.543,853.35l-0.873-0.492l0.982-1.742l0.873,0.492
		L251.543,853.35z M690.201,849.763l-1.01-1.727l0.861-0.504l1.01,1.727L690.201,849.763z M243.712,848.845l-0.863-0.51l1.018-1.723
		l0.863,0.51L243.712,848.845z M697.926,845.149l-1.043-1.707l0.849-0.521l1.047,1.705L697.926,845.149z M235.975,844.18
		l-0.853-0.528l1.054-1.699l0.851,0.526L235.975,844.18z M705.556,840.377l-1.076-1.686l0.837-0.536l1.082,1.682L705.556,840.377z
		 M228.338,839.359l-0.843-0.546l1.088-1.678l0.839,0.542L228.338,839.359z M713.09,835.45l-1.111-1.664l0.827-0.554l1.115,1.66
		L713.09,835.45z M220.802,834.385l-0.834-0.564l1.127-1.652l0.825,0.559L220.802,834.385z M720.525,830.369l-1.146-1.639
		l0.815-0.571l1.15,1.637L720.525,830.369z M213.368,829.257l-0.82-0.58l1.157-1.631l0.815,0.576L213.368,829.257z M727.853,825.141
		l-1.178-1.617l0.806-0.588l1.18,1.615L727.853,825.141z M206.044,823.981l-0.808-0.595l1.188-1.609l0.804,0.593L206.044,823.981z
		 M735.077,819.761l-1.211-1.592l0.792-0.604l1.215,1.59L735.077,819.761z M198.828,818.557l-0.795-0.611l1.222-1.584l0.792,0.609
		L198.828,818.557z M742.192,814.233l-1.244-1.566l0.782-0.621l1.244,1.566L742.192,814.233z M191.726,812.99l-0.782-0.628
		l1.252-1.559l0.779,0.624L191.726,812.99z M749.189,808.567l-1.266-1.549l0.763-0.631l1.279,1.537L749.189,808.567z
		 M184.738,807.278l-0.768-0.643l1.284-1.533l0.766,0.641L184.738,807.278z M756.079,802.752l-1.305-1.516l0.754-0.651l1.309,1.514
		L756.079,802.752z M177.869,801.429l-0.756-0.66l1.317-1.504l0.751,0.654L177.869,801.429z M762.848,796.801l-1.336-1.488
		l0.741-0.667l1.34,1.486L762.848,796.801z M171.123,795.441l-0.743-0.674l1.347-1.479l0.738,0.67L171.123,795.441z
		 M769.496,790.712l-1.367-1.461l0.729-0.683l1.367,1.461L769.496,790.712z M164.499,789.318l-0.73-0.691l1.38-1.447l0.723,0.684
		L164.499,789.318z M776.018,784.491l-1.394-1.435l0.712-0.695l1.4,1.43L776.018,784.491z M158.002,783.064l-0.715-0.704
		l1.407-1.422l0.709,0.698L158.002,783.064z M782.416,778.136l-1.424-1.406l0.7-0.71l1.426,1.402L782.416,778.136z M151.634,776.681
		l-0.7-0.718l1.435-1.395l0.696,0.714L151.634,776.681z M788.683,771.652l-1.451-1.375l0.685-0.726l1.455,1.373L788.683,771.652z
		 M145.398,770.169l-0.684-0.729l1.46-1.367l0.683,0.729L145.398,770.169z M794.818,765.043l-1.477-1.348l0.669-0.737l1.482,1.342
		L794.818,765.043z M139.297,763.535l-0.671-0.746l1.49-1.334l0.666,0.74L139.297,763.535z M800.819,758.309l-1.504-1.318
		l0.654-0.75l1.51,1.311L800.819,758.309z M133.33,756.779l-0.655-0.761l1.519-1.301l0.649,0.753L133.33,756.779z M806.687,751.45
		l-1.535-1.283l0.642-0.768l1.535,1.283L806.687,751.45z M127.505,749.905l-0.64-0.772l1.543-1.273l0.634,0.767L127.505,749.905z
		 M812.409,744.477l-1.559-1.254l0.624-0.777l1.562,1.248L812.409,744.477z M121.82,742.915l-0.623-0.784l1.567-1.242l0.62,0.78
		L121.82,742.915z M817.991,737.387l-1.582-1.225l0.608-0.789l1.586,1.218L817.991,737.387z M116.279,735.812l-0.606-0.796
		l1.592-1.211l0.604,0.792L116.279,735.812z M823.432,730.182l-1.609-1.188l0.593-0.804l1.611,1.184L823.432,730.182z
		 M110.885,728.6l-0.591-0.81l1.618-1.176l0.586,0.804L110.885,728.6z M828.723,722.866l-1.634-1.154l0.577-0.817l1.634,1.154
		L828.723,722.866z M105.638,721.28l-0.574-0.821l1.642-1.143l0.57,0.815L105.638,721.28z M833.865,715.445l-1.654-1.123
		l0.559-0.827l1.658,1.119L833.865,715.445z M100.543,713.856l-0.557-0.831l1.663-1.111l0.554,0.827L100.543,713.856z
		 M838.856,707.919l-1.678-1.088l0.542-0.839l1.682,1.084L838.856,707.919z M95.601,706.334l-0.54-0.842l1.685-1.078l0.536,0.838
		L95.601,706.334z M843.693,700.291l-1.699-1.055l0.524-0.849l1.703,1.048L843.693,700.291z M90.813,698.712l-0.522-0.854
		l1.707-1.041l0.52,0.848L90.813,698.712z M848.372,692.564l-1.721-1.02l0.509-0.86l1.723,1.016L848.372,692.564z M86.182,690.996
		l-0.504-0.862l1.728-1.008l0.503,0.86L86.182,690.996z M852.896,684.742l-1.742-0.982l0.492-0.873l1.742,0.982L852.896,684.742z
		 M81.711,683.19l-0.486-0.874l1.748-0.971l0.484,0.868L81.711,683.19z M857.258,676.829l-1.762-0.947l0.472-0.88l1.766,0.941
		L857.258,676.829z M77.401,675.296l-0.469-0.883l1.768-0.936l0.466,0.877L77.401,675.296z M861.458,668.824l-1.779-0.913
		l0.454-0.889l1.783,0.906L861.458,668.824z M73.253,667.316l-0.451-0.894l1.788-0.896l0.447,0.886L73.253,667.316z
		 M865.493,660.735l-1.799-0.875l0.437-0.9l1.801,0.871L865.493,660.735z M69.271,659.259l-0.433-0.902l1.805-0.861l0.43,0.895
		L69.271,659.259z M869.364,652.562l-1.816-0.836l0.419-0.911l1.816,0.836L869.364,652.562z M65.454,651.119l-0.414-0.908
		l1.821-0.826l0.412,0.904L65.454,651.119z M873.065,644.31l-1.834-0.8l0.399-0.917l1.836,0.795L873.065,644.31z M61.805,642.906
		l-0.395-0.917l1.839-0.787l0.393,0.913L61.805,642.906z M876.597,635.982l-1.85-0.762l0.381-0.927l1.85,0.76L876.597,635.982z
		 M58.327,634.626l-0.378-0.931l1.854-0.748l0.375,0.923L58.327,634.626z M879.955,627.582l-1.863-0.727l0.36-0.931l1.867,0.717
		L879.955,627.582z M55.005,626.239l-0.358-0.936l1.868-0.715l0.357,0.934L55.005,626.239z M883.144,619.108l-1.879-0.684
		l0.343-0.943l1.879,0.684L883.144,619.108z M51.857,617.789l-0.34-0.945l1.884-0.672l0.337,0.938L51.857,617.789z M886.156,610.575
		l-1.893-0.648l0.322-0.947l1.895,0.641L886.156,610.575z M48.883,609.272l-0.319-0.948l1.896-0.637l0.319,0.946L48.883,609.272z
		 M888.991,601.974l-1.906-0.605l0.303-0.956l1.908,0.602L888.991,601.974z M46.085,600.699l-0.3-0.954l1.908-0.6l0.299,0.952
		L46.085,600.699z M891.641,593.348l-1.918-0.566l0.281-0.958l1.92,0.562L891.641,593.348z M43.463,592.07l-0.28-0.962l1.921-0.559
		l0.279,0.958L43.463,592.07z M894.111,584.673l-1.93-0.525l0.263-0.963l1.93,0.521L894.111,584.673z M41.02,583.387l-0.26-0.966
		l1.932-0.52l0.259,0.964L41.02,583.387z M896.401,575.948l-1.939-0.484l0.243-0.972l1.939,0.486L896.401,575.948z M38.756,574.658
		l-0.241-0.975l1.942-0.477l0.239,0.967L38.756,574.658z M898.512,567.181l-1.949-0.445l0.223-0.976l1.949,0.445L898.512,567.181z
		 M36.672,565.882l-0.221-0.975l1.951-0.441l0.22,0.975L36.672,565.882z M900.443,558.371l-1.957-0.408l0.202-0.978l1.959,0.404
		L900.443,558.371z M34.768,557.066l-0.201-0.981l1.96-0.398l0.2,0.978L34.768,557.066z M902.192,549.524l-1.965-0.369l0.182-0.98
		l1.967,0.363L902.192,549.524z M33.045,548.212l-0.18-0.984l1.968-0.357l0.18,0.982L33.045,548.212z M903.759,540.643l-1.973-0.328
		l0.161-0.984l1.975,0.322L903.759,540.643z M31.505,539.327l-0.16-0.99l1.975-0.316l0.159,0.984L31.505,539.327z M905.144,531.73
		l-1.979-0.287l0.142-0.987l1.98,0.281L905.144,531.73z M30.146,530.411l-0.14-0.991l1.98-0.278l0.14,0.988L30.146,530.411z
		 M906.348,522.793l-1.984-0.246l0.121-0.99l1.986,0.24L906.348,522.793z M28.969,521.47l-0.119-0.993l1.985-0.238l0.119,0.991
		L28.969,521.47z M907.37,513.83l-1.99-0.205l0.102-0.992l1.99,0.199L907.37,513.83z M27.975,512.505l-0.099-0.996l1.99-0.197
		l0.099,0.994L27.975,512.505z M908.207,504.852l-1.994-0.164l0.082-0.997l1.993,0.164L908.207,504.852z M27.164,503.524
		l-0.08-0.998l1.994-0.156l0.079,0.993L27.164,503.524z M908.864,495.855l-1.996-0.123l0.062-0.998l1.996,0.123L908.864,495.855z
		 M26.535,494.526l-0.059-1l1.997-0.115l0.058,0.996L26.535,494.526z M909.337,486.85l-1.998-0.082l0.041-0.999l1.998,0.082
		L909.337,486.85z M26.088,485.52l-0.036-0.926l1.996-0.147l0.039,0.993L26.088,485.52z M909.63,477.839l-2-0.047l0.021-0.997
		l2,0.041L909.63,477.839z M25.822,476.524l-0.019-0.999l2-0.035l0.019,0.996L25.822,476.524z M909.742,468.82l-2-0.006l0.001-0.997
		h2L909.742,468.82z M27.737,467.508h-2l0.001-1.003l2,0.006L27.737,467.508z M907.674,459.835l-0.019-0.995l2-0.041l0.019,1.001
		L907.674,459.835z M27.831,458.531l-2-0.041l0.022-1.001l1.999,0.044L27.831,458.531z M907.428,450.88l-0.039-0.992l1.998-0.082
		l0.039,0.998L907.428,450.88z M28.105,449.558l-1.998-0.082l0.042-1l1.998,0.085L28.105,449.558z M906.999,441.916l-0.059-0.999
		l1.996-0.117l0.059,0.999L906.999,441.916z M28.56,440.59l-1.996-0.12l0.062-1.001l1.996,0.126L28.56,440.59z M906.388,432.958
		l-0.079-0.997l1.994-0.158l0.079,0.997L906.388,432.958z M29.196,431.635l-1.993-0.161l0.082-1l1.993,0.167L29.196,431.635z
		 M905.599,424.015l-0.1-0.995l1.99-0.199l0.1,0.995L905.599,424.015z M30.014,422.694l-1.99-0.202l0.103-0.996l1.989,0.205
		L30.014,422.694z M904.626,415.091l-0.12-0.993l1.986-0.24l0.12,0.993L904.626,415.091z M31.013,413.772l-1.985-0.243l0.123-0.994
		l1.984,0.247L31.013,413.772z M903.473,406.185l-0.14-0.987l1.98-0.281l0.14,0.993L903.473,406.185z M32.194,404.872l-1.979-0.284
		l0.143-0.991l1.979,0.287L32.194,404.872z M902.137,397.307l-0.16-0.984l1.975-0.322l0.16,0.99L902.137,397.307z M33.556,395.997
		l-1.974-0.322l0.163-0.99l1.973,0.329L33.556,395.997z M900.621,388.461l-0.181-0.984l1.967-0.363l0.181,0.984L900.621,388.461z
		 M35.1,387.152l-1.967-0.363l0.184-0.986l1.966,0.369L35.1,387.152z M898.922,379.642l-0.2-0.977l1.959-0.404l0.2,0.982
		L898.922,379.642z M36.824,378.342l-1.959-0.404l0.204-0.98l1.958,0.407L36.824,378.342z M897.044,370.864l-0.22-0.972l1.949-0.445
		l0.222,0.978L897.044,370.864z M38.729,369.569l-1.95-0.445l0.224-0.976l1.949,0.448L38.729,369.569z M894.987,362.125l-0.24-0.971
		l1.941-0.48l0.24,0.971L894.987,362.125z M40.813,360.835l-1.94-0.483l0.244-0.973l1.939,0.489L40.813,360.835z M892.749,353.431
		l-0.261-0.965l1.932-0.521l0.261,0.966L892.749,353.431z M43.077,352.147l-1.93-0.524l0.264-0.966l1.929,0.527L43.077,352.147z
		 M890.333,344.782l-0.279-0.957l1.92-0.562l0.281,0.963L890.333,344.782z M45.519,343.507l-1.919-0.562l0.284-0.962l1.917,0.568
		L45.519,343.507z M887.741,336.187l-0.299-0.951l1.906-0.604l0.301,0.957L887.741,336.187z M48.138,334.92l-1.907-0.604
		l0.304-0.958l1.906,0.604L48.138,334.92z M884.973,327.648l-0.319-0.948l1.895-0.639l0.319,0.948L884.973,327.648z M50.944,326.354
		l-1.894-0.642l0.324-0.954l1.893,0.647L50.944,326.354z M882.028,319.164l-0.338-0.938l1.881-0.68l0.34,0.944L882.028,319.164z
		 M53.926,317.851l-1.88-0.682l0.344-0.945l1.879,0.686L53.926,317.851z M878.911,310.746l-0.357-0.931l1.865-0.721l0.359,0.937
		L878.911,310.746z M57.082,309.413l-1.865-0.721l0.363-0.938l1.864,0.724L57.082,309.413z M875.619,302.391l-0.376-0.923
		l1.852-0.756l0.378,0.928L875.619,302.391z M60.41,301.042l-1.851-0.759l0.382-0.93l1.849,0.763L60.41,301.042z M872.17,294.136
		l-0.394-0.912l1.836-0.794l0.396,0.917L872.17,294.136z M63.91,292.745l-1.834-0.797l0.401-0.921l1.833,0.8L63.91,292.745z
		 M868.555,285.956l-0.413-0.906l1.82-0.83l0.413,0.906L868.555,285.956z M67.579,284.522l-1.818-0.833l0.42-0.914l1.816,0.838
		L67.579,284.522z M864.773,277.848l-0.431-0.895l1.801-0.871l0.433,0.9L864.773,277.848z M71.415,276.38l-1.8-0.871l0.438-0.903
		l1.799,0.873L71.415,276.38z M860.822,269.816l-0.449-0.886l1.783-0.906l0.451,0.892L860.822,269.816z M75.417,268.319
		l-1.782-0.908l0.457-0.895l1.78,0.911L75.417,268.319z M856.709,261.866l-0.466-0.877l1.765-0.941l0.469,0.883L856.709,261.866z
		 M79.582,260.344l-1.763-0.944l0.475-0.884l1.762,0.946L79.582,260.344z M852.434,254.001l-0.486-0.87l1.746-0.976l0.486,0.87
		L852.434,254.001z M83.91,252.457l-1.743-0.98l0.493-0.875l1.741,0.984L83.91,252.457z M847.997,246.221l-0.503-0.859l1.725-1.011
		l0.505,0.861L847.997,246.221z M88.398,244.662l-1.724-1.016l0.511-0.865l1.721,1.02L88.398,244.662z M843.403,238.532l-0.521-0.85
		l1.705-1.046l0.521,0.851L843.403,238.532z M93.043,236.96l-1.702-1.05l0.529-0.854l1.699,1.054L93.043,236.96z M838.651,230.935
		l-0.537-0.837l1.684-1.081l0.539,0.842L838.651,230.935z M97.843,229.358l-1.68-1.086l0.545-0.842l1.679,1.088L97.843,229.358z
		 M833.744,223.436l-0.554-0.826l1.66-1.116l0.558,0.832L833.744,223.436z M102.797,221.855l-1.659-1.117l0.563-0.833l1.655,1.123
		L102.797,221.855z M828.688,216.038l-0.571-0.815l1.637-1.149l0.573,0.819L828.688,216.038z M107.902,214.458l-1.635-1.152
		l0.58-0.82l1.631,1.157L107.902,214.458z M823.479,208.743l-0.589-0.806l1.615-1.181l0.589,0.806L823.479,208.743z
		 M113.155,207.166l-1.61-1.186l0.595-0.807l1.609,1.188L113.155,207.166z M818.122,201.55l-0.604-0.791l1.588-1.216l0.607,0.796
		L818.122,201.55z M118.556,199.984l-1.587-1.218l0.612-0.794l1.584,1.221L118.556,199.984z M812.62,194.471l-0.621-0.781
		l1.564-1.245l0.621,0.781L812.62,194.471z M124.099,192.915l-1.561-1.251l0.627-0.782l1.559,1.254L124.099,192.915z M806.974,187.5
		l-0.635-0.766l1.537-1.279l0.641,0.772L806.974,187.5z M129.785,185.96l-1.534-1.282l0.643-0.769l1.532,1.286L129.785,185.96z
		 M801.187,180.646l-0.65-0.754l1.514-1.308l0.654,0.759L801.187,180.646z M135.611,179.124l-1.509-1.312l0.659-0.755l1.506,1.315
		L135.611,179.124z M795.261,173.911l-0.667-0.742l1.486-1.338l0.669,0.744L795.261,173.911z M141.573,172.408l-1.482-1.342
		l0.674-0.743l1.479,1.347L141.573,172.408z M789.2,167.294l-0.682-0.727l1.457-1.371l0.686,0.732L789.2,167.294z M147.669,165.816
		l-1.455-1.373l0.689-0.729l1.45,1.377L147.669,165.816z M783.004,160.801l-0.695-0.713l1.429-1.399l0.7,0.717L783.004,160.801z
		 M153.896,159.348l-1.427-1.401l0.705-0.715l1.422,1.407L153.896,159.348z M776.676,154.434l-0.711-0.701l1.402-1.426l0.713,0.702
		L776.676,154.434z M160.252,153.011l-1.398-1.431l0.717-0.699l1.396,1.433L160.252,153.011z M770.222,148.196l-0.726-0.686
		l1.373-1.455l0.728,0.689L770.222,148.196z M166.735,146.803l-1.369-1.458l0.732-0.685l1.363,1.463L166.735,146.803z
		 M763.639,142.087l-0.738-0.67l1.342-1.482l0.743,0.674L763.639,142.087z M173.34,140.73l-1.339-1.485l0.746-0.67l1.334,1.49
		L173.34,140.73z M756.934,136.114l-0.751-0.655l1.311-1.51l0.757,0.659L756.934,136.114z M180.067,134.792l-1.308-1.513
		l0.758-0.654l1.305,1.516L180.067,134.792z M750.107,130.278l-0.766-0.64l1.281-1.536l0.77,0.643L750.107,130.278z
		 M186.911,128.994l-1.276-1.54l0.771-0.638l1.272,1.543L186.911,128.994z M743.162,124.58l-0.778-0.625l1.25-1.562l0.782,0.628
		L743.162,124.58z M193.872,123.336l-1.247-1.563l0.784-0.623l1.242,1.567L193.872,123.336z M736.103,119.023l-0.79-0.608
		l1.218-1.587l0.795,0.612L736.103,119.023z M200.943,117.822l-1.214-1.59l0.796-0.606l1.21,1.592L200.943,117.822z
		 M728.932,113.611l-0.805-0.593l1.186-1.61l0.807,0.594L728.932,113.611z M208.123,112.453l-1.181-1.615l0.807-0.589l1.178,1.616
		L208.123,112.453z M721.649,108.345l-0.816-0.577l1.154-1.634l0.818,0.578L721.649,108.345z M215.41,107.231l-1.147-1.638
		l0.818-0.573l1.146,1.64L215.41,107.231z M714.259,103.227l-0.827-0.56l1.119-1.658l0.831,0.562L714.259,103.227z M222.802,102.16
		l-1.116-1.659l0.831-0.557l1.111,1.663L222.802,102.16z M706.767,98.26l-0.84-0.543l1.086-1.68l0.842,0.544L706.767,98.26z
		 M230.291,97.241l-1.081-1.683l0.842-0.539l1.077,1.685L230.291,97.241z M699.171,93.446l-0.85-0.525l1.051-1.702l0.854,0.528
		L699.171,93.446z M237.879,92.477l-1.046-1.704l0.851-0.521l1.044,1.706L237.879,92.477z M691.479,88.788l-0.858-0.507l1.014-1.724
		l0.866,0.511L691.479,88.788z M245.56,87.869l-1.011-1.726l0.863-0.504l1.007,1.729L245.56,87.869z M683.694,84.288l-0.872-0.491
		l0.98-1.743l0.874,0.492L683.694,84.288z M253.332,83.419l-0.976-1.746l0.872-0.486l0.973,1.748L253.332,83.419z M675.813,79.945
		l-0.88-0.472l0.943-1.764l0.887,0.476L675.813,79.945z M261.192,79.129l-0.941-1.765l0.883-0.469l0.936,1.768L261.192,79.129z
		 M667.844,75.766l-0.889-0.454l0.906-1.783l0.896,0.458L667.844,75.766z M269.134,75.003l-0.902-1.785l0.89-0.45l0.9,1.786
		L269.134,75.003z M659.792,71.75l-0.901-0.436l0.871-1.801l0.903,0.438L659.792,71.75z M277.158,71.039l-0.867-1.802l0.9-0.432
		l0.862,1.805L277.158,71.039z M651.656,67.9l-0.91-0.418l0.834-1.818l0.912,0.419L651.656,67.9z M285.26,67.242l-0.83-1.819
		l0.907-0.413l0.829,1.82L285.26,67.242z M643.44,64.217l-0.917-0.399l0.795-1.835l0.923,0.401L643.44,64.217z M293.434,63.612
		l-0.792-1.837l0.916-0.394l0.789,1.838L293.434,63.612z M635.149,60.702l-0.924-0.379l0.756-1.852l0.932,0.382L635.149,60.702z
		 M301.681,60.149l-0.756-1.852l0.929-0.378l0.75,1.854L301.681,60.149z M626.783,57.359L625.853,57l0.717-1.867l0.94,0.364
		L626.783,57.359z M310.029,56.844l-0.718-1.866l0.937-0.359l0.712,1.869L310.029,56.844z M618.353,54.189l-0.94-0.342l0.68-1.881
		l0.946,0.344L618.353,54.189z M318.443,53.712l-0.68-1.881l0.944-0.339l0.674,1.883L318.443,53.712z M609.855,51.192l-0.948-0.322
		l0.641-1.895l0.954,0.324L609.855,51.192z M326.918,50.753l-0.639-1.896l0.95-0.319l0.635,1.896L326.918,50.753z M601.295,48.371
		l-0.956-0.303l0.602-1.907l0.96,0.304L601.295,48.371z M335.454,47.969l-0.601-1.907l0.956-0.3l0.597,1.909L335.454,47.969z
		 M592.709,45.736l-0.959-0.282l0.562-1.919l0.961,0.282L592.709,45.736z M344.046,45.361l-0.562-1.919l0.963-0.281l0.557,1.921
		L344.046,45.361z M584.073,43.279l-0.965-0.263l0.525-1.93l0.965,0.263L584.073,43.279z M352.688,42.93L352.166,41l0.968-0.26
		l0.518,1.932L352.688,42.93z M575.389,41l-0.971-0.243l0.484-1.94l0.971,0.243L575.389,41z M361.378,40.679l-0.48-1.941l0.972-0.24
		l0.478,1.942L361.378,40.679z M566.658,38.899l-0.973-0.222l0.441-1.95l0.979,0.223L566.658,38.899z M370.114,38.605l-0.442-1.95
		l0.979-0.221l0.437,1.952L370.114,38.605z M557.889,36.979l-0.979-0.202l0.404-1.959l0.98,0.203L557.889,36.979z M378.89,36.711
		l-0.401-1.959l0.981-0.2l0.398,1.96L378.89,36.711z M549.08,35.24l-0.981-0.182l0.363-1.967l0.985,0.183L549.08,35.24z
		 M387.702,34.998l-0.36-1.967l0.985-0.18l0.357,1.968L387.702,34.998z M540.24,33.68l-0.986-0.162l0.322-1.974l0.988,0.162
		L540.24,33.68z M396.55,33.466l-0.322-1.974l0.99-0.16l0.316,1.975L396.55,33.466z M531.366,32.303l-0.987-0.142l0.281-1.98
		l0.993,0.143L531.366,32.303z M405.425,32.116l-0.281-1.98l0.993-0.139l0.275,1.98L405.425,32.116z M522.469,31.106l-0.991-0.122
		L521.72,29l0.995,0.122L522.469,31.106z M414.326,30.946l-0.24-1.985l0.995-0.12l0.237,1.986L414.326,30.946z M513.549,30.092
		l-0.993-0.102l0.201-1.99l0.997,0.102L513.549,30.092z M423.249,29.958l-0.199-1.99l0.995-0.099l0.199,1.99L423.249,29.958z
		 M504.61,29.259l-0.996-0.082l0.161-1.993l0.999,0.082L504.61,29.259z M432.191,29.152l-0.158-1.994l0.999-0.079l0.155,1.994
		L432.191,29.152z M495.655,28.607l-0.996-0.061l0.119-1.996l1,0.061L495.655,28.607z M441.149,28.526l-0.12-1.996l1.001-0.059
		l0.114,1.997L441.149,28.526z M486.689,28.137l-0.996-0.041l0.079-1.998l1.001,0.041L486.689,28.137z M450.116,28.083l-0.079-1.998
		l0.998-0.039l0.073,1.999L450.116,28.083z M477.716,27.847l-0.999-0.021l0.041-2l1.001,0.021L477.716,27.847z M459.07,27.82
		l-0.038-2l1-0.018l0.035,2L459.07,27.82z M468.738,27.737l-0.998-0.001v-2l0.998,0.001V27.737z"/>
</g>
<g id="Oval-1_1_">
	<path fill="#4A4A4A" d="M472.25,837.91l-0.059-5l0.991-0.014l0.073,5L472.25,837.91z M463.192,837.908l-1-0.013l0.059-5l1,0.013
		L463.192,837.908z M482.296,837.654l-0.191-4.996l0.986-0.04l0.207,4.996L482.296,837.654z M453.132,837.652l-1.006-0.04
		l0.205-4.996l0.992,0.04L453.132,837.652z M492.35,837.131l-0.338-4.988l0.997-0.067l0.338,4.988L492.35,837.131z M443.082,837.128
		l-1.005-0.067l0.337-4.988l0.99,0.065L443.082,837.128z M502.383,836.336l-0.471-4.979l0.996-0.094l0.469,4.979L502.383,836.336z
		 M433.043,836.331l-0.996-0.094l0.469-4.979l0.996,0.094L433.043,836.331z M512.389,835.271l-0.602-4.963l0.985-0.121l0.615,4.963
		L512.389,835.271z M423.036,835.263l-0.993-0.12l0.602-4.963l0.992,0.12L423.036,835.263z M522.371,833.933l-0.748-4.943
		l0.988-0.148l0.748,4.943L522.371,833.933z M413.061,833.925l-0.996-0.148l0.747-4.943l0.981,0.146L413.061,833.925z
		 M532.299,832.325l-0.865-4.924l0.978-0.174l0.879,4.922L532.299,832.325z M403.126,832.315l-0.992-0.176l0.879-4.922l0.977,0.174
		L403.126,832.315z M542.195,830.446l-1.012-4.896l0.979-0.202l1.012,4.896L542.195,830.446z M393.239,830.436l-0.987-0.203
		l1.012-4.896l0.972,0.199L393.239,830.436z M552.026,828.297l-1.141-4.868l0.973-0.228l1.144,4.867L552.026,828.297z
		 M383.405,828.286l-0.981-0.229l1.144-4.867l0.966,0.226L383.405,828.286z M561.795,825.881l-1.271-4.836l0.966-0.254l1.275,4.834
		L561.795,825.881z M373.627,825.865l-0.967-0.255l1.274-4.834l0.967,0.255L373.627,825.865z M571.498,823.197l-1.404-4.799
		l0.958-0.28l1.408,4.797L571.498,823.197z M363.926,823.182l-0.961-0.281l1.406-4.799l0.959,0.281L363.926,823.182z
		 M581.124,820.248l-1.537-4.758l0.952-0.308l1.537,4.758L581.124,820.248z M354.303,820.231l-0.963-0.311l1.546-4.756l0.948,0.307
		L354.303,820.231z M590.665,817.037l-1.668-4.713l0.943-0.334l1.668,4.713L590.665,817.037z M344.728,817.007l-0.954-0.338
		l1.677-4.711l0.939,0.333L344.728,817.007z M600.115,813.565l-1.799-4.666l0.931-0.358l1.804,4.664L600.115,813.565z
		 M335.248,813.521l-0.938-0.361l1.796-4.666l0.936,0.359L335.248,813.521z M609.459,809.839l-1.912-4.619l0.91-0.379l1.93,4.612
		L609.459,809.839z M325.875,809.778l-0.934-0.389l1.927-4.613l0.918,0.383L325.875,809.778z M618.676,805.868l-2.045-4.562
		l0.901-0.405l2.059,4.557L618.676,805.868z M316.603,805.778l-0.922-0.414l2.059-4.557l0.907,0.408L316.603,805.778z
		 M627.776,801.65l-2.16-4.51l0.889-0.429l2.178,4.502L627.776,801.65z M307.453,801.529l-0.909-0.438l2.175-4.502l0.897,0.433
		L307.453,801.529z M636.767,797.182l-2.289-4.445l0.883-0.455l2.295,4.442L636.767,797.182z M298.418,797.03l-0.891-0.46
		l2.294-4.443l0.891,0.46L298.418,797.03z M645.633,792.471l-2.41-4.381l0.867-0.479l2.422,4.375L645.633,792.471z M289.516,792.288
		l-0.883-0.487l2.424-4.373l0.872,0.481L289.516,792.288z M654.368,787.52l-2.525-4.316l0.852-0.499l2.543,4.305L654.368,787.52z
		 M280.75,787.308l-0.872-0.513l2.547-4.303l0.854,0.503L280.75,787.308z M662.97,782.33l-2.643-4.244l0.841-0.525l2.654,4.238
		L662.97,782.33z M272.123,782.09l-0.856-0.536l2.661-4.232l0.842,0.526L272.123,782.09z M671.431,776.908l-2.76-4.17l0.832-0.551
		l2.76,4.17L671.431,776.908z M263.643,776.641l-0.835-0.556l2.767-4.164l0.833,0.553L263.643,776.641z M679.74,771.26l-2.865-4.098
		l0.812-0.57l2.875,4.092L679.74,771.26z M255.319,770.965l-0.825-0.581l2.884-4.084l0.812,0.571L255.319,770.965z M687.897,765.386
		l-2.977-4.018l0.794-0.59l2.992,4.006L687.897,765.386z M247.149,765.063l-0.804-0.599l2.989-4.008l0.801,0.597L247.149,765.063z
		 M695.894,759.292l-3.084-3.936l0.78-0.613l3.094,3.928L695.894,759.292z M239.148,758.948l-0.792-0.624l3.102-3.922l0.78,0.614
		L239.148,758.948z M703.721,752.985l-3.182-3.857l0.761-0.631l3.197,3.844L703.721,752.985z M231.315,752.617l-0.775-0.646
		l3.207-3.836l0.762,0.636L231.315,752.617z M711.384,746.462l-3.293-3.762l0.747-0.656l3.301,3.756L711.384,746.462z
		 M223.658,746.079l-0.757-0.667l3.31-3.748l0.745,0.656L223.658,746.079z M718.862,739.741l-3.387-3.68l0.727-0.671l3.4,3.664
		L718.862,739.741z M216.181,739.336l-0.74-0.688l3.413-3.654l0.725,0.674L216.181,739.336z M726.16,732.813l-3.484-3.586
		l0.708-0.691l3.498,3.572L726.16,732.813z M208.89,732.394l-0.715-0.702l3.502-3.568l0.712,0.698L208.89,732.394z M733.274,725.688
		l-3.586-3.484l0.691-0.714l3.594,3.477L733.274,725.688z M201.794,725.262l-0.702-0.727l3.604-3.465l0.687,0.711L201.794,725.262z
		 M740.19,718.374l-3.68-3.387l0.669-0.729l3.693,3.371L740.19,718.374z M194.892,717.941l-0.68-0.743l3.693-3.371l0.669,0.731
		L194.892,717.941z M746.907,710.874l-3.77-3.285l0.653-0.751l3.775,3.277L746.907,710.874z M188.192,710.437l-0.66-0.761
		l3.783-3.27l0.649,0.749L188.192,710.437z M753.42,703.196l-3.857-3.182l0.633-0.77l3.863,3.176L753.42,703.196z M181.698,702.756
		l-0.638-0.778l3.87-3.166l0.628,0.767L181.698,702.756z M759.722,695.344l-3.936-3.084l0.605-0.777l3.953,3.061L759.722,695.344z
		 M175.415,694.903l-0.619-0.797l3.957-3.057l0.606,0.781L175.415,694.903z M765.816,687.316l-4.023-2.969l0.59-0.802l4.029,2.961
		L765.816,687.316z M169.349,686.888l-0.597-0.812l4.037-2.951l0.584,0.797L169.349,686.888z M771.686,679.13l-4.104-2.857
		l0.569-0.819l4.107,2.851L771.686,679.13z M163.501,678.708l-0.572-0.825l4.113-2.842l0.565,0.815L163.501,678.708z
		 M777.334,670.784l-4.178-2.746l0.545-0.833l4.186,2.736L777.334,670.784z M157.879,670.378l-0.546-0.835l4.184-2.738l0.546,0.835
		L157.879,670.378z M782.759,662.28l-4.258-2.619l0.524-0.853l4.259,2.619L782.759,662.28z M152.488,661.901l-0.526-0.855
		l4.262-2.615l0.52,0.844L152.488,661.901z M787.943,653.643l-4.32-2.518l0.498-0.858l4.33,2.502L787.943,653.643z M147.329,653.284
		l-0.504-0.872l4.332-2.496l0.495,0.854L147.329,653.284z M792.895,644.857l-4.387-2.398l0.474-0.871l4.396,2.381L792.895,644.857z
		 M142.405,644.527l-0.477-0.878l4.396-2.383l0.474,0.874L142.405,644.527z M797.606,635.939l-4.451-2.277l0.452-0.888l4.457,2.266
		L797.606,635.939z M137.725,635.647l-0.455-0.895l4.46-2.26l0.449,0.883L137.725,635.647z M802.074,626.89l-4.516-2.148
		l0.431-0.905l4.516,2.148L802.074,626.89z M133.288,626.643l-0.43-0.906l4.521-2.136l0.424,0.896L133.288,626.643z
		 M806.292,617.726l-4.57-2.029l0.403-0.911l4.574,2.018L806.292,617.726z M129.099,617.525l-0.402-0.911l4.573-2.021l0.402,0.911
		L129.099,617.525z M810.261,608.439l-4.627-1.896l0.378-0.923l4.631,1.885L810.261,608.439z M125.162,608.3l-0.379-0.926
		l4.627-1.896l0.379,0.926L125.162,608.3z M813.971,599.051l-4.676-1.773l0.353-0.934l4.679,1.764L813.971,599.051z
		 M121.467,598.938l-0.356-0.944l4.682-1.756l0.35,0.927L121.467,598.938z M817.422,589.562l-4.719-1.65l0.326-0.939l4.726,1.633
		L817.422,589.562z M118.027,589.478l-0.33-0.954l4.729-1.625l0.324,0.937L118.027,589.478z M820.615,579.976l-4.764-1.52l0.3-0.948
		l4.77,1.502L820.615,579.976z M114.849,579.928l-0.306-0.969l4.773-1.488l0.296,0.939L114.849,579.928z M823.535,570.331
		l-4.807-1.377l0.275-0.961l4.807,1.377L823.535,570.331z M111.933,570.292l-0.278-0.975l4.812-1.359l0.271,0.949L111.933,570.292z
		 M826.187,560.622l-4.842-1.25l0.248-0.965l4.843,1.244L826.187,560.622z M109.283,560.582l-0.252-0.98l4.847-1.23l0.245,0.957
		L109.283,560.582z M828.572,550.842l-4.873-1.115l0.22-0.966l4.877,1.098L828.572,550.842z M106.899,550.798l-0.223-0.982
		l4.878-1.099l0.22,0.968L106.899,550.798z M830.687,541.001l-4.902-0.98l0.193-0.975l4.906,0.967L830.687,541.001z
		 M104.783,540.957l-0.196-0.982l4.904-0.977l0.195,0.979L104.783,540.957z M832.534,531.1l-4.93-0.834l0.168-0.986l4.93,0.834
		L832.534,531.1z M102.94,531.063l-0.17-0.993l4.93-0.834l0.167,0.978L102.94,531.063z M834.109,521.167l-4.949-0.717l0.141-0.983
		l4.951,0.703L834.109,521.167z M101.365,521.123l-0.143-0.999l4.951-0.697l0.14,0.979L101.365,521.123z M835.414,511.18
		l-4.967-0.57l0.114-0.995l4.967,0.572L835.414,511.18z M100.061,511.14l-0.115-1l4.968-0.564l0.114,0.986L100.061,511.14z
		 M836.447,501.169l-4.98-0.439l0.088-0.996l4.98,0.439L836.447,501.169z M99.03,501.13l-0.088-1.007l4.982-0.426l0.087,0.985
		L99.03,501.13z M837.208,491.135l-4.99-0.309l0.06-0.99l4.992,0.293L837.208,491.135z M98.269,491.09l-0.061-1.001l4.991-0.301
		l0.06,0.995L98.269,491.09z M837.701,481.05l-4.998-0.142l0.033-0.993l4.998,0.162L837.701,481.05z M97.779,481.038l-0.034-1.002
		l4.997-0.162l0.034,0.988L97.779,481.038z M837.922,471.015l-5-0.029l0.007-1l5,0.029L837.922,471.015z M97.558,470.988
		l-0.007-1.007l5-0.029l0.007,0.992L97.558,470.988z M832.876,461.044l-0.019-0.991l4.998-0.103l0.021,1.005L832.876,461.044z
		 M102.605,461.012l-4.999-0.088l0.02-1.011l4.999,0.11L102.605,461.012z M832.565,451.126l-0.047-0.999l4.994-0.234l0.047,0.999
		L832.565,451.126z M102.917,451.089l-4.995-0.227l0.047-1.003l4.994,0.234L102.917,451.089z M831.988,441.21l-0.073-0.998
		l4.986-0.366l0.073,0.998L831.988,441.21z M103.496,441.174l-4.987-0.359l0.074-1.004l4.986,0.374L103.496,441.174z
		 M831.144,431.315l-0.101-0.987l4.975-0.513l0.101,1.003L831.144,431.315z M104.341,431.28l-4.976-0.491l0.101-1.005l4.974,0.513
		L104.341,431.28z M830.03,421.447l-0.126-0.984l4.959-0.645l0.128,1L830.03,421.447z M105.454,421.415l-4.96-0.63l0.127-0.996
		l4.959,0.638L105.454,421.415z M828.652,411.619l-0.154-0.988l4.939-0.776l0.154,0.989L828.652,411.619z M106.835,411.58
		l-4.941-0.762l0.155-0.996l4.939,0.776L106.835,411.58z M827.002,401.819l-0.179-0.976l4.916-0.908l0.183,0.991L827.002,401.819z
		 M108.483,401.79l-4.918-0.9l0.183-0.991l4.915,0.916L108.483,401.79z M825.091,392.082l-0.208-0.978l4.891-1.041l0.208,0.979
		L825.091,392.082z M110.399,392.046l-4.893-1.033l0.208-0.982l4.891,1.041L110.399,392.046z M822.909,382.394l-0.234-0.971
		l4.861-1.173l0.234,0.973L822.909,382.394z M112.579,382.358l-4.862-1.164l0.236-0.98l4.858,1.18L112.579,382.358z M820.467,372.77
		l-0.261-0.965l4.826-1.304l0.261,0.965L820.467,372.77z M115.024,372.734l-4.829-1.297l0.264-0.976l4.823,1.317L115.024,372.734z
		 M817.76,363.217l-0.287-0.958l4.789-1.436l0.287,0.958L817.76,363.217z M117.732,363.181l-4.792-1.429l0.291-0.968l4.785,1.449
		L117.732,363.181z M814.792,353.742l-0.313-0.949l4.748-1.568l0.313,0.949L814.792,353.742z M120.71,353.673l-4.751-1.56
		l0.318-0.961l4.746,1.574L120.71,353.673z M811.568,344.351l-0.34-0.94l4.703-1.699l0.34,0.942L811.568,344.351z M123.95,344.251
		l-4.705-1.692l0.342-0.948l4.702,1.699L123.95,344.251z M808.083,335.047l-0.362-0.923l4.652-1.832l0.368,0.939L808.083,335.047z
		 M127.447,334.921l-4.658-1.818l0.371-0.944l4.65,1.837L127.447,334.921z M804.363,325.883l-0.389-0.915l4.602-1.958l0.389,0.918
		L804.363,325.883z M131.197,325.697l-4.604-1.948l0.395-0.932l4.599,1.964L131.197,325.697z M800.39,316.816l-0.412-0.905
		l4.549-2.076l0.414,0.907L800.39,316.816z M135.198,316.581l-4.55-2.074l0.417-0.913l4.55,2.074L135.198,316.581z M796.175,307.865
		l-0.438-0.893l4.486-2.207l0.439,0.896L796.175,307.865z M139.446,307.578l-4.491-2.198l0.444-0.905l4.486,2.207L139.446,307.578z
		 M791.709,299.018l-0.459-0.876l4.428-2.324l0.465,0.888L791.709,299.018z M143.939,298.697l-4.431-2.317l0.469-0.894l4.425,2.329
		L143.939,298.697z M787.01,290.304l-0.486-0.87l4.365-2.439l0.486,0.87L787.01,290.304z M148.669,289.947l-4.363-2.441l0.492-0.878
		l4.358,2.45L148.669,289.947z M782.072,281.713l-0.508-0.854l4.295-2.56l0.512,0.86L782.072,281.713z M153.638,281.328
		l-4.297-2.558l0.516-0.865l4.291,2.566L153.638,281.328z M776.903,273.261l-0.532-0.841l4.225-2.675l0.534,0.845L776.903,273.261z
		 M158.838,272.849l-4.228-2.67l0.541-0.853l4.219,2.684L158.838,272.849z M771.5,264.944l-0.551-0.822l4.148-2.79l0.561,0.835
		L771.5,264.944z M164.265,264.518l-4.152-2.785l0.563-0.836l4.145,2.797L164.265,264.518z M765.877,256.779l-0.573-0.807
		l4.07-2.904l0.583,0.82L765.877,256.779z M169.915,256.34l-4.075-2.897l0.584-0.819l4.069,2.905L169.915,256.34z M760.034,248.77
		l-0.599-0.796l3.992-3.01l0.603,0.8L760.034,248.77z M175.785,248.318l-3.995-3.007l0.606-0.803l3.988,3.015L175.785,248.318z
		 M753.973,240.915l-0.617-0.775l3.906-3.122l0.627,0.788L753.973,240.915z M181.868,240.461l-3.912-3.113l0.629-0.788l3.902,3.126
		L181.868,240.461z M747.698,233.226l-0.636-0.757l3.82-3.226l0.649,0.773L747.698,233.226z M188.161,232.772l-3.826-3.219
		l0.65-0.771l3.816,3.23L188.161,232.772z M741.222,225.708l-0.657-0.739l3.731-3.328l0.671,0.755L741.222,225.708z
		 M194.658,225.258l-3.738-3.32l0.67-0.752l3.728,3.332L194.658,225.258z M734.543,218.37l-0.679-0.723l3.641-3.428l0.688,0.735
		L734.543,218.37z M201.356,217.923l-3.647-3.42l0.69-0.734l3.637,3.432L201.356,217.923z M727.664,211.211l-0.7-0.707l3.551-3.521
		l0.706,0.714L727.664,211.211z M208.247,210.774l-3.554-3.518l0.71-0.715l3.543,3.528L208.247,210.774z M720.593,204.237
		l-0.716-0.684l3.45-3.619l0.73,0.699L720.593,204.237z M215.328,203.814l-3.458-3.611l0.729-0.695l3.446,3.622L215.328,203.814z
		 M713.339,197.46l-0.739-0.67l3.355-3.707l0.743,0.674L713.339,197.46z M222.593,197.05l-3.359-3.704l0.747-0.675l3.348,3.714
		L222.593,197.05z M705.9,190.878l-0.757-0.65l3.254-3.796l0.761,0.653L705.9,190.878z M230.036,190.486l-3.258-3.793l0.765-0.654
		l3.246,3.803L230.036,190.486z M698.284,184.498l-0.774-0.629l3.15-3.883l0.778,0.633L698.284,184.498z M237.653,184.126
		l-3.154-3.88l0.782-0.633l3.142,3.89L237.653,184.126z M690.493,178.323l-0.787-0.605l3.045-3.967l0.799,0.615L690.493,178.323z
		 M245.436,177.977l-3.047-3.965l0.798-0.612l3.035,3.974L245.436,177.977z M682.542,172.365l-0.804-0.584l2.932-4.051l0.815,0.593
		L682.542,172.365z M253.381,172.042l-2.938-4.046l0.814-0.59l2.926,4.055L253.381,172.042z M674.431,166.622l-0.822-0.563
		l2.824-4.126l0.828,0.568L674.431,166.622z M261.483,166.324l-2.826-4.125l0.826-0.564l2.822,4.127L261.483,166.324z
		 M666.163,161.099l-0.836-0.54l2.709-4.202l0.846,0.546L666.163,161.099z M269.736,160.829l-2.716-4.198l0.848-0.546l2.698,4.209
		L269.736,160.829z M657.749,155.805l-0.855-0.521l2.598-4.272l0.855,0.521L657.749,155.805z M278.131,155.561l-2.602-4.27
		l0.858-0.521l2.59,4.277L278.131,155.561z M649.188,150.737l-0.866-0.495l2.479-4.343l0.872,0.499L649.188,150.737z
		 M286.663,150.525l-2.482-4.34l0.871-0.497l2.474,4.345L286.663,150.525z M640.487,145.903l-0.874-0.469l2.357-4.409l0.892,0.479
		L640.487,145.903z M295.329,145.723l-2.367-4.404l0.886-0.474l2.353,4.412L295.329,145.723z M631.663,141.311l-0.89-0.446
		l2.236-4.472l0.901,0.452L631.663,141.311z M304.116,141.161l-2.242-4.469l0.894-0.448l2.236,4.473L304.116,141.161z
		 M622.712,136.96l-0.902-0.422l2.113-4.532l0.914,0.428L622.712,136.96z M313.023,136.84l-2.118-4.529l0.906-0.423l2.111,4.532
		L313.023,136.84z M613.643,132.854l-0.913-0.397l1.986-4.588l0.927,0.402L613.643,132.854z M322.041,132.765l-1.994-4.585
		l0.917-0.398l1.985,4.589L322.041,132.765z M604.459,128.997l-0.922-0.372l1.861-4.641l0.939,0.378L604.459,128.997z
		 M331.165,128.938l-1.868-4.638l0.935-0.375l1.854,4.644L331.165,128.938z M595.174,125.393l-0.93-0.345l1.727-4.692l0.953,0.354
		L595.174,125.393z M340.425,125.349l-1.743-4.687l0.944-0.35l1.729,4.691L340.425,125.349z M585.79,122.045l-0.942-0.32
		l1.604-4.736l0.958,0.326L585.79,122.045z M349.777,122.016l-1.612-4.733l0.955-0.324l1.597,4.738L349.777,122.016z
		 M576.313,118.955l-0.948-0.294l1.471-4.778l0.97,0.301L576.313,118.955z M359.219,118.938l-1.486-4.774l0.965-0.299l1.466,4.78
		L359.219,118.938z M566.789,116.136l-0.954-0.267l1.34-4.817l0.972,0.272L566.789,116.136z M368.741,116.12l-1.355-4.812
		l0.974-0.272l1.333,4.819L368.741,116.12z M557.197,113.58l-0.963-0.242l1.209-4.852l0.977,0.245L557.197,113.58z M378.336,113.566
		l-1.223-4.848l0.981-0.246l1.2,4.854L378.336,113.566z M547.538,111.288l-0.975-0.216l1.078-4.883l0.979,0.217L547.538,111.288z
		 M387.995,111.275l-1.085-4.881l0.981-0.217l1.076,4.883L387.995,111.275z M537.815,109.26l-0.973-0.188l0.938-4.911l0.992,0.191
		L537.815,109.26z M397.717,109.25l-0.952-4.908l0.99-0.19l0.937,4.911L397.717,109.25z M528.043,107.499l-0.979-0.162l0.805-4.935
		l0.995,0.164L528.043,107.499z M407.49,107.49l-0.821-4.932l0.998-0.164l0.798,4.936L407.49,107.49z M518.23,106.006l-0.988-0.136
		l0.674-4.954l0.994,0.136L518.23,106.006z M417.304,105.998l-0.682-4.953l0.995-0.136l0.673,4.954L417.304,105.998z
		 M508.37,104.778l-0.984-0.107l0.535-4.972l1.004,0.11L508.37,104.778z M427.159,104.773l-0.55-4.97l1.002-0.109l0.534,4.972
		L427.159,104.773z M498.49,103.82l-0.99-0.082l0.402-4.983l1.004,0.083L498.49,103.82z M437.044,103.815l-0.418-4.982l1.008-0.083
		l0.396,4.984L437.044,103.815z M488.581,103.129l-0.992-0.055l0.271-4.993l1.006,0.056L488.581,103.129z M446.948,103.125
		l-0.278-4.992l1.002-0.055l0.271,4.993L446.948,103.125z M478.658,102.705l-0.988-0.028l0.132-4.998l1.011,0.028L478.658,102.705z
		 M456.871,102.703l-0.147-4.998l1.004-0.028l0.132,4.998L456.871,102.703z M468.733,102.545l-0.993-0.001l-0.941,0.001l-0.016-5
		l0.957-0.001l1.007,0.001L468.733,102.545z"/>
</g>
<g id="Oval-1_2_" opacity="0.2794" enable-background="new    ">
	<path fill="#FBFBFB" d="M466.433,932.835l-0.065-5v-5l0.984-0.002l0.031,10L466.433,932.835z M460.31,932.796l-1.014-0.015
		l0.146-9.998l0.985,0.013L460.31,932.796z M473.454,932.783l-0.161-9.998l0.983-0.016l0.176,9.998L473.454,932.783z
		 M453.24,932.652l-1.014-0.028l0.293-9.996l0.985,0.028L453.24,932.652z M480.498,932.626l-0.294-9.996l0.98-0.029l0.324,9.994
		L480.498,932.626z M446.157,932.402l-0.999-0.044l0.439-9.99l0.999,0.044L446.157,932.402z M487.562,932.363l-0.439-9.99
		l0.984-0.045l0.469,9.988L487.562,932.363z M439.094,932.047l-0.999-0.059l0.586-9.982l0.998,0.059L439.094,932.047z
		 M494.626,931.996l-0.588-9.982l0.984-0.06l0.615,9.98L494.626,931.996z M432.035,931.587l-0.998-0.073l0.733-9.973l0.997,0.073
		L432.035,931.587z M501.696,931.521l-0.76-9.971l0.996-0.076l0.762,9.971L501.696,931.521z M424.986,931.02l-1.011-0.09
		l0.909-9.959l0.98,0.088L424.986,931.02z M508.745,930.939l-0.908-9.959l0.996-0.091l0.908,9.959L508.745,930.939z
		 M417.945,930.347l-1.009-0.105l1.056-9.943l0.979,0.102L417.945,930.347z M515.784,930.252l-1.053-9.944l0.992-0.104l1.057,9.943
		L515.784,930.252z M410.916,929.567l-1.008-0.121l1.202-9.928l0.978,0.117L410.916,929.567z M522.816,929.461l-1.205-9.928
		l0.98-0.119l1.229,9.924L522.816,929.461z M403.899,928.68l-1.006-0.136l1.349-9.908l0.976,0.132L403.899,928.68z M529.829,928.56
		l-1.348-9.908l0.976-0.134l1.377,9.904L529.829,928.56z M396.895,927.688l-1.003-0.151l1.496-9.887l0.973,0.146L396.895,927.688z
		 M536.829,927.554l-1.492-9.889l0.972-0.147l1.525,9.883L536.829,927.554z M389.894,926.588l-0.987-0.164l1.642-9.865l0.985,0.164
		L389.894,926.588z M543.819,926.441l-1.645-9.863l0.972-0.164l1.672,9.859L543.819,926.441z M382.923,925.383l-0.985-0.18
		l1.789-9.838l0.982,0.178L382.923,925.383z M550.784,925.223l-1.791-9.838l0.972-0.179l1.814,9.834L550.784,925.223z
		 M375.972,924.07l-0.982-0.193l1.936-9.811l0.979,0.193L375.972,924.07z M557.748,923.896l-1.967-9.805l0.983-0.197l1.961,9.807
		L557.748,923.896z M369.042,922.653l-0.994-0.212l2.11-9.775l0.962,0.206L369.042,922.653z M564.677,922.465l-2.113-9.773
		l0.977-0.211l2.113,9.773L564.677,922.465z M362.133,921.132l-0.99-0.228l2.256-9.742l0.959,0.22L362.133,921.132z M571.578,920.93
		l-2.252-9.742l0.97-0.226l2.26,9.742L571.578,920.93z M355.247,919.503l-0.985-0.242l2.401-9.707l0.958,0.234L355.247,919.503z
		 M578.462,919.289l-2.404-9.707l0.97-0.24l2.404,9.707L578.462,919.289z M348.388,917.771l-0.983-0.257l2.549-9.67l0.952,0.249
		L348.388,917.771z M585.317,917.543l-2.549-9.67l0.967-0.255l2.549,9.67L585.317,917.543z M341.556,915.933l-0.979-0.273
		l2.697-9.629l0.948,0.264L341.556,915.933z M592.15,915.692l-2.701-9.629l0.948-0.267l2.729,9.621L592.15,915.692z
		 M334.753,913.991l-0.975-0.287l2.844-9.588l0.943,0.279L334.753,913.991z M598.948,913.736l-2.844-9.588l0.944-0.28l2.871,9.578
		L598.948,913.736z M327.971,911.942l-0.961-0.299l2.978-9.547l0.957,0.299L327.971,911.942z M605.718,911.678l-2.994-9.541
		l0.944-0.297l3.014,9.535L605.718,911.678z M321.202,909.784l-0.957-0.314l3.123-9.5l0.952,0.312L321.202,909.784z
		 M612.454,909.516l-3.137-9.496l0.949-0.313l3.137,9.496L612.454,909.516z M314.465,907.521l-0.949-0.328l3.267-9.451l0.95,0.328
		L314.465,907.521z M619.155,907.25l-3.275-9.447l0.939-0.327l3.285,9.445L619.155,907.25z M307.768,905.157l-0.946-0.344
		l3.415-9.398l0.941,0.342L307.768,905.157z M625.83,904.882l-3.434-9.393l0.944-0.344l3.424,9.395L625.83,904.882z
		 M301.119,902.695l-0.954-0.362l3.562-9.344l0.923,0.351L301.119,902.695z M632.464,902.41l-3.582-9.336l0.938-0.359l3.572,9.34
		L632.464,902.41z M294.498,900.127l-0.948-0.377l3.709-9.287l0.917,0.365L294.498,900.127z M639.04,899.847l-3.693-9.293
		l0.916-0.366l3.719,9.283L639.04,899.847z M287.917,897.458l-0.942-0.393l3.854-9.227l0.912,0.379L287.917,897.458z
		 M645.571,897.187l-3.84-9.233l0.908-0.38l3.861,9.225L645.571,897.187z M281.38,894.688l-0.936-0.405l3.999-9.166l0.905,0.394
		L281.38,894.688z M652.046,894.433l-3.961-9.182l0.891-0.388l4.006,9.162L652.046,894.433z M274.884,891.819l-0.914-0.413
		l4.118-9.113l0.914,0.413L274.884,891.819z M658.49,891.574l-4.105-9.119l0.884-0.4l4.152,9.098L658.49,891.574z M268.448,888.858
		l-0.922-0.434l4.267-9.045l0.893,0.42L268.448,888.858z M664.893,888.619l-4.248-9.053l0.89-0.42l4.271,9.043L664.893,888.619z
		 M262.045,885.792l-0.925-0.453l4.432-8.965l0.877,0.43L262.045,885.792z M671.243,885.567l-4.377-8.99l0.876-0.43l4.414,8.973
		L671.243,885.567z M255.69,882.629l-0.894-0.454l4.53-8.914l0.894,0.454L255.69,882.629z M677.563,882.415l-4.531-8.914
		l0.876-0.446l4.555,8.902L677.563,882.415z M249.4,879.377l-0.901-0.476l4.676-8.84l0.872,0.46L249.4,879.377z M683.827,879.169
		l-4.67-8.842l0.874-0.463l4.684,8.836L683.827,879.169z M243.143,876.021l-0.89-0.488l4.819-8.762l0.868,0.475L243.143,876.021z
		 M690.032,875.835l-4.787-8.779l0.856-0.471l4.822,8.762L690.032,875.835z M236.943,872.572l-0.872-0.495l4.939-8.695l0.872,0.495
		L236.943,872.572z M696.202,872.396l-4.936-8.697l0.855-0.486l4.959,8.684L696.202,872.396z M230.807,869.037l-0.878-0.517
		l5.087-8.609l0.85,0.499L230.807,869.037z M702.305,868.873l-5.049-8.631l0.842-0.496l5.084,8.611L702.305,868.873z
		 M224.727,865.409l-0.87-0.528l5.205-8.539l0.842,0.513L224.727,865.409z M708.372,865.247l-5.197-8.543l0.846-0.515l5.209,8.535
		L708.372,865.247z M218.69,861.682l-0.861-0.543l5.35-8.449l0.834,0.525L218.69,861.682z M714.373,861.538l-5.32-8.467l0.833-0.525
		l5.342,8.453L714.373,861.538z M212.72,857.868l-0.86-0.56l5.486-8.361l0.819,0.534L212.72,857.868z M720.323,857.732l-5.451-8.383
		l0.829-0.541l5.465,8.375L720.323,857.732z M206.814,853.968l-0.844-0.567l5.587-8.293l0.817,0.55L206.814,853.968z
		 M726.203,853.846l-5.561-8.312l0.805-0.541l5.607,8.279L726.203,853.846z M200.955,849.971l-0.826-0.573l5.708-8.211l0.819,0.569
		L200.955,849.971z M732.031,849.866l-5.676-8.234l0.793-0.551l5.729,8.197L732.031,849.866z M195.168,845.894l-0.827-0.593
		l5.847-8.113l0.8,0.575L195.168,845.894z M737.81,845.79l-5.814-8.135l0.794-0.57l5.848,8.111L737.81,845.79z M189.44,841.727
		l-0.813-0.604l5.965-8.025l0.795,0.588L189.44,841.727z M743.529,841.627l-5.953-8.035l0.795-0.59l5.967,8.025L743.529,841.627z
		 M183.78,837.476l-0.813-0.623l6.1-7.924l0.777,0.594L183.78,837.476z M749.174,837.384l-6.07-7.947l0.786-0.601l6.084,7.936
		L749.174,837.384z M178.185,833.141l-0.798-0.63l6.204-7.843l0.773,0.609L178.185,833.141z M754.756,833.056l-6.186-7.857
		l0.776-0.612l6.201,7.846L754.756,833.056z M172.654,828.72l-0.785-0.639l6.318-7.752l0.768,0.625L172.654,828.72z
		 M760.273,828.644l-6.301-7.766l0.768-0.624l6.314,7.754L760.273,828.644z M167.195,824.218l-0.788-0.661l6.455-7.638l0.746,0.627
		L167.195,824.218z M765.723,824.147l-6.414-7.672l0.759-0.636l6.428,7.66L765.723,824.147z M161.801,819.633l-0.765-0.662
		l6.549-7.557l0.749,0.646L161.801,819.633z M771.112,819.564l-6.539-7.566l0.756-0.653l6.539,7.566L771.112,819.564z
		 M156.477,814.967l-0.758-0.676l6.673-7.448l0.735,0.655L156.477,814.967z M776.418,814.912l-6.635-7.482l0.731-0.652l6.664,7.457
		L776.418,814.912z M151.225,810.223l-0.743-0.684l6.779-7.352l0.729,0.67L151.225,810.223z M781.669,810.167l-6.756-7.373
		l0.728-0.668l6.771,7.357L781.669,810.167z M146.054,805.406l-0.737-0.698l6.886-7.252l0.714,0.677L146.054,805.406z
		 M786.84,805.35l-6.863-7.273l0.711-0.673l6.893,7.244L786.84,805.35z M140.948,800.507l-0.729-0.713l7.005-7.137l0.7,0.684
		L140.948,800.507z M791.948,800.447l-6.982-7.158l0.707-0.691l6.998,7.145L791.948,800.447z M135.919,795.531l-0.712-0.717
		l7.101-7.041l0.697,0.701L135.919,795.531z M796.964,795.48l-7.07-7.07l0.69-0.694l7.1,7.041L796.964,795.48z M130.968,790.484
		l-0.708-0.735l7.216-6.923l0.679,0.705L130.968,790.484z M801.922,790.426l-7.188-6.953l0.688-0.712l7.201,6.938L801.922,790.426z
		 M126.091,785.36l-0.689-0.737l7.309-6.824l0.675,0.722L126.091,785.36z M806.796,785.304l-7.287-6.848l0.669-0.716l7.315,6.818
		L806.796,785.304z M121.296,780.168l-0.682-0.752l7.414-6.711l0.661,0.729L121.296,780.168z M811.594,780.105l-7.387-6.741
		l0.658-0.725l7.414,6.711L811.594,780.105z M116.573,774.896l-0.664-0.754l7.512-6.602l0.656,0.746L116.573,774.896z
		 M816.319,774.83l-7.496-6.617l0.647-0.736l7.523,6.588L816.319,774.83z M111.938,769.563l-0.658-0.771l7.619-6.477l0.639,0.748
		L111.938,769.563z M820.958,769.49l-7.592-6.508l0.636-0.745l7.619,6.477L820.958,769.49z M107.387,764.166l-0.65-0.785
		l7.714-6.365l0.624,0.754L107.387,764.166z M825.525,764.072l-7.699-6.381l0.631-0.762l7.713,6.364L825.525,764.072z
		 M102.906,758.684l-0.628-0.784l7.806-6.25l0.622,0.774L102.906,758.684z M830,758.593l-7.791-6.268l0.621-0.773l7.803,6.254
		L830,758.593z M98.518,753.148l-0.617-0.793l7.896-6.135l0.61,0.783L98.518,753.148z M834.391,753.053l-7.871-6.168l0.596-0.766
		l7.908,6.121L834.391,753.053z M94.215,747.548l-0.608-0.806l7.993-6.01l0.594,0.788L94.215,747.548z M838.707,747.433
		l-7.973-6.037l0.591-0.782l7.996,6.004L838.707,747.433z M89.997,741.884l-0.596-0.815l8.08-5.891l0.582,0.796L89.997,741.884z
		 M842.933,741.753l-8.059-5.92l0.578-0.791l8.084,5.887L842.933,741.753z M85.862,736.152l-0.58-0.819l8.166-5.771l0.573,0.81
		L85.862,736.152z M847.073,736.01l-8.145-5.801l0.566-0.8l8.168,5.768L847.073,736.01z M81.818,730.365l-0.568-0.828l8.25-5.652
		l0.561,0.818L81.818,730.365z M851.125,730.206l-8.229-5.682l0.555-0.809l8.252,5.648L851.125,730.206z M77.864,724.521
		l-0.56-0.843l8.339-5.52l0.543,0.819L77.864,724.521z M855.098,724.328l-8.324-5.541l0.549-0.827l8.334,5.527L855.098,724.328z
		 M73.997,718.615l-0.554-0.863l8.434-5.373l0.524,0.815L73.997,718.615z M858.974,718.402l-8.404-5.418l0.529-0.826l8.428,5.385
		L858.974,718.402z M70.218,712.648l-0.534-0.859l8.503-5.264l0.519,0.836L70.218,712.648z M862.756,712.423l-8.475-5.309
		l0.514-0.826l8.504,5.26L862.756,712.423z M66.531,706.627l-0.516-0.861l8.577-5.141l0.51,0.85L66.531,706.627z M866.462,706.361
		l-8.572-5.148l0.516-0.858l8.572,5.148L866.462,706.361z M62.939,700.556l-0.507-0.874l8.658-5.004l0.493,0.851L62.939,700.556z
		 M870.062,700.269l-8.639-5.037l0.492-0.849l8.658,5.002L870.062,700.269z M59.436,694.427l-0.49-0.876l8.729-4.879l0.484,0.864
		L59.436,694.427z M873.575,694.109l-8.717-4.9l0.482-0.862l8.73,4.877L873.575,694.109z M56.031,688.253l-0.48-0.889l8.805-4.74
		l0.467,0.865L56.031,688.253z M876.996,687.896l-8.793-4.762l0.469-0.871l8.806,4.739L876.996,687.896z M52.72,682.028
		l-0.467-0.896l8.873-4.613l0.454,0.872L52.72,682.028z M880.319,681.636l-8.861-4.635l0.45-0.865l8.885,4.588L880.319,681.636z
		 M49.501,675.749l-0.453-0.902l8.944-4.473l0.441,0.879L49.501,675.749z M883.555,675.309l-8.943-4.473l0.448-0.896l8.943,4.473
		L883.555,675.309z M46.38,669.424l-0.439-0.909l9.014-4.33l0.427,0.886L46.38,669.424z M886.683,668.954l-9.002-4.355l0.426-0.886
		l9.02,4.32L886.683,668.954z M43.357,663.058l-0.425-0.915l9.075-4.199l0.414,0.892L43.357,663.058z M889.72,662.539l-9.069-4.213
		l0.412-0.893l9.086,4.178L889.72,662.539z M40.429,656.644l-0.413-0.928l9.146-4.045l0.397,0.893L40.429,656.644z M892.657,656.078
		l-9.135-4.07l0.405-0.91l9.139,4.059L892.657,656.078z M37.602,650.193l-0.399-0.934l9.203-3.912l0.384,0.898L37.602,650.193z
		 M895.494,649.579l-9.191-3.939l0.389-0.91l9.201,3.914L895.494,649.579z M34.873,643.695l-0.384-0.938l9.258-3.779l0.375,0.913
		L34.873,643.695z M898.235,643.029l-9.252-3.795l0.374-0.916l9.262,3.77L898.235,643.029z M32.231,637.129l-0.368-0.938
		l9.312-3.646l0.363,0.926L32.231,637.129z M900.875,636.436l-9.311-3.648l0.36-0.922l9.32,3.623L900.875,636.436z M29.692,630.528
		l-0.351-0.936l9.359-3.521l0.351,0.936L29.692,630.528z M903.416,629.8l-9.371-3.492l0.348-0.934l9.377,3.477L903.416,629.8z
		 M27.252,623.884l-0.34-0.953l9.422-3.35l0.333,0.93L27.252,623.884z M905.852,623.13l-9.42-3.354l0.331-0.934l9.43,3.328
		L905.852,623.13z M24.915,617.209l-0.327-0.959l9.471-3.211l0.318,0.934L24.915,617.209z M908.187,616.421l-9.473-3.205
		l0.322-0.952l9.473,3.206L908.187,616.421z M22.679,610.493l-0.311-0.96l9.518-3.07l0.305,0.942L22.679,610.493z M910.419,609.674
		l-9.521-3.057l0.308-0.957l9.521,3.057L910.419,609.674z M20.548,603.748l-0.298-0.974l9.567-2.91l0.287,0.938L20.548,603.748z
		 M912.549,602.893l-9.568-2.908l0.295-0.966l9.565,2.916L912.549,602.893z M18.518,596.968l-0.281-0.969l9.607-2.776l0.276,0.95
		L18.518,596.968z M914.563,596.115l-9.605-2.781l0.272-0.948l9.613,2.756L914.563,596.115z M16.594,590.161l-0.268-0.978
		l9.649-2.625l0.26,0.95L16.594,590.161z M916.476,589.301l-9.648-2.631l0.26-0.955l9.652,2.611L916.476,589.301z M14.774,583.325
		l-0.252-0.981l9.688-2.48l0.246,0.954L14.774,583.325z M918.282,582.463l-9.686-2.487l0.243-0.956l9.693,2.459L918.282,582.463z
		 M13.056,576.452l-0.235-0.975l9.724-2.336l0.233,0.969L13.056,576.452z M919.984,575.596l-9.721-2.342l0.229-0.959l9.729,2.314
		L919.984,575.596z M11.446,569.564l-0.221-0.982l9.759-2.184l0.218,0.969L11.446,569.564z M921.586,568.689l-9.764-2.164
		l0.218-0.979l9.762,2.17L921.586,568.689z M9.94,562.652l-0.206-0.985l9.79-2.037l0.203,0.972L9.94,562.652z M923.078,561.773
		l-9.795-2.018l0.203-0.982l9.793,2.023L923.078,561.773z M8.541,555.718l-0.191-0.988l9.819-1.891l0.188,0.975L8.541,555.718z
		 M924.464,554.837l-9.824-1.871l0.188-0.985l9.822,1.877L924.464,554.837z M7.247,548.764l-0.177-0.999l9.85-1.729l0.171,0.971
		L7.247,548.764z M925.744,547.88l-9.85-1.725l0.17-0.974l9.854,1.701L925.744,547.88z M6.058,541.782l-0.16-0.994l9.874-1.582
		l0.158,0.98L6.058,541.782z M926.918,540.905l-9.875-1.578l0.155-0.976l9.879,1.553L926.918,540.905z M4.978,534.792l-0.144-0.987
		l9.894-1.453l0.145,0.991L4.978,534.792z M927.986,533.914l-9.896-1.436l0.141-0.976l9.9,1.406L927.986,533.914z M4.003,527.788
		l-0.131-1l9.917-1.287l0.128,0.982L4.003,527.788z M928.948,526.907l-9.916-1.291l0.125-0.976l9.92,1.258L928.948,526.907z
		 M3.134,520.769l-0.116-1.008l9.937-1.129l0.112,0.979L3.134,520.769z M929.803,519.885l-9.936-1.14l0.111-0.981l9.938,1.113
		L929.803,519.885z M2.37,513.729l-0.1-1.001l9.951-0.983l0.099,0.989L2.37,513.729z M930.55,512.854l-9.949-0.998l0.096-0.979
		l9.953,0.967L930.55,512.854z M1.715,506.688l-0.084-1.003l9.965-0.836l0.083,0.989L1.715,506.688z M931.196,505.795l-9.967-0.818
		l0.082-0.998l9.967,0.82L931.196,505.795z M1.165,499.638l-0.07-1.006l9.977-0.688l0.069,0.989L1.165,499.638z M931.731,498.743
		l-9.977-0.676l0.067-0.997l9.977,0.674L931.731,498.743z M0.722,492.578l-0.055-1.012l9.986-0.529l0.053,0.984L0.722,492.578z
		 M932.162,491.684l-9.986-0.527l0.051-0.984l9.988,0.498L932.162,491.684z M0.384,485.506l-0.04-1.002l9.993-0.383l0.039,0.988
		L0.384,485.506z M932.488,484.581l-9.994-0.343l0.036-0.986l9.994,0.352L932.488,484.581z M0.153,478.458l-0.024-1.005l9.997-0.234
		l0.024,0.989L0.153,478.458z M932.704,477.526l-9.998-0.211l0.022-0.985l9.998,0.205L932.704,477.526z M0.026,471.395l-0.009-1.006
		l10-0.088l0.01,0.991L0.026,471.395z M932.817,470.47l-10-0.079l0.008-0.985l10,0.059L932.817,470.47z M10.005,464.367l-10-0.044
		l0.005-1.007l10,0.059L10.005,464.367z M922.826,463.463l-0.008-0.985l10-0.088l0.008,1.014L922.826,463.463z M10.086,457.442
		l-9.998-0.19l0.02-1.007l9.998,0.205L10.086,457.442z M922.73,456.544l-0.022-0.983l9.998-0.234l0.022,1.012L922.73,456.544z
		 M10.272,450.519l-9.994-0.337l0.036-1.014l9.993,0.366L10.272,450.519z M922.532,449.64l-0.036-0.98l9.992-0.383l0.038,1.011
		L922.532,449.64z M10.56,443.606l-9.987-0.498l0.05-1.006l9.987,0.514L10.56,443.606z M922.23,442.724l-0.051-0.984l9.986-0.527
		l0.053,1.014L922.23,442.724z M10.953,436.691l-9.979-0.644l0.065-0.999l9.979,0.645L10.953,436.691z M921.826,435.824
		l-0.067-0.998l9.977-0.674l0.067,0.999L921.826,435.824z M11.449,429.783l-9.969-0.791l0.081-1.005l9.967,0.808L11.449,429.783z
		 M921.316,428.917l-0.082-0.996l9.967-0.821l0.082,0.998L921.316,428.917z M12.049,422.884l-9.956-0.938l0.097-1.01l9.953,0.968
		L12.049,422.884z M920.704,422.019l-0.097-0.98l9.95-0.996l0.1,1.01L920.704,422.019z M12.753,416.001l-9.939-1.098l0.111-1.002
		l9.938,1.115L12.753,416.001z M919.985,415.13l-0.11-0.979l9.934-1.143l0.114,1.009L919.985,415.13z M13.561,409.124l-9.922-1.246
		l0.125-0.992l9.922,1.246L13.561,409.124z M919.164,408.254l-0.125-0.977l9.916-1.289l0.129,1.008L919.164,408.254z
		 M14.473,402.259l-9.902-1.392l0.141-0.998l9.9,1.408L14.473,402.259z M918.239,401.391l-0.141-0.975l9.896-1.437l0.145,1.005
		L918.239,401.391z M15.49,395.409l-9.881-1.537l0.158-1.003l9.876,1.568L15.49,395.409z M917.207,394.542l-0.155-0.973l9.875-1.582
		l0.159,1.003L917.207,394.542z M16.61,388.582l-9.854-1.698l0.172-0.994l9.852,1.715L16.61,388.582z M916.073,387.71l-0.169-0.969
		l9.85-1.729l0.175,1.002L916.073,387.71z M17.834,381.767l-9.828-1.846l0.187-0.991l9.825,1.862L17.834,381.767z M914.84,380.913
		l-0.188-0.981l9.822-1.876l0.188,0.984L914.84,380.913z M19.162,374.971l-9.8-1.992l0.202-0.988L19.361,374L19.162,374.971z
		 M913.499,374.119l-0.202-0.978l9.793-2.023l0.202,0.981L913.499,374.119z M20.594,368.196l-9.769-2.139l0.219-0.992l9.762,2.169
		L20.594,368.196z M912.053,367.347l-0.217-0.975l9.762-2.169l0.217,0.978L912.053,367.347z M22.129,361.444l-9.735-2.284
		l0.233-0.989l9.729,2.315L22.129,361.444z M910.506,360.599l-0.229-0.959l9.723-2.343l0.235,0.987L910.506,360.599z
		 M23.765,354.724l-9.696-2.446l0.248-0.978l9.691,2.463L23.765,354.724z M908.855,353.875l-0.243-0.954l9.686-2.491l0.251,0.985
		L908.855,353.875z M25.504,348.024l-9.657-2.594l0.261-0.972l9.654,2.607L25.504,348.024z M907.103,347.177l-0.258-0.949
		l9.646-2.639l0.266,0.98L907.103,347.177z M27.347,341.348l-9.618-2.737l0.277-0.97l9.613,2.755L27.347,341.348z M905.248,340.508
		l-0.272-0.947l9.605-2.782l0.28,0.975L905.248,340.508z M29.291,334.705l-9.574-2.886l0.293-0.971l9.569,2.903L29.291,334.705z
		 M903.289,333.865l-0.286-0.941l9.562-2.929l0.295,0.973L903.289,333.865z M31.345,328.061l-9.529-3.031l0.308-0.966l9.524,3.048
		L31.345,328.061z M901.234,327.257l-0.302-0.939l9.516-3.074l0.31,0.965L901.234,327.257z M33.501,321.454l-9.481-3.18l0.322-0.959
		l9.477,3.193L33.501,321.454z M899.074,320.68l-0.315-0.935l9.467-3.22l0.325,0.961L899.074,320.68z M35.758,314.879l-9.432-3.323
		l0.338-0.956l9.425,3.341L35.758,314.879z M896.815,314.136l-0.33-0.927l9.416-3.368l0.34,0.958L896.815,314.136z M38.116,308.336
		l-9.383-3.458l0.354-0.957l9.372,3.489L38.116,308.336z M894.455,307.629l-0.348-0.935l9.371-3.49l0.35,0.939L894.455,307.629z
		 M40.572,301.839l-9.327-3.605l0.368-0.949l9.317,3.631L40.572,301.839z M891.999,301.16l-0.363-0.932l9.316-3.633l0.363,0.932
		L891.999,301.16z M43.127,295.381l-9.27-3.752l0.38-0.936l9.265,3.764L43.127,295.381z M889.438,294.713l-0.371-0.911l9.258-3.779
		l0.383,0.941L889.438,294.713z M45.779,288.964l-9.209-3.896l0.395-0.933l9.202,3.914L45.779,288.964z M886.797,288.354
		l-0.389-0.914l9.201-3.916l0.391,0.918L886.797,288.354z M48.532,282.585l-9.152-4.029l0.409-0.926l9.145,4.047L48.532,282.585z
		 M884.052,282.017l-0.396-0.895l9.139-4.062l0.41,0.925L884.052,282.017z M51.378,276.257l-9.086-4.178l0.422-0.917l9.08,4.189
		L51.378,276.257z M881.217,275.737l-0.411-0.892l9.072-4.206l0.423,0.916L881.217,275.737z M54.323,269.965l-9.024-4.308
		l0.438-0.913l9.016,4.325L54.323,269.965z M878.288,269.497l-0.425-0.882l9.002-4.354l0.439,0.913L878.288,269.497z
		 M57.363,263.724l-8.959-4.442l0.454-0.913l8.944,4.472L57.363,263.724z M875.261,263.301l-0.443-0.889l8.943-4.472l0.447,0.894
		L875.261,263.301z M60.494,257.537l-8.885-4.589l0.463-0.896l8.879,4.6L60.494,257.537z M872.136,257.141l-0.452-0.874l8.873-4.612
		l0.464,0.896L872.136,257.141z M63.721,251.393l-8.815-4.722l0.48-0.895l8.803,4.744L63.721,251.393z M868.923,251.04l-0.472-0.878
		l8.809-4.734l0.472,0.877L868.923,251.04z M67.042,245.3l-8.743-4.854l0.49-0.882l8.737,4.865L67.042,245.3z M865.612,244.972
		l-0.478-0.856l8.729-4.879l0.493,0.885L865.612,244.972z M70.453,239.26l-8.669-4.985l0.505-0.876l8.659,5.002L70.453,239.26z
		 M862.213,238.969l-0.496-0.86l8.66-4.999l0.5,0.866L862.213,238.969z M73.956,233.273l-8.593-5.115l0.522-0.874l8.576,5.143
		L73.956,233.273z M858.72,233.005l-0.504-0.842l8.578-5.141l0.52,0.87L858.72,233.005z M77.548,227.343l-8.511-5.25l0.529-0.858
		l8.505,5.261L77.548,227.343z M855.142,227.109l-0.524-0.848l8.506-5.259l0.524,0.848L855.142,227.109z M81.234,221.461
		l-8.438-5.367l0.548-0.858l8.42,5.395L81.234,221.461z M851.467,221.252l-0.528-0.826l8.414-5.404l0.546,0.854L851.467,221.252z
		 M85.002,215.646l-8.352-5.5l0.555-0.841l8.345,5.51L85.002,215.646z M847.706,215.454l-0.543-0.822l8.338-5.52l0.557,0.842
		L847.706,215.454z M88.858,209.888l-8.264-5.631l0.57-0.836l8.252,5.648L88.858,209.888z M843.861,209.72l-0.56-0.82l8.256-5.642
		l0.565,0.827L843.861,209.72z M92.804,204.186l-8.181-5.751l0.583-0.827l8.169,5.768L92.804,204.186z M839.927,204.037
		l-0.565-0.802l8.158-5.782l0.585,0.828L839.927,204.037z M96.835,198.545l-8.096-5.87l0.598-0.823l8.077,5.896L96.835,198.545z
		 M835.905,198.413l-0.579-0.794l8.074-5.9l0.597,0.819L835.905,198.413z M100.947,192.971l-8.002-5.998l0.607-0.808l7.989,6.014
		L100.947,192.971z M831.796,192.85l-0.59-0.785l7.986-6.019l0.609,0.811L831.796,192.85z M105.142,187.459l-7.907-6.121l0.62-0.8
		l7.894,6.14L105.142,187.459z M827.61,187.351l-0.604-0.779l7.896-6.136l0.618,0.798L827.61,187.351z M109.424,182.009
		l-7.817-6.236l0.628-0.786l7.811,6.245L109.424,182.009z M823.34,181.918l-0.622-0.776l7.807-6.25l0.627,0.784L823.34,181.918z
		 M113.782,176.628l-7.719-6.357l0.644-0.781l7.705,6.375L113.782,176.628z M818.986,176.547l-0.633-0.767l7.707-6.371l0.639,0.773
		L818.986,176.547z M118.226,171.311l-7.625-6.47l0.654-0.77l7.612,6.485L118.226,171.311z M814.549,171.239l-0.645-0.757
		l7.613-6.483l0.65,0.764L814.549,171.239z M122.745,166.065l-7.524-6.587l0.664-0.757l7.517,6.596L122.745,166.065z
		 M810.027,165.992l-0.648-0.739l7.512-6.602l0.668,0.763L810.027,165.992z M127.345,160.885l-7.428-6.695l0.677-0.75l7.414,6.711
		L127.345,160.885z M805.433,160.822l-0.66-0.729l7.408-6.718l0.68,0.752L805.433,160.822z M132.019,155.779l-7.323-6.81
		l0.692-0.743l7.302,6.833L132.019,155.779z M800.751,155.709l-0.663-0.712l7.309-6.825l0.698,0.751L800.751,155.709z
		 M136.772,150.741l-7.224-6.916l0.7-0.729l7.209,6.931L136.772,150.741z M796.01,150.687l-0.682-0.709l7.201-6.938l0.703,0.732
		L796.01,150.687z M141.6,145.776l-7.122-7.02l0.718-0.725l7.093,7.049L141.6,145.776z M791.186,145.728l-0.695-0.703l7.1-7.042
		l0.711,0.718L791.186,145.728z M146.495,140.893l-7.005-7.137l0.721-0.707l6.99,7.151L146.495,140.893z M786.28,140.833
		l-0.699-0.686l6.99-7.151l0.729,0.715L786.28,140.833z M151.469,136.076l-6.9-7.237l0.731-0.696l6.886,7.252L151.469,136.076z
		 M781.307,136.021l-0.71-0.675l6.879-7.259l0.739,0.704L781.307,136.021z M156.511,131.339l-6.787-7.344l0.742-0.685l6.771,7.358
		L156.511,131.339z M776.257,131.279l-0.719-0.664l6.771-7.358l0.75,0.692L776.257,131.279z M161.628,126.677l-6.68-7.441
		l0.752-0.674l6.664,7.456L161.628,126.677z M771.141,126.617l-0.729-0.654l6.656-7.462l0.761,0.681L771.141,126.617z
		 M166.812,122.092l-6.57-7.539l0.762-0.662l6.555,7.552L166.812,122.092z M765.949,122.029l-0.739-0.643l6.547-7.559l0.771,0.67
		L765.949,122.029z M172.061,117.59l-6.452-7.64l0.771-0.65l6.437,7.653L172.061,117.59z M760.697,117.525l-0.756-0.637l6.436-7.653
		l0.773,0.652L760.697,117.525z M177.38,113.165l-6.34-7.733l0.781-0.639l6.323,7.747L177.38,113.165z M755.368,113.096
		l-0.763-0.624l6.318-7.751l0.786,0.643L755.368,113.096z M182.761,108.825l-6.219-7.832l0.787-0.624l6.209,7.839L182.761,108.825z
		 M749.974,108.746l-0.772-0.612l6.204-7.843l0.795,0.631L749.974,108.746z M188.209,104.563l-6.103-7.922l0.804-0.618l6.077,7.941
		L188.209,104.563z M744.512,104.478l-0.777-0.597l6.08-7.939l0.809,0.622L744.512,104.478z M193.72,100.386l-5.986-8.011
		l0.81-0.603l5.967,8.024L193.72,100.386z M738.995,100.297l-0.794-0.59l5.963-8.028l0.812,0.605L738.995,100.297z M199.289,96.295
		l-5.858-8.104l0.814-0.587l5.849,8.111L199.289,96.295z M733.411,96.199l-0.807-0.582l5.844-8.114l0.816,0.589L733.411,96.199z
		 M204.922,92.287l-5.738-8.189l0.831-0.581l5.712,8.208L204.922,92.287z M727.759,92.181l-0.815-0.57l5.725-8.199l0.825,0.577
		L727.759,92.181z M210.609,88.368l-5.607-8.279l0.831-0.562l5.598,8.286L210.609,88.368z M722.053,88.252l-0.824-0.557l5.594-8.289
		l0.834,0.564L722.053,88.252z M216.363,84.53l-5.493-8.356l0.848-0.555l5.466,8.374L216.363,84.53z M716.282,84.407l-0.833-0.545
		l5.473-8.37l0.843,0.551L716.282,84.407z M222.165,80.786l-5.359-8.442l0.852-0.539l5.342,8.453L222.165,80.786z M710.445,80.645
		l-0.829-0.525l5.34-8.455l0.862,0.546L710.445,80.645z M228.025,77.128l-5.231-8.522l0.859-0.526l5.214,8.533L228.025,77.128z
		 M704.57,76.981l-0.843-0.515l5.205-8.539l0.866,0.53L704.57,76.981z M233.938,73.561l-5.102-8.601l0.867-0.513l5.084,8.611
		L233.938,73.561z M698.625,73.401l-0.846-0.5l5.07-8.62l0.879,0.52L698.625,73.401z M239.904,70.083l-4.971-8.677l0.874-0.5
		l4.953,8.687L239.904,70.083z M692.633,69.914l-0.859-0.49l4.945-8.691l0.882,0.503L692.633,69.914z M245.921,66.698l-4.839-8.751
		l0.887-0.489l4.811,8.768L245.921,66.698z M686.581,66.514l-0.861-0.474l4.809-8.769l0.895,0.493L686.581,66.514z M251.987,63.404
		l-4.706-8.823l0.889-0.473l4.688,8.833L251.987,63.404z M680.489,63.212l-0.879-0.467l4.682-8.836l0.891,0.473L680.489,63.212z
		 M258.101,60.203l-4.572-8.894l0.901-0.462l4.543,8.909L258.101,60.203z M674.333,59.999l-0.881-0.45l4.543-8.909l0.904,0.463
		L674.333,59.999z M264.265,57.094l-4.442-8.959l0.908-0.448l4.413,8.974L264.265,57.094z M668.137,56.881l-0.894-0.44l4.414-8.974
		l0.905,0.446L668.137,56.881z M270.466,54.085l-4.295-9.031l0.905-0.43l4.283,9.036L270.466,54.085z M661.886,53.855l-0.89-0.421
		l4.262-9.047l0.924,0.438L661.886,53.855z M276.719,51.166l-4.164-9.092l0.921-0.42l4.134,9.105L276.719,51.166z M655.592,50.927
		l-0.901-0.41l4.131-9.107l0.925,0.42L655.592,50.927z M283.008,48.345l-4.019-9.157l0.92-0.403l4.001,9.165L283.008,48.345z
		 M649.249,48.092l-0.901-0.394l3.986-9.171l0.937,0.409L649.249,48.092z M289.344,45.619l-3.886-9.214l0.933-0.392l3.855,9.227
		L289.344,45.619z M642.868,45.358l-0.914-0.382l3.854-9.228l0.937,0.392L642.868,45.358z M295.712,42.992l-3.736-9.275l0.937-0.377
		l3.719,9.283L295.712,42.992z M636.451,42.723l-0.926-0.371l3.709-9.287l0.938,0.375L636.451,42.723z M302.156,40.45l-3.603-9.329
		l0.949-0.365l3.572,9.34L302.156,40.45z M629.981,40.181l-0.925-0.354l3.562-9.344l0.95,0.364L629.981,40.181z M308.631,38.008
		l-3.455-9.384l0.945-0.347l3.442,9.389L308.631,38.008z M623.478,37.74l-0.93-0.34l3.415-9.398l0.956,0.349L623.478,37.74z
		 M315.145,35.664l-3.312-9.436l0.953-0.333l3.294,9.442L315.145,35.664z M616.936,35.4l-0.942-0.328l3.279-9.447l0.956,0.333
		L616.936,35.4z M321.695,33.42l-3.167-9.485l0.958-0.319l3.149,9.491L321.695,33.42z M610.353,33.158l-0.942-0.312l3.131-9.497
		l0.966,0.319L610.353,33.158z M328.275,31.277l-3.017-9.534l0.96-0.303l3.004,9.538L328.275,31.277z M603.744,31.02l-0.956-0.3
		l2.99-9.542l0.962,0.301L603.744,31.02z M334.89,29.235l-2.871-9.579l0.965-0.289l2.857,9.583L334.89,29.235z M597.122,28.989
		l-0.956-0.284l2.844-9.587l0.962,0.285L597.122,28.989z M341.534,27.293l-2.724-9.622l0.969-0.274l2.71,9.626L341.534,27.293z
		 M590.466,27.058l-0.952-0.267l2.693-9.631l0.974,0.273L590.466,27.058z M348.211,25.454l-2.58-9.661l0.975-0.26l2.563,9.666
		L348.211,25.454z M583.795,25.233l-0.964-0.254l2.549-9.67l0.972,0.256L583.795,25.233z M354.912,23.716l-2.433-9.699l0.979-0.245
		l2.415,9.704L354.912,23.716z M577.087,23.509l-0.967-0.24l2.404-9.707l0.975,0.242L577.087,23.509z M361.641,22.082l-2.287-9.735
		l0.982-0.229l2.27,9.739L361.641,22.082z M570.353,21.885l-0.957-0.222l2.238-9.746l0.992,0.229L570.353,21.885z M368.392,20.551
		l-2.139-9.769l0.984-0.214l2.124,9.771L368.392,20.551z M563.596,20.367l-0.961-0.208l2.094-9.778l0.994,0.214L563.596,20.367z
		 M375.167,19.122l-1.992-9.8l0.996-0.201l1.961,9.806L375.167,19.122z M556.825,18.952l-0.971-0.194l1.947-9.809l0.99,0.198
		L556.825,18.952z M381.964,17.797l-1.846-9.828l0.999-0.186l1.814,9.834L381.964,17.797z M550.037,17.642l-0.984-0.181l1.801-9.837
		l0.984,0.181L550.037,17.642z M388.772,16.577l-1.685-9.857l0.993-0.169l1.67,9.859L388.772,16.577z M543.209,16.432l-0.978-0.165
		l1.654-9.862l0.995,0.167L543.209,16.432z M395.607,15.458l-1.537-9.881l0.996-0.154l1.522,9.883L395.607,15.458z M536.376,15.327
		l-0.975-0.149l1.492-9.888l1.004,0.153L536.376,15.327z M402.458,14.445l-1.392-9.902l1.006-0.14l1.361,9.907L402.458,14.445z
		 M529.53,14.328l-0.985-0.135l1.348-9.909l0.997,0.136L529.53,14.328z M409.323,13.535l-1.246-9.922l1.008-0.125l1.215,9.926
		L409.323,13.535z M522.669,13.432l-0.993-0.121l1.201-9.928l0.993,0.121L522.669,13.432z M416.193,12.731L415.11,2.79l1.001-0.108
		l1.069,9.942L416.193,12.731z M515.782,12.638l-0.987-0.105l1.053-9.944l1.003,0.107L515.782,12.638z M423.084,12.03l-0.938-9.956
		l1.003-0.093l0.923,9.957L423.084,12.03z M508.891,11.95l-0.982-0.089l0.894-9.96l1.011,0.092L508.891,11.95z M429.983,11.433
		l-0.792-9.969l1.012-0.079l0.762,9.971L429.983,11.433z M501.997,11.366l-0.991-0.075l0.748-9.972l1.003,0.076L501.997,11.366z
		 M436.885,10.939l-0.63-9.98l1.006-0.063l0.614,9.981L436.885,10.939z M495.087,10.885l-0.989-0.06l0.6-9.982l1.007,0.061
		L495.087,10.885z M443.799,10.55l-0.483-9.988l1.006-0.048l0.469,9.989L443.799,10.55z M488.172,10.509l-0.991-0.046l0.453-9.989
		l1.007,0.046L488.172,10.509z M450.719,10.264l-0.338-9.994l1.003-0.033l0.323,9.995L450.719,10.264z M481.252,10.236l-0.985-0.03
		l0.293-9.996l1.015,0.031L481.252,10.236z M457.627,10.083l-0.19-9.998l1.005-0.018l0.176,9.998L457.627,10.083z M474.336,10.067
		l-0.993-0.016l0.146-9.999l0.976,0.015L474.336,10.067z M464.548,10.003l-0.044-10L465.519,0l0.015,10L464.548,10.003z
		 M467.409,10.001L466.417,10V0l1.008,0.001L467.409,10.001z"/>
</g>
<g id="Oval-3-Copy-4">
	<path fill="#5A616D" d="M466,540.5c-0.345,0-0.688-0.003-1.031-0.008l0.452-30.996L466,509.5c0.243,0,0.485-0.002,0.727-0.007
		l0.546,30.996C466.85,540.496,466.426,540.5,466,540.5z M463.698,540.466c-0.41-0.014-0.819-0.029-1.228-0.048l1.455-30.966
		c0.256,0.012,0.513,0.021,0.771,0.029L463.698,540.466z M468.497,540.459l-0.996-30.984c0.227-0.007,0.452-0.017,0.678-0.028
		l1.639,30.957C469.379,540.427,468.939,540.444,468.497,540.459z M461.203,540.349c-0.411-0.026-0.821-0.057-1.23-0.089
		l2.458-30.902c0.254,0.021,0.509,0.039,0.765,0.056L461.203,540.349z M471.04,540.331l-2.086-30.93l0.813-0.061l2.453,30.902
		C471.828,540.274,471.435,540.305,471.04,540.331z M458.709,540.147c-0.424-0.041-0.848-0.086-1.271-0.135l3.548-30.797
		c0.239,0.027,0.478,0.053,0.718,0.076L458.709,540.147z M473.531,540.123l-3.084-30.846c0.24-0.024,0.48-0.051,0.72-0.079
		l3.633,30.787C474.377,540.035,473.955,540.081,473.531,540.123z M456.132,539.852c-0.393-0.053-0.786-0.107-1.177-0.166
		l4.55-30.664l0.802,0.113L456.132,539.852z M476.059,539.825l-4.168-30.719c0.265-0.036,0.529-0.074,0.792-0.113l4.562,30.662
		C476.852,539.714,476.456,539.771,476.059,539.825z M453.705,539.488c-0.424-0.07-0.847-0.145-1.269-0.223l5.642-30.482
		c0.233,0.043,0.466,0.084,0.701,0.123L453.705,539.488z M478.537,539.447l-5.17-30.566c0.235-0.04,0.471-0.081,0.705-0.126
		l5.729,30.467C479.381,539.3,478.96,539.376,478.537,539.447z M451.193,539.025c-0.406-0.083-0.811-0.168-1.214-0.256l6.638-30.281
		c0.247,0.055,0.495,0.106,0.743,0.156L451.193,539.025z M481.044,538.978l-6.254-30.363c0.245-0.05,0.489-0.102,0.732-0.156
		l6.744,30.258C481.862,538.806,481.453,538.893,481.044,538.978z M448.74,538.486c-0.403-0.096-0.805-0.195-1.206-0.297
		l7.636-30.045c0.245,0.062,0.49,0.123,0.736,0.182L448.74,538.486z M483.5,538.429l-7.262-30.137
		c0.249-0.061,0.498-0.123,0.746-0.187l7.711,30.025C484.297,538.233,483.9,538.333,483.5,538.429z M446.301,537.863
		c-0.416-0.113-0.831-0.231-1.244-0.353l8.732-29.744c0.226,0.066,0.452,0.13,0.68,0.192L446.301,537.863z M485.937,537.799
		l-8.264-29.879c0.233-0.064,0.466-0.131,0.698-0.199l8.791,29.727C486.754,537.568,486.346,537.686,485.937,537.799z
		 M443.879,537.156c-0.41-0.127-0.818-0.258-1.226-0.393l9.722-29.436c0.225,0.074,0.452,0.146,0.678,0.217L443.879,537.156z
		 M488.379,537.076l-9.312-29.568c0.241-0.076,0.482-0.154,0.724-0.234l9.775,29.418
		C489.172,536.822,488.777,536.951,488.379,537.076z M441.482,536.367c-0.408-0.142-0.814-0.287-1.219-0.437l10.726-29.086
		c0.22,0.081,0.441,0.16,0.664,0.237L441.482,536.367z M490.785,536.273l-10.318-29.232c0.239-0.084,0.478-0.171,0.715-0.259
		l10.775,29.066C491.568,535.993,491.177,536.135,490.785,536.273z M439.106,535.493c-0.403-0.155-0.804-0.314-1.204-0.478
		l11.717-28.701c0.217,0.089,0.436,0.176,0.655,0.261L439.106,535.493z M493.162,535.389l-11.311-28.863
		c0.23-0.09,0.461-0.183,0.688-0.276l11.795,28.668C493.946,535.077,493.555,535.234,493.162,535.389z M436.78,534.546
		c-0.399-0.17-0.797-0.344-1.193-0.521l12.684-28.287c0.21,0.095,0.42,0.187,0.632,0.276L436.78,534.546z M495.522,534.417
		l-12.32-28.447c0.231-0.101,0.463-0.202,0.694-0.307l12.766,28.25C496.283,534.084,495.904,534.252,495.522,534.417z
		 M434.458,533.509c-0.378-0.177-0.754-0.356-1.129-0.539l13.589-27.863c0.222,0.108,0.445,0.216,0.669,0.32L434.458,533.509z
		 M497.812,533.382l-13.244-28.029c0.217-0.102,0.432-0.206,0.646-0.312l13.756,27.781
		C498.584,533.012,498.198,533.198,497.812,533.382z M432.174,532.392c-0.372-0.189-0.742-0.382-1.11-0.578l14.569-27.363
		c0.219,0.116,0.438,0.23,0.659,0.344L432.174,532.392z M500.098,532.252l-14.225-27.543c0.219-0.113,0.437-0.228,0.653-0.344
		l14.691,27.297C500.847,531.862,500.473,532.059,500.098,532.252z M429.954,531.211c-0.365-0.202-0.728-0.407-1.09-0.615
		l15.479-26.859c0.214,0.124,0.43,0.245,0.646,0.365L429.954,531.211z M502.31,531.065l-15.117-27.064
		c0.209-0.116,0.416-0.234,0.621-0.354l15.615,26.781C503.058,530.644,502.685,530.855,502.31,531.065z M427.785,529.963
		c-0.365-0.218-0.728-0.438-1.088-0.664l16.389-26.312c0.204,0.126,0.409,0.251,0.615,0.375L427.785,529.963z M504.497,529.793
		l-16.029-26.535c0.204-0.123,0.406-0.247,0.607-0.374l16.52,26.232C505.232,529.345,504.865,529.57,504.497,529.793z
		 M425.64,528.629c-0.347-0.225-0.691-0.45-1.034-0.68l17.217-25.779c0.21,0.141,0.421,0.279,0.634,0.416L425.64,528.629z
		 M506.661,528.434l-16.965-25.945c0.216-0.142,0.432-0.284,0.646-0.429l17.342,25.695
		C507.345,527.983,507.004,528.21,506.661,528.434z M423.563,527.237c-0.349-0.241-0.697-0.487-1.042-0.736l18.108-25.16
		c0.195,0.14,0.391,0.278,0.589,0.416L423.563,527.237z M508.726,527.037l-17.777-25.396c0.194-0.136,0.387-0.273,0.578-0.413
		l18.25,25.059C509.429,526.539,509.078,526.79,508.726,527.037z M421.502,525.756c-0.335-0.25-0.668-0.503-0.999-0.758
		l18.94-24.541c0.196,0.151,0.394,0.301,0.592,0.449L421.502,525.756z M510.765,525.557l-18.615-24.789
		c0.197-0.147,0.392-0.298,0.587-0.449l19.031,24.471C511.436,525.048,511.101,525.304,510.765,525.557z M419.511,524.217
		c-0.327-0.261-0.651-0.524-0.974-0.791l19.752-23.893c0.19,0.157,0.383,0.313,0.576,0.469L419.511,524.217z M512.777,523.985
		l-19.486-24.109c0.186-0.15,0.37-0.302,0.553-0.455l19.926,23.748C513.442,523.443,513.111,523.716,512.777,523.985z
		 M417.573,522.615c-0.318-0.272-0.634-0.548-0.947-0.824l20.539-23.221c0.186,0.165,0.372,0.327,0.561,0.488L417.573,522.615z
		 M514.705,522.375l-20.271-23.453c0.187-0.161,0.371-0.323,0.556-0.488l20.662,23.109
		C515.338,521.823,515.023,522.101,514.705,522.375z M415.693,520.95c-0.317-0.29-0.631-0.584-0.943-0.88l21.346-22.48
		c0.171,0.163,0.344,0.324,0.519,0.483L415.693,520.95z M516.58,520.698l-21.041-22.766c0.183-0.168,0.363-0.339,0.542-0.51
		l21.414,22.416C517.194,520.127,516.888,520.414,516.58,520.698z M413.856,519.211c-0.303-0.297-0.604-0.597-0.901-0.898
		l22.079-21.761c0.17,0.172,0.341,0.343,0.515,0.513L413.856,519.211z M518.42,518.938l-21.83-22.012
		c0.184-0.182,0.365-0.364,0.546-0.549l22.146,21.691C518.996,518.361,518.709,518.651,518.42,518.938z M412.081,517.41
		c-0.289-0.304-0.576-0.609-0.86-0.917l22.788-21.018c0.168,0.183,0.337,0.363,0.508,0.542L412.081,517.41z M520.175,517.141
		l-22.547-21.275c0.177-0.188,0.354-0.377,0.528-0.568l22.852,20.947C520.733,516.545,520.455,516.844,520.175,517.141z
		 M410.386,515.571c-0.285-0.319-0.568-0.643-0.848-0.968l23.492-20.227c0.155,0.181,0.312,0.359,0.47,0.536L410.386,515.571z
		 M521.869,515.285l-23.24-20.516c0.163-0.185,0.325-0.371,0.484-0.558l23.582,20.121
		C522.423,514.652,522.148,514.97,521.869,515.285z M408.722,513.643c-0.267-0.321-0.533-0.646-0.795-0.972l24.153-19.432
		c0.156,0.193,0.313,0.385,0.472,0.575L408.722,513.643z M523.501,513.371l-23.912-19.729c0.15-0.183,0.3-0.365,0.446-0.551
		l24.277,19.277C524.045,512.705,523.775,513.04,523.501,513.371z M407.121,511.65c-0.249-0.322-0.496-0.645-0.739-0.969
		l24.789-18.615c0.157,0.209,0.315,0.416,0.476,0.623L407.121,511.65z M525.07,511.403l-24.559-18.918
		c0.143-0.185,0.283-0.37,0.421-0.557l24.92,18.439C525.595,510.715,525.333,511.061,525.07,511.403z M405.626,509.655
		c-0.247-0.342-0.491-0.685-0.733-1.03l25.418-17.746c0.14,0.201,0.283,0.401,0.427,0.601L405.626,509.655z M526.59,509.355
		l-25.219-18.027c0.148-0.209,0.297-0.419,0.443-0.63l25.48,17.654C527.063,508.688,526.828,509.023,526.59,509.355z
		 M404.188,507.599c-0.24-0.356-0.478-0.715-0.712-1.076l26.015-16.859c0.129,0.199,0.26,0.397,0.393,0.594L404.188,507.599z
		 M528.007,507.308l-25.779-17.217c0.131-0.196,0.261-0.394,0.388-0.592l26.098,16.73
		C528.481,506.592,528.245,506.951,528.007,507.308z M402.785,505.438c-0.216-0.347-0.43-0.695-0.642-1.046l26.555-15.996
		c0.133,0.222,0.269,0.441,0.405,0.661L402.785,505.438z M529.372,505.184l-26.354-16.324c0.131-0.211,0.26-0.424,0.388-0.639
		l26.615,15.896C529.808,504.475,529.591,504.83,529.372,505.184z M401.501,503.303c-0.211-0.365-0.42-0.731-0.625-1.101
		l27.084-15.082c0.12,0.215,0.241,0.429,0.365,0.642L401.501,503.303z M530.666,503.013l-26.898-15.41
		c0.128-0.223,0.254-0.447,0.378-0.672l27.121,15.016C531.069,502.304,530.868,502.659,530.666,503.013z M400.269,501.092
		c-0.199-0.372-0.395-0.746-0.587-1.121l27.581-14.152c0.113,0.219,0.227,0.437,0.343,0.654L400.269,501.092z M531.885,500.801
		l-27.41-14.479c0.114-0.217,0.227-0.433,0.337-0.651l27.654,14.01C532.276,500.056,532.081,500.43,531.885,500.801z
		 M399.105,498.821c-0.183-0.373-0.363-0.746-0.54-1.122l28.045-13.209c0.108,0.229,0.218,0.458,0.33,0.685L399.105,498.821z
		 M533.019,498.569l-27.871-13.572c0.104-0.213,0.205-0.426,0.305-0.641l28.117,13.055
		C533.39,497.798,533.206,498.185,533.019,498.569z M398.035,496.549c-0.176-0.391-0.348-0.782-0.517-1.177l28.493-12.211
		c0.095,0.221,0.192,0.44,0.291,0.659L398.035,496.549z M534.084,496.281l-28.32-12.607c0.099-0.223,0.196-0.446,0.292-0.671
		l28.531,12.123C534.423,495.513,534.255,495.898,534.084,496.281z M397.029,494.204c-0.157-0.385-0.312-0.771-0.463-1.157
		l28.879-11.271c0.092,0.236,0.186,0.472,0.281,0.706L397.029,494.204z M535.07,493.963l-28.732-11.639
		c0.093-0.228,0.183-0.457,0.271-0.687l28.924,11.152C535.381,493.184,535.227,493.573,535.07,493.963z M396.115,491.861
		c-0.148-0.4-0.293-0.803-0.435-1.208l29.257-10.248c0.08,0.228,0.162,0.454,0.246,0.681L396.115,491.861z M535.981,491.601
		l-29.115-10.645c0.083-0.228,0.165-0.454,0.244-0.685l29.299,10.129C536.269,490.803,536.126,491.203,535.981,491.601z
		 M395.269,489.444c-0.13-0.394-0.258-0.789-0.382-1.187l29.581-9.271c0.076,0.241,0.153,0.482,0.233,0.724L395.269,489.444z
		 M536.81,489.208l-29.463-9.639c0.077-0.235,0.152-0.471,0.226-0.708l29.619,9.148C537.068,488.411,536.94,488.811,536.81,489.208z
		 M394.51,487.021c-0.117-0.4-0.231-0.802-0.342-1.204l29.89-8.223c0.066,0.24,0.134,0.479,0.205,0.72L394.51,487.021z
		 M537.554,486.803l-29.77-8.648c0.07-0.241,0.138-0.484,0.204-0.728l29.902,8.18C537.781,486.006,537.669,486.405,537.554,486.803z
		 M393.843,484.594c-0.104-0.405-0.205-0.811-0.302-1.217l30.147-7.219c0.058,0.242,0.118,0.483,0.18,0.725L393.843,484.594z
		 M538.214,484.372l-30.043-7.646c0.059-0.23,0.115-0.461,0.17-0.692l30.178,7.09C538.421,483.54,538.32,483.958,538.214,484.372z
		 M393.256,482.135c-0.091-0.411-0.178-0.822-0.262-1.236l30.381-6.166c0.049,0.24,0.1,0.481,0.153,0.721L393.256,482.135z
		 M538.801,481.878l-30.301-6.551c0.054-0.247,0.105-0.495,0.155-0.743l30.398,6.08
		C538.973,481.069,538.888,481.475,538.801,481.878z M392.756,479.676c-0.078-0.42-0.153-0.842-0.224-1.265l30.573-5.125
		c0.04,0.235,0.081,0.47,0.125,0.704L392.756,479.676z M539.292,479.418l-30.498-5.553c0.045-0.247,0.087-0.494,0.128-0.742
		l30.584,5.066C539.438,478.602,539.366,479.011,539.292,479.418z M392.337,477.188c-0.064-0.423-0.125-0.849-0.181-1.275
		l30.73-4.08c0.031,0.235,0.064,0.47,0.1,0.703L392.337,477.188z M539.7,476.943l-30.664-4.549c0.035-0.236,0.067-0.474,0.099-0.711
		l30.742,3.99C539.823,476.099,539.763,476.521,539.7,476.943z M392.001,474.674c-0.049-0.422-0.095-0.845-0.136-1.269l30.851-3.039
		c0.024,0.24,0.049,0.48,0.078,0.72L392.001,474.674z M540.03,474.412l-30.807-3.453l0.084-0.807l30.848,3.076
		C540.115,473.624,540.073,474.019,540.03,474.412z M391.752,472.162c-0.035-0.424-0.066-0.847-0.093-1.271l30.936-1.996
		c0.016,0.241,0.033,0.482,0.053,0.723L391.752,472.162z M540.267,471.922l-30.902-2.453c0.019-0.241,0.036-0.481,0.051-0.724
		l30.941,1.906C540.33,471.075,540.301,471.499,540.267,471.922z M391.589,469.646c-0.02-0.416-0.037-0.833-0.05-1.252l30.984-0.996
		c0.008,0.249,0.018,0.498,0.03,0.746L391.589,469.646z M540.426,469.383l-30.971-1.367c0.012-0.255,0.021-0.512,0.029-0.769
		l30.986,0.906C540.459,468.564,540.444,468.974,540.426,469.383z M391.509,467.125c-0.005-0.375-0.008-0.75-0.008-1.125v-0.104h31
		l0.005,0.771L391.509,467.125z M540.494,466.896l-30.998-0.389l0.004-0.653l30.998-0.305L540.5,466L540.494,466.896z
		 M422.508,465.169l-30.995-0.545c0.007-0.425,0.019-0.849,0.034-1.272l30.98,1.094
		C422.519,464.687,422.512,464.928,422.508,465.169z M509.49,465.02c-0.004-0.228-0.011-0.454-0.021-0.68l30.975-1.273
		c0.018,0.439,0.03,0.878,0.04,1.319L509.49,465.02z M422.56,463.693l-30.959-1.587c0.021-0.425,0.047-0.85,0.077-1.273
		l30.926,2.138C422.587,463.211,422.573,463.452,422.56,463.693z M509.435,463.565c-0.015-0.256-0.031-0.511-0.049-0.766
		l30.922-2.186c0.029,0.408,0.056,0.818,0.079,1.229L509.435,463.565z M422.662,462.221l-30.888-2.631
		c0.036-0.425,0.076-0.849,0.12-1.272l30.836,3.184C422.705,461.741,422.682,461.981,422.662,462.221z M509.325,462.07
		c-0.021-0.24-0.044-0.479-0.069-0.719l30.826-3.273c0.045,0.423,0.086,0.847,0.124,1.271L509.325,462.07z M422.812,460.752
		l-30.781-3.672c0.049-0.417,0.103-0.834,0.16-1.249l30.716,4.187C422.873,460.262,422.841,460.506,422.812,460.752z
		 M509.173,460.627l-0.105-0.804l30.717-4.187c0.053,0.392,0.105,0.785,0.154,1.179L509.173,460.627z M423.011,459.296
		l-30.639-4.721c0.064-0.415,0.131-0.828,0.202-1.241l30.556,5.229C423.089,458.807,423.049,459.051,423.011,459.296z
		 M508.966,459.146c-0.037-0.237-0.076-0.474-0.118-0.71l30.533-5.361c0.073,0.42,0.144,0.84,0.21,1.262L508.966,459.146z
		 M423.265,457.825l-30.468-5.721c0.079-0.42,0.162-0.839,0.248-1.256l30.359,6.271C423.356,457.354,423.309,457.59,423.265,457.825
		z M508.716,457.72c-0.049-0.249-0.098-0.497-0.15-0.744l30.34-6.368c0.084,0.404,0.166,0.81,0.244,1.216L508.716,457.72z
		 M423.556,456.412l-30.242-6.812c0.092-0.409,0.188-0.818,0.287-1.226l30.124,7.315
		C423.667,455.93,423.611,456.171,423.556,456.412z M508.41,456.264c-0.057-0.248-0.116-0.496-0.176-0.743l30.113-7.358
		c0.099,0.4,0.193,0.801,0.285,1.204L508.41,456.264z M423.903,454.987l-29.99-7.849c0.105-0.401,0.213-0.801,0.324-1.2
		l29.863,8.318C424.032,454.5,423.967,454.743,423.903,454.987z M508.054,454.818c-0.061-0.229-0.122-0.456-0.187-0.682
		l29.824-8.456c0.117,0.414,0.231,0.83,0.341,1.247L508.054,454.818z M424.299,453.566l-29.708-8.857
		c0.121-0.404,0.245-0.808,0.372-1.209l29.552,9.365C424.44,453.098,424.369,453.332,424.299,453.566z M507.658,453.421
		c-0.072-0.241-0.147-0.481-0.224-0.721l29.533-9.422c0.127,0.397,0.251,0.797,0.372,1.197L507.658,453.421z M424.753,452.132
		l-29.409-9.803c0.137-0.41,0.277-0.817,0.421-1.224l29.218,10.36C424.905,451.687,424.827,451.909,424.753,452.132z
		 M507.207,452.013c-0.081-0.24-0.165-0.479-0.25-0.718l29.199-10.412c0.14,0.391,0.276,0.784,0.41,1.178L507.207,452.013z
		 M425.237,450.769l-29.041-10.845c0.148-0.398,0.3-0.794,0.456-1.189l28.845,11.356
		C425.408,450.316,425.322,450.542,425.237,450.769z M506.708,450.622c-0.088-0.232-0.177-0.463-0.269-0.692l28.814-11.435
		c0.154,0.391,0.308,0.784,0.456,1.178L506.708,450.622z M425.773,449.406l-28.649-11.842c0.161-0.389,0.324-0.775,0.491-1.16
		l28.443,12.327C425.961,448.955,425.866,449.18,425.773,449.406z M506.165,449.258c-0.098-0.234-0.197-0.466-0.299-0.699
		l28.414-12.396c0.166,0.381,0.33,0.763,0.49,1.146L506.165,449.258z M426.353,448.066l-28.226-12.817
		c0.172-0.38,0.348-0.758,0.526-1.134l28.013,13.276C426.56,447.615,426.456,447.84,426.353,448.066z M505.577,447.913
		c-0.102-0.222-0.204-0.442-0.31-0.661l27.941-13.427c0.184,0.383,0.364,0.768,0.542,1.154L505.577,447.913z M426.99,446.725
		l-27.791-13.736c0.188-0.38,0.379-0.759,0.574-1.135l27.542,14.228C427.205,446.294,427.096,446.509,426.99,446.725z
		 M504.935,446.57c-0.112-0.223-0.226-0.445-0.341-0.667l27.496-14.314c0.193,0.371,0.385,0.744,0.571,1.118L504.935,446.57z
		 M427.661,445.424l-27.305-14.678c0.197-0.367,0.398-0.733,0.602-1.097l27.061,15.125
		C427.898,444.989,427.779,445.206,427.661,445.424z M504.246,445.252c-0.117-0.216-0.236-0.431-0.357-0.645l26.994-15.243
		c0.207,0.367,0.412,0.736,0.613,1.107L504.246,445.252z M428.377,444.146l-26.789-15.601c0.214-0.367,0.431-0.733,0.651-1.096
		l26.506,16.076C428.621,443.731,428.498,443.938,428.377,444.146z M503.52,443.969c-0.125-0.212-0.251-0.422-0.379-0.631
		l26.457-16.156c0.22,0.36,0.438,0.722,0.65,1.085L503.52,443.969z M429.136,442.892l-26.239-16.508
		c0.223-0.354,0.449-0.708,0.677-1.058l25.961,16.942C429.401,442.476,429.268,442.683,429.136,442.892z M502.751,442.712
		c-0.129-0.204-0.261-0.406-0.394-0.608l25.877-17.069c0.234,0.355,0.466,0.713,0.694,1.072L502.751,442.712z M429.941,441.659
		l-25.667-17.384c0.232-0.344,0.468-0.685,0.706-1.024l25.388,17.789C430.224,441.245,430.082,441.452,429.941,441.659z
		 M501.947,441.492c-0.139-0.203-0.279-0.405-0.422-0.605l25.281-17.941c0.244,0.344,0.484,0.69,0.723,1.038L501.947,441.492z
		 M430.794,440.443l-25.081-18.22c0.25-0.343,0.502-0.684,0.757-1.022l24.756,18.658
		C431.08,440.052,430.936,440.247,430.794,440.443z M501.079,440.27c-0.14-0.191-0.282-0.38-0.426-0.568l24.652-18.796
		c0.261,0.342,0.519,0.687,0.773,1.034L501.079,440.27z M431.674,439.276L407.238,420.2c0.257-0.33,0.518-0.657,0.78-0.982
		l24.118,19.477C431.98,438.886,431.826,439.081,431.674,439.276z M500.18,439.09c-0.146-0.186-0.294-0.371-0.444-0.554
		l24.012-19.608c0.271,0.333,0.541,0.669,0.808,1.008L500.18,439.09z M432.597,438.133l-23.771-19.899
		c0.266-0.317,0.535-0.633,0.806-0.947l23.453,20.271C432.921,437.749,432.758,437.94,432.597,438.133z M499.251,437.952
		c-0.145-0.172-0.291-0.343-0.44-0.513l23.279-20.472c0.292,0.333,0.579,0.667,0.864,1.005L499.251,437.952z M433.565,437.014
		l-23.092-20.683c0.276-0.308,0.554-0.614,0.835-0.918l22.767,21.04C433.903,436.639,433.733,436.826,433.565,437.014z
		 M498.285,436.846c-0.163-0.18-0.327-0.359-0.492-0.536l22.635-21.181c0.29,0.309,0.577,0.622,0.861,0.937L498.285,436.846z
		 M434.572,435.925l-22.392-21.438c0.29-0.302,0.582-0.603,0.876-0.9l22.033,21.807
		C434.916,435.568,434.743,435.746,434.572,435.925z M497.271,435.76c-0.161-0.167-0.323-0.332-0.487-0.496l21.875-21.966
		c0.309,0.307,0.613,0.618,0.915,0.93L497.271,435.76z M435.594,434.892l-21.623-22.214c0.292-0.285,0.587-0.567,0.883-0.848
		l21.299,22.524C435.965,434.533,435.779,434.712,435.594,434.892z M496.232,434.722c-0.175-0.168-0.351-0.336-0.528-0.502
		l21.16-22.655c0.311,0.29,0.617,0.582,0.921,0.876L496.232,434.722z M436.685,433.861l-20.898-22.897
		c0.31-0.282,0.621-0.562,0.935-0.839l20.517,23.239C437.052,433.528,436.868,433.694,436.685,433.861z M495.159,433.719
		c-0.184-0.166-0.369-0.33-0.556-0.493l20.395-23.347c0.315,0.275,0.628,0.554,0.938,0.834L495.159,433.719z M437.788,432.888
		l-20.104-23.598c0.32-0.272,0.641-0.542,0.965-0.809l19.707,23.93C438.165,432.568,437.976,432.728,437.788,432.888z
		 M494.031,432.734c-0.178-0.15-0.355-0.298-0.536-0.445l19.559-24.051c0.337,0.274,0.671,0.551,1.001,0.831L494.031,432.734z
		 M438.932,431.944l-19.305-24.256c0.332-0.264,0.666-0.525,1.003-0.784l18.875,24.592
		C439.313,431.644,439.121,431.793,438.932,431.944z M492.907,431.817c-0.198-0.155-0.396-0.309-0.596-0.461l18.789-24.657
		c0.329,0.251,0.657,0.505,0.982,0.762L492.907,431.817z M440.108,431.041l-18.483-24.887c0.34-0.253,0.683-0.503,1.028-0.75
		l18.044,25.207C440.499,430.752,440.302,430.896,440.108,431.041z M491.731,430.921c-0.197-0.145-0.396-0.289-0.596-0.43
		l17.924-25.293c0.343,0.243,0.684,0.489,1.023,0.739L491.731,430.921z M441.289,430.193l-17.591-25.525
		c0.342-0.236,0.686-0.469,1.031-0.7l17.186,25.801C441.705,429.909,441.497,430.05,441.289,430.193z M490.519,430.061
		c-0.202-0.138-0.404-0.274-0.608-0.409l17.08-25.87c0.351,0.231,0.701,0.466,1.048,0.705L490.519,430.061z M442.515,429.375
		l-16.711-26.11c0.348-0.223,0.697-0.443,1.049-0.661l16.308,26.364C442.944,429.103,442.729,429.239,442.515,429.375z
		 M489.294,429.254c-0.204-0.13-0.41-0.259-0.617-0.385l16.176-26.445c0.361,0.221,0.72,0.445,1.076,0.671L489.294,429.254z
		 M443.791,428.586l-15.856-26.638c0.363-0.216,0.727-0.429,1.094-0.639l15.399,26.904
		C444.214,428.336,444.002,428.461,443.791,428.586z M488.03,428.479c-0.203-0.12-0.408-0.239-0.615-0.355l15.264-26.982
		c0.373,0.211,0.744,0.426,1.113,0.644L488.03,428.479z M445.063,427.857l-14.924-27.171c0.364-0.2,0.729-0.397,1.097-0.592
		l14.494,27.403C445.507,427.616,445.284,427.736,445.063,427.857z M486.774,427.768c-0.221-0.12-0.441-0.237-0.664-0.354
		l14.371-27.468c0.367,0.192,0.732,0.387,1.096,0.584L486.774,427.768z M446.377,427.164l-14.009-27.654
		c0.376-0.19,0.754-0.378,1.134-0.562l13.537,27.889C446.817,426.943,446.596,427.052,446.377,427.164z M485.458,427.08
		c-0.212-0.106-0.425-0.211-0.639-0.313l13.389-27.96c0.386,0.185,0.769,0.373,1.15,0.564L485.458,427.08z M447.698,426.522
		l-13.042-28.123c0.379-0.176,0.76-0.349,1.143-0.519l12.582,28.332C448.152,426.314,447.925,426.417,447.698,426.522z
		 M484.139,426.447c-0.228-0.104-0.455-0.207-0.685-0.308l12.498-28.369c0.378,0.167,0.755,0.336,1.132,0.509L484.139,426.447z
		 M449.058,425.918l-12.097-28.542c0.392-0.166,0.785-0.329,1.18-0.488l11.591,28.751
		C449.506,425.731,449.281,425.824,449.058,425.918z M482.784,425.852c-0.225-0.095-0.451-0.187-0.679-0.278l11.521-28.779
		c0.39,0.156,0.778,0.315,1.165,0.477L482.784,425.852z M450.427,425.367l-11.113-28.939c0.392-0.151,0.787-0.298,1.183-0.443
		l10.627,29.122C450.89,425.191,450.657,425.278,450.427,425.367z M481.437,425.314c-0.229-0.087-0.458-0.172-0.688-0.255
		l10.496-29.169c0.396,0.143,0.792,0.289,1.187,0.438L481.437,425.314z M451.806,424.863l-10.102-29.308
		c0.401-0.139,0.805-0.274,1.209-0.405l9.586,29.48C452.267,424.707,452.036,424.784,451.806,424.863z M480.055,424.817
		c-0.231-0.079-0.464-0.156-0.696-0.231l9.488-29.512c0.402,0.129,0.803,0.262,1.202,0.398L480.055,424.817z M453.209,424.406
		l-9.091-29.637c0.405-0.125,0.811-0.245,1.219-0.363l8.57,29.792C453.674,424.266,453.441,424.335,453.209,424.406z
		 M478.646,424.362c-0.226-0.068-0.453-0.135-0.682-0.2l8.451-29.826c0.416,0.118,0.827,0.239,1.238,0.364L478.646,424.362z
		 M454.612,424.001l-8.053-29.936c0.401-0.108,0.804-0.213,1.208-0.314l7.572,30.061
		C455.095,423.874,454.853,423.937,454.612,424.001z M477.243,423.962c-0.243-0.065-0.488-0.127-0.733-0.188l7.498-30.08
		c0.401,0.1,0.803,0.204,1.202,0.31L477.243,423.962z M456.048,423.64l-7.047-30.188c0.41-0.096,0.821-0.188,1.233-0.277
		l6.532,30.304C456.526,423.53,456.287,423.584,456.048,423.64z M475.805,423.606c-0.243-0.056-0.486-0.109-0.731-0.162
		l6.471-30.317c0.409,0.087,0.816,0.177,1.222,0.271L475.805,423.606z M457.506,423.326l-6.054-30.403
		c0.42-0.083,0.843-0.164,1.267-0.24l5.485,30.511C457.971,423.236,457.738,423.28,457.506,423.326z M474.377,423.303
		c-0.237-0.046-0.475-0.09-0.712-0.132l5.361-30.533c0.419,0.074,0.838,0.151,1.255,0.232L474.377,423.303z M458.947,423.066
		l-5.001-30.594c0.421-0.069,0.843-0.134,1.265-0.195l4.447,30.68C459.421,422.991,459.183,423.028,458.947,423.066z
		 M472.93,423.047c-0.243-0.039-0.486-0.075-0.731-0.11l4.346-30.693c0.417,0.059,0.832,0.122,1.247,0.188L472.93,423.047z
		 M460.405,422.855l-3.957-30.746c0.422-0.055,0.846-0.105,1.27-0.152l3.403,30.812
		C460.881,422.796,460.642,422.825,460.405,422.855z M471.47,422.839c-0.245-0.031-0.49-0.059-0.736-0.085l3.309-30.823
		c0.418,0.045,0.835,0.094,1.25,0.145L471.47,422.839z M461.869,422.693l-2.913-30.863c0.423-0.04,0.848-0.077,1.274-0.109
		l2.356,30.91C462.347,422.65,462.108,422.67,461.869,422.693z M470.004,422.681c-0.246-0.022-0.493-0.042-0.741-0.061l2.268-30.917
		c0.418,0.031,0.835,0.065,1.251,0.103L470.004,422.681z M463.34,422.58l-1.866-30.943c0.416-0.025,0.833-0.047,1.251-0.065
		l1.36,30.97C463.837,422.552,463.588,422.565,463.34,422.58z M468.511,422.571c-0.24-0.014-0.482-0.025-0.724-0.035l1.227-30.976
		c0.425,0.017,0.849,0.037,1.272,0.062L468.511,422.571z M464.814,422.516l-0.819-30.989c0.416-0.011,0.833-0.019,1.25-0.022
		l0.317,30.998C465.313,422.505,465.063,422.509,464.814,422.516z M467.039,422.512c-0.249-0.006-0.498-0.009-0.748-0.011
		l0.227-30.999c0.418,0.003,0.835,0.009,1.25,0.019L467.039,422.512z"/>
</g>
<g id="Oval-3-Copy-4_1_">
	<path fill="#ED145B" d="M466,476c5.522,0,10-4.478,10-10s-4.478-10-10-10c-5.523,0-10,4.478-10,10S460.477,476,466,476z"/>
</g>
</svg>
