<?xml version="1.0" encoding="utf-8"?>
<!-- Generator: Adobe Illustrator 16.0.0, SVG Export Plug-In . SVG Version: 6.00 Build 0)  -->
<!DOCTYPE svg PUBLIC "-//W3C//DTD SVG 1.1//EN" "http://www.w3.org/Graphics/SVG/1.1/DTD/svg11.dtd">
<svg version="1.1" id="Calque_1" xmlns="http://www.w3.org/2000/svg" xmlns:xlink="http://www.w3.org/1999/xlink" x="0px" y="0px"
	 width="1020.102px" height="987.869px" viewBox="-47.232 -21 1020.102 987.869"
	 enable-background="new -47.232 -21 1020.102 987.869" xml:space="preserve">
<title>Group</title>
<desc>Created with Sketch.</desc>
<g id="Page-1">
	<g id="Artboard-16" transform="translate(-985.000000, -791.000000)">
		<g id="Group" transform="translate(990.000000, 796.000000)">
			<g id="Group-8-Copy">
				<g id="Oval-1">
					<path fill="#FC9004" d="M462.586,904.743l-1.003-0.001l0.006-2l0.997,0.001V904.743z M470.62,904.675l-0.053-2l0.995-0.019
						l0.041,2L470.62,904.675z M453.568,904.649l-1.002-0.021l0.047-2l0.997,0.021L453.568,904.649z M479.6,904.427l-0.076-1.998
						l0.995-0.038l0.076,1.998L479.6,904.427z M444.552,904.375l-0.999-0.041l0.082-1.998l0.999,0.041L444.552,904.375z
						 M488.605,903.999l-0.117-1.996l0.998-0.059l0.117,1.996L488.605,903.999z M435.546,903.92l-0.998-0.062l0.123-1.996
						l0.998,0.062L435.546,903.92z M497.604,903.39l-0.158-1.994l0.996-0.079l0.158,1.994L497.604,903.39z M426.55,903.283
						l-0.997-0.083l0.164-1.993l0.997,0.082L426.55,903.283z M506.587,902.596l-0.199-1.99l0.995-0.1l0.199,1.99L506.587,902.596z
						 M417.571,902.464l-0.998-0.102l0.205-1.99l0.992,0.102L417.571,902.464z M515.551,901.62l-0.234-1.986l0.989-0.119l0.24,1.986
						L515.551,901.62z M408.607,901.462l-0.995-0.123l0.246-1.984l0.989,0.121L408.607,901.462z M524.494,900.463l-0.275-1.98
						l0.987-0.14l0.281,1.98L524.494,900.463z M399.666,900.277l-0.993-0.144l0.287-1.979l0.987,0.142L399.666,900.277z
						 M533.413,899.124l-0.316-1.975l0.984-0.16l0.322,1.975L533.413,899.124z M390.751,898.91l-0.989-0.164l0.328-1.973
						l0.983,0.162L390.751,898.91z M542.304,897.601l-0.357-1.967l0.98-0.18l0.363,1.967L542.304,897.601z M381.866,897.361
						l-0.986-0.184l0.369-1.965l0.98,0.182L381.866,897.361z M551.16,895.897l-0.398-1.96l0.977-0.2l0.404,1.959L551.16,895.897z
						 M373.014,895.631l-0.982-0.204l0.41-1.957l0.976,0.202L373.014,895.631z M559.983,894.013l-0.441-1.951l0.973-0.22
						l0.445,1.949L559.983,894.013z M364.2,893.718l-0.975-0.223l0.445-1.949l0.975,0.223L364.2,893.718z M568.76,891.945
						l-0.479-1.941l0.97-0.24l0.48,1.941L568.76,891.945z M355.426,891.625l-0.97-0.243l0.486-1.939l0.97,0.243L355.426,891.625z
						 M577.494,889.7l-0.518-1.932l0.963-0.259l0.521,1.93L577.494,889.7z M346.7,889.354l-0.968-0.264l0.527-1.93l0.962,0.262
						L346.7,889.354z M586.182,887.275l-0.559-1.92l0.958-0.28l0.562,1.92L586.182,887.275z M338.019,886.902l-0.959-0.282
						l0.563-1.92l0.958,0.282L338.019,886.902z M594.818,884.673l-0.6-1.908l0.951-0.299l0.604,1.906L594.818,884.673z
						 M329.392,884.272l-0.961-0.305l0.607-1.906l0.954,0.303L329.392,884.272z M603.398,881.893l-0.639-1.896l0.947-0.318
						l0.639,1.895L603.398,881.893z M320.786,881.454l-0.954-0.324l0.647-1.893l0.948,0.322L320.786,881.454z M611.915,878.937
						l-0.672-1.883l0.938-0.338l0.68,1.881L611.915,878.937z M312.242,878.461l-0.944-0.344l0.683-1.879l0.943,0.342
						L312.242,878.461z M620.376,875.804l-0.715-1.867l0.935-0.357l0.715,1.867L620.376,875.804z M303.765,875.292l-0.938-0.363
						l0.724-1.865l0.934,0.361L303.765,875.292z M628.766,872.501l-0.748-1.854l0.923-0.376l0.756,1.852L628.766,872.501z
						 M295.356,871.948l-0.929-0.381l0.76-1.85l0.928,0.381L295.356,871.948z M637.062,869.038l-0.789-1.838l0.911-0.393
						l0.795,1.836L637.062,869.038z M287.02,868.436l-0.922-0.401l0.8-1.834l0.917,0.399L287.02,868.436z M645.281,865.408
						l-0.828-1.82l0.905-0.413l0.83,1.82L645.281,865.408z M278.759,864.751l-0.911-0.419l0.836-1.816l0.911,0.419L278.759,864.751z
						 M653.425,861.608l-0.861-1.805l0.894-0.43l0.871,1.801L653.425,861.608z M270.579,860.898l-0.905-0.438l0.876-1.799l0.9,0.437
						L270.579,860.898z M661.492,857.643l-0.896-1.787l0.885-0.447l0.906,1.783L661.492,857.643z M262.481,856.88l-0.896-0.458
						l0.912-1.779l0.89,0.454L262.481,856.88z M669.481,853.512l-0.934-1.768l0.876-0.467l0.941,1.765L669.481,853.512z
						 M254.469,852.696l-0.885-0.475l0.946-1.762l0.881,0.473L254.469,852.696z M677.383,849.218l-0.969-1.75l0.867-0.483
						l0.977,1.746L677.383,849.218z M246.543,848.35l-0.873-0.492l0.982-1.742l0.873,0.492L246.543,848.35z M685.201,844.763
						l-1.01-1.727l0.861-0.504l1.01,1.727L685.201,844.763z M238.712,843.845l-0.863-0.51l1.018-1.723l0.863,0.51L238.712,843.845z
						 M692.926,840.149l-1.043-1.707l0.849-0.521l1.047,1.705L692.926,840.149z M230.975,839.18l-0.853-0.528l1.054-1.699
						l0.851,0.526L230.975,839.18z M700.556,835.377l-1.076-1.686l0.837-0.536l1.082,1.682L700.556,835.377z M223.338,834.359
						l-0.843-0.546l1.088-1.678l0.839,0.542L223.338,834.359z M708.09,830.45l-1.111-1.664l0.827-0.554l1.115,1.66L708.09,830.45z
						 M215.802,829.385l-0.834-0.564l1.127-1.652l0.825,0.559L215.802,829.385z M715.525,825.369l-1.146-1.639l0.815-0.571
						l1.15,1.637L715.525,825.369z M208.368,824.257l-0.82-0.58l1.157-1.631l0.815,0.576L208.368,824.257z M722.853,820.141
						l-1.178-1.617l0.806-0.588l1.18,1.615L722.853,820.141z M201.044,818.981l-0.808-0.595l1.188-1.609l0.804,0.593
						L201.044,818.981z M730.077,814.761l-1.211-1.592l0.792-0.604l1.215,1.59L730.077,814.761z M193.828,813.557l-0.795-0.611
						l1.222-1.584l0.792,0.609L193.828,813.557z M737.192,809.233l-1.244-1.566l0.782-0.621l1.244,1.566L737.192,809.233z
						 M186.726,807.99l-0.782-0.628l1.252-1.559l0.779,0.624L186.726,807.99z M744.189,803.567l-1.266-1.549l0.763-0.631
						l1.279,1.537L744.189,803.567z M179.738,802.278l-0.768-0.643l1.284-1.533l0.766,0.641L179.738,802.278z M751.079,797.752
						l-1.305-1.516l0.754-0.651l1.309,1.514L751.079,797.752z M172.869,796.429l-0.756-0.66l1.317-1.504l0.751,0.654
						L172.869,796.429z M757.848,791.801l-1.336-1.488l0.741-0.667l1.34,1.486L757.848,791.801z M166.123,790.441l-0.743-0.674
						l1.347-1.479l0.738,0.67L166.123,790.441z M764.496,785.712l-1.367-1.461l0.729-0.683l1.367,1.461L764.496,785.712z
						 M159.499,784.318l-0.73-0.691l1.38-1.447l0.723,0.684L159.499,784.318z M771.018,779.491l-1.394-1.435l0.712-0.695l1.4,1.43
						L771.018,779.491z M153.002,778.064l-0.715-0.704l1.407-1.422l0.709,0.698L153.002,778.064z M777.416,773.136l-1.424-1.406
						l0.7-0.71l1.426,1.402L777.416,773.136z M146.634,771.681l-0.7-0.718l1.435-1.395l0.696,0.714L146.634,771.681z
						 M783.683,766.652l-1.451-1.375l0.685-0.726l1.455,1.373L783.683,766.652z M140.398,765.169l-0.684-0.729l1.46-1.367
						l0.683,0.729L140.398,765.169z M789.818,760.043l-1.477-1.348l0.669-0.737l1.482,1.342L789.818,760.043z M134.297,758.535
						l-0.671-0.746l1.49-1.334l0.666,0.74L134.297,758.535z M795.819,753.309l-1.504-1.318l0.654-0.75l1.51,1.311L795.819,753.309z
						 M128.33,751.779l-0.655-0.761l1.519-1.301l0.649,0.753L128.33,751.779z M801.687,746.45l-1.535-1.283l0.642-0.768l1.535,1.283
						L801.687,746.45z M122.505,744.905l-0.64-0.772l1.543-1.273l0.634,0.767L122.505,744.905z M807.409,739.477l-1.559-1.254
						l0.624-0.777l1.562,1.248L807.409,739.477z M116.82,737.915l-0.623-0.784l1.567-1.242l0.62,0.78L116.82,737.915z
						 M812.991,732.387l-1.582-1.225l0.608-0.789l1.586,1.218L812.991,732.387z M111.279,730.812l-0.606-0.796l1.592-1.211
						l0.604,0.792L111.279,730.812z M818.432,725.182l-1.609-1.188l0.593-0.804l1.611,1.184L818.432,725.182z M105.885,723.6
						l-0.591-0.81l1.618-1.176l0.586,0.804L105.885,723.6z M823.723,717.866l-1.634-1.154l0.577-0.817l1.634,1.154L823.723,717.866z
						 M100.638,716.28l-0.574-0.821l1.642-1.143l0.57,0.815L100.638,716.28z M828.865,710.445l-1.654-1.123l0.559-0.827l1.658,1.119
						L828.865,710.445z M95.543,708.856l-0.557-0.831l1.663-1.111l0.554,0.827L95.543,708.856z M833.856,702.919l-1.678-1.088
						l0.542-0.839l1.682,1.084L833.856,702.919z M90.601,701.334l-0.54-0.842l1.685-1.078l0.536,0.838L90.601,701.334z
						 M838.693,695.291l-1.699-1.055l0.524-0.849l1.703,1.048L838.693,695.291z M85.813,693.712l-0.522-0.854l1.707-1.041
						l0.52,0.848L85.813,693.712z M843.372,687.564l-1.721-1.02l0.509-0.86l1.723,1.016L843.372,687.564z M81.182,685.996
						l-0.504-0.862l1.728-1.008l0.503,0.86L81.182,685.996z M847.896,679.742l-1.742-0.982l0.492-0.873l1.742,0.982L847.896,679.742
						z M76.711,678.19l-0.486-0.874l1.748-0.971l0.484,0.868L76.711,678.19z M852.258,671.829l-1.762-0.947l0.472-0.88l1.766,0.941
						L852.258,671.829z M72.401,670.296l-0.469-0.883l1.768-0.936l0.466,0.877L72.401,670.296z M856.458,663.824l-1.779-0.913
						l0.454-0.889l1.783,0.906L856.458,663.824z M68.253,662.316l-0.451-0.894l1.788-0.896l0.447,0.886L68.253,662.316z
						 M860.493,655.735l-1.799-0.875l0.437-0.9l1.801,0.871L860.493,655.735z M64.271,654.259l-0.433-0.902l1.805-0.861l0.43,0.895
						L64.271,654.259z M864.364,647.562l-1.816-0.836l0.419-0.911l1.816,0.836L864.364,647.562z M60.454,646.119l-0.414-0.908
						l1.821-0.826l0.412,0.904L60.454,646.119z M868.065,639.31l-1.834-0.8l0.399-0.917l1.836,0.795L868.065,639.31z
						 M56.805,637.906l-0.395-0.917l1.839-0.787l0.393,0.913L56.805,637.906z M871.597,630.982l-1.85-0.762l0.381-0.927l1.85,0.76
						L871.597,630.982z M53.327,629.626l-0.378-0.931l1.854-0.748l0.375,0.923L53.327,629.626z M874.955,622.582l-1.863-0.727
						l0.36-0.931l1.867,0.717L874.955,622.582z M50.005,621.239l-0.358-0.936l1.868-0.715l0.357,0.934L50.005,621.239z
						 M878.144,614.108l-1.879-0.684l0.343-0.943l1.879,0.684L878.144,614.108z M46.857,612.789l-0.34-0.945l1.884-0.672
						l0.337,0.938L46.857,612.789z M881.156,605.575l-1.893-0.648l0.322-0.947l1.895,0.641L881.156,605.575z M43.883,604.272
						l-0.319-0.948l1.896-0.637l0.319,0.946L43.883,604.272z M883.991,596.974l-1.906-0.605l0.303-0.956l1.908,0.602
						L883.991,596.974z M41.085,595.699l-0.3-0.954l1.908-0.6l0.299,0.952L41.085,595.699z M886.641,588.348l-1.918-0.566
						l0.281-0.958l1.92,0.562L886.641,588.348z M38.463,587.07l-0.28-0.962l1.921-0.559l0.279,0.958L38.463,587.07z
						 M889.111,579.673l-1.93-0.525l0.263-0.963l1.93,0.521L889.111,579.673z M36.02,578.387l-0.26-0.966l1.932-0.52l0.259,0.964
						L36.02,578.387z M891.401,570.948l-1.939-0.484l0.243-0.972l1.939,0.486L891.401,570.948z M33.756,569.658l-0.241-0.975
						l1.942-0.477l0.239,0.967L33.756,569.658z M893.512,562.181l-1.949-0.445l0.223-0.976l1.949,0.445L893.512,562.181z
						 M31.672,560.882l-0.221-0.975l1.951-0.441l0.22,0.975L31.672,560.882z M895.443,553.371l-1.957-0.408l0.202-0.978l1.959,0.404
						L895.443,553.371z M29.768,552.066l-0.201-0.981l1.96-0.398l0.2,0.978L29.768,552.066z M897.192,544.524l-1.965-0.369
						l0.182-0.98l1.967,0.363L897.192,544.524z M28.045,543.212l-0.18-0.984l1.968-0.357l0.18,0.982L28.045,543.212z
						 M898.759,535.643l-1.973-0.328l0.161-0.984l1.975,0.322L898.759,535.643z M26.505,534.327l-0.16-0.99l1.975-0.316l0.159,0.984
						L26.505,534.327z M900.144,526.73l-1.979-0.287l0.142-0.987l1.98,0.281L900.144,526.73z M25.146,525.411l-0.14-0.991
						l1.98-0.278l0.14,0.988L25.146,525.411z M901.348,517.793l-1.984-0.246l0.121-0.99l1.986,0.24L901.348,517.793z M23.969,516.47
						l-0.119-0.993l1.985-0.238l0.119,0.991L23.969,516.47z M902.37,508.83l-1.99-0.205l0.102-0.992l1.99,0.199L902.37,508.83z
						 M22.975,507.505l-0.099-0.996l1.99-0.197l0.099,0.994L22.975,507.505z M903.207,499.852l-1.994-0.164l0.082-0.997l1.993,0.164
						L903.207,499.852z M22.164,498.524l-0.08-0.998l1.994-0.156l0.079,0.993L22.164,498.524z M903.864,490.855l-1.996-0.123
						l0.062-0.998l1.996,0.123L903.864,490.855z M21.535,489.526l-0.059-1l1.997-0.115l0.058,0.996L21.535,489.526z M904.337,481.85
						l-1.998-0.082l0.041-0.999l1.998,0.082L904.337,481.85z M21.088,480.52l-0.036-0.926l1.996-0.147l0.039,0.993L21.088,480.52z
						 M904.63,472.839l-2-0.047l0.021-0.997l2,0.041L904.63,472.839z M20.822,471.524l-0.019-0.999l2-0.035l0.019,0.996
						L20.822,471.524z M904.742,463.82l-2-0.006l0.001-0.997h2L904.742,463.82z M22.737,462.508h-2l0.001-1.003l2,0.006
						L22.737,462.508z M902.674,454.835l-0.019-0.995l2-0.041l0.019,1.001L902.674,454.835z M22.831,453.531l-2-0.041l0.022-1.001
						l1.999,0.044L22.831,453.531z M902.428,445.88l-0.039-0.992l1.998-0.082l0.039,0.998L902.428,445.88z M23.105,444.558
						l-1.998-0.082l0.042-1l1.998,0.085L23.105,444.558z M901.999,436.916l-0.059-0.999l1.996-0.117l0.059,0.999L901.999,436.916z
						 M23.56,435.59l-1.996-0.12l0.062-1.001l1.996,0.126L23.56,435.59z M901.388,427.958l-0.079-0.997l1.994-0.158l0.079,0.997
						L901.388,427.958z M24.196,426.635l-1.993-0.161l0.082-1l1.993,0.167L24.196,426.635z M900.599,419.015l-0.1-0.995l1.99-0.199
						l0.1,0.995L900.599,419.015z M25.014,417.694l-1.99-0.202l0.103-0.996l1.989,0.205L25.014,417.694z M899.626,410.091
						l-0.12-0.993l1.986-0.24l0.12,0.993L899.626,410.091z M26.013,408.772l-1.985-0.243l0.123-0.994l1.984,0.247L26.013,408.772z
						 M898.473,401.185l-0.14-0.987l1.98-0.281l0.14,0.993L898.473,401.185z M27.194,399.872l-1.979-0.284l0.143-0.991l1.979,0.287
						L27.194,399.872z M897.137,392.307l-0.16-0.984l1.975-0.322l0.16,0.99L897.137,392.307z M28.556,390.997l-1.974-0.322
						l0.163-0.99l1.973,0.329L28.556,390.997z M895.621,383.461l-0.181-0.984l1.967-0.363l0.181,0.984L895.621,383.461z
						 M30.1,382.152l-1.967-0.363l0.184-0.986l1.966,0.369L30.1,382.152z M893.922,374.642l-0.2-0.977l1.959-0.404l0.2,0.982
						L893.922,374.642z M31.824,373.342l-1.959-0.404l0.204-0.98l1.958,0.407L31.824,373.342z M892.044,365.864l-0.22-0.972
						l1.949-0.445l0.222,0.978L892.044,365.864z M33.729,364.569l-1.95-0.445l0.224-0.976l1.949,0.448L33.729,364.569z
						 M889.987,357.125l-0.24-0.971l1.941-0.48l0.24,0.971L889.987,357.125z M35.813,355.835l-1.94-0.483l0.244-0.973l1.939,0.489
						L35.813,355.835z M887.749,348.431l-0.261-0.965l1.932-0.521l0.261,0.966L887.749,348.431z M38.077,347.147l-1.93-0.524
						l0.264-0.966l1.929,0.527L38.077,347.147z M885.333,339.782l-0.279-0.957l1.92-0.562l0.281,0.963L885.333,339.782z
						 M40.519,338.507l-1.919-0.562l0.284-0.962l1.917,0.568L40.519,338.507z M882.741,331.187l-0.299-0.951l1.906-0.604
						l0.301,0.957L882.741,331.187z M43.138,329.92l-1.907-0.604l0.304-0.958l1.906,0.604L43.138,329.92z M879.973,322.648
						l-0.319-0.948l1.895-0.639l0.319,0.948L879.973,322.648z M45.944,321.354l-1.894-0.642l0.324-0.954l1.893,0.647L45.944,321.354
						z M877.028,314.164l-0.338-0.938l1.881-0.68l0.34,0.944L877.028,314.164z M48.926,312.851l-1.88-0.682l0.344-0.945l1.879,0.686
						L48.926,312.851z M873.911,305.746l-0.357-0.931l1.865-0.721l0.359,0.937L873.911,305.746z M52.082,304.413l-1.865-0.721
						l0.363-0.938l1.864,0.724L52.082,304.413z M870.619,297.391l-0.376-0.923l1.852-0.756l0.378,0.928L870.619,297.391z
						 M55.41,296.042l-1.851-0.759l0.382-0.93l1.849,0.763L55.41,296.042z M867.17,289.136l-0.394-0.912l1.836-0.794l0.396,0.917
						L867.17,289.136z M58.91,287.745l-1.834-0.797l0.401-0.921l1.833,0.8L58.91,287.745z M863.555,280.956l-0.413-0.906l1.82-0.83
						l0.413,0.906L863.555,280.956z M62.579,279.522l-1.818-0.833l0.42-0.914l1.816,0.838L62.579,279.522z M859.773,272.848
						l-0.431-0.895l1.801-0.871l0.433,0.9L859.773,272.848z M66.415,271.38l-1.8-0.871l0.438-0.903l1.799,0.873L66.415,271.38z
						 M855.822,264.816l-0.449-0.886l1.783-0.906l0.451,0.892L855.822,264.816z M70.417,263.319l-1.782-0.908l0.457-0.895
						l1.78,0.911L70.417,263.319z M851.709,256.866l-0.466-0.877l1.765-0.941l0.469,0.883L851.709,256.866z M74.582,255.344
						l-1.763-0.944l0.475-0.884l1.762,0.946L74.582,255.344z M847.434,249.001l-0.486-0.87l1.746-0.976l0.486,0.87L847.434,249.001z
						 M78.91,247.457l-1.743-0.98l0.493-0.875l1.741,0.984L78.91,247.457z M842.997,241.221l-0.503-0.859l1.725-1.011l0.505,0.861
						L842.997,241.221z M83.398,239.662l-1.724-1.016l0.511-0.865l1.721,1.02L83.398,239.662z M838.403,233.532l-0.521-0.85
						l1.705-1.046l0.521,0.851L838.403,233.532z M88.043,231.96l-1.702-1.05l0.529-0.854l1.699,1.054L88.043,231.96z
						 M833.651,225.935l-0.537-0.837l1.684-1.081l0.539,0.842L833.651,225.935z M92.843,224.358l-1.68-1.086l0.545-0.842
						l1.679,1.088L92.843,224.358z M828.744,218.436l-0.554-0.826l1.66-1.116l0.558,0.832L828.744,218.436z M97.797,216.855
						l-1.659-1.117l0.563-0.833l1.655,1.123L97.797,216.855z M823.688,211.038l-0.571-0.815l1.637-1.149l0.573,0.819
						L823.688,211.038z M102.902,209.458l-1.635-1.152l0.58-0.82l1.631,1.157L102.902,209.458z M818.479,203.743l-0.589-0.806
						l1.615-1.181l0.589,0.806L818.479,203.743z M108.155,202.166l-1.61-1.186l0.595-0.807l1.609,1.188L108.155,202.166z
						 M813.122,196.55l-0.604-0.791l1.588-1.216l0.607,0.796L813.122,196.55z M113.556,194.984l-1.587-1.218l0.612-0.794
						l1.584,1.221L113.556,194.984z M807.62,189.471l-0.621-0.781l1.564-1.245l0.621,0.781L807.62,189.471z M119.099,187.915
						l-1.561-1.251l0.627-0.782l1.559,1.254L119.099,187.915z M801.974,182.5l-0.635-0.766l1.537-1.279l0.641,0.772L801.974,182.5z
						 M124.785,180.96l-1.534-1.282l0.643-0.769l1.532,1.286L124.785,180.96z M796.187,175.646l-0.65-0.754l1.514-1.308l0.654,0.759
						L796.187,175.646z M130.611,174.124l-1.509-1.312l0.659-0.755l1.506,1.315L130.611,174.124z M790.261,168.911l-0.667-0.742
						l1.486-1.338l0.669,0.744L790.261,168.911z M136.573,167.408l-1.482-1.342l0.674-0.743l1.479,1.347L136.573,167.408z
						 M784.2,162.294l-0.682-0.727l1.457-1.371l0.686,0.732L784.2,162.294z M142.669,160.816l-1.455-1.373l0.689-0.729l1.45,1.377
						L142.669,160.816z M778.004,155.801l-0.695-0.713l1.429-1.399l0.7,0.717L778.004,155.801z M148.896,154.348l-1.427-1.401
						l0.705-0.715l1.422,1.407L148.896,154.348z M771.676,149.434l-0.711-0.701l1.402-1.426l0.713,0.702L771.676,149.434z
						 M155.252,148.011l-1.398-1.431l0.717-0.699l1.396,1.433L155.252,148.011z M765.222,143.196l-0.726-0.686l1.373-1.455
						l0.728,0.689L765.222,143.196z M161.735,141.803l-1.369-1.458l0.732-0.685l1.363,1.463L161.735,141.803z M758.639,137.087
						l-0.738-0.67l1.342-1.482l0.743,0.674L758.639,137.087z M168.34,135.73l-1.339-1.485l0.746-0.67l1.334,1.49L168.34,135.73z
						 M751.934,131.114l-0.751-0.655l1.311-1.51l0.757,0.659L751.934,131.114z M175.067,129.792l-1.308-1.513l0.758-0.654
						l1.305,1.516L175.067,129.792z M745.107,125.278l-0.766-0.64l1.281-1.536l0.77,0.643L745.107,125.278z M181.911,123.994
						l-1.276-1.54l0.771-0.638l1.272,1.543L181.911,123.994z M738.162,119.58l-0.778-0.625l1.25-1.562l0.782,0.628L738.162,119.58z
						 M188.872,118.336l-1.247-1.563l0.784-0.623l1.242,1.567L188.872,118.336z M731.103,114.023l-0.79-0.608l1.218-1.587
						l0.795,0.612L731.103,114.023z M195.943,112.822l-1.214-1.59l0.796-0.606l1.21,1.592L195.943,112.822z M723.932,108.611
						l-0.805-0.593l1.186-1.61l0.807,0.594L723.932,108.611z M203.123,107.453l-1.181-1.615l0.807-0.589l1.178,1.616
						L203.123,107.453z M716.649,103.345l-0.816-0.577l1.154-1.634l0.818,0.578L716.649,103.345z M210.41,102.231l-1.147-1.638
						l0.818-0.573l1.146,1.64L210.41,102.231z M709.259,98.227l-0.827-0.56l1.119-1.658l0.831,0.562L709.259,98.227z M217.802,97.16
						l-1.116-1.659l0.831-0.557l1.111,1.663L217.802,97.16z M701.767,93.26l-0.84-0.543l1.086-1.68l0.842,0.544L701.767,93.26z
						 M225.291,92.241l-1.081-1.683l0.842-0.539l1.077,1.685L225.291,92.241z M694.171,88.446l-0.85-0.525l1.051-1.702l0.854,0.528
						L694.171,88.446z M232.879,87.477l-1.046-1.704l0.851-0.521l1.044,1.706L232.879,87.477z M686.479,83.788l-0.858-0.507
						l1.014-1.724l0.866,0.511L686.479,83.788z M240.56,82.869l-1.011-1.726l0.863-0.504l1.007,1.729L240.56,82.869z
						 M678.694,79.288l-0.872-0.491l0.98-1.743l0.874,0.492L678.694,79.288z M248.332,78.419l-0.976-1.746l0.872-0.486l0.973,1.748
						L248.332,78.419z M670.813,74.945l-0.88-0.472l0.943-1.764l0.887,0.476L670.813,74.945z M256.192,74.129l-0.941-1.765
						l0.883-0.469l0.936,1.768L256.192,74.129z M662.844,70.766l-0.889-0.454l0.906-1.783l0.896,0.458L662.844,70.766z
						 M264.134,70.003l-0.902-1.785l0.89-0.45l0.9,1.786L264.134,70.003z M654.792,66.75l-0.901-0.436l0.871-1.801l0.903,0.438
						L654.792,66.75z M272.158,66.039l-0.867-1.802l0.9-0.432l0.862,1.805L272.158,66.039z M646.656,62.9l-0.91-0.418l0.834-1.818
						l0.912,0.419L646.656,62.9z M280.26,62.242l-0.83-1.819l0.907-0.413l0.829,1.82L280.26,62.242z M638.44,59.217l-0.917-0.399
						l0.795-1.835l0.923,0.401L638.44,59.217z M288.434,58.612l-0.792-1.837l0.916-0.394l0.789,1.838L288.434,58.612z
						 M630.149,55.702l-0.924-0.379l0.756-1.852l0.932,0.382L630.149,55.702z M296.681,55.149l-0.756-1.852l0.929-0.378l0.75,1.854
						L296.681,55.149z M621.783,52.359L620.853,52l0.717-1.867l0.94,0.364L621.783,52.359z M305.029,51.844l-0.718-1.866
						l0.937-0.359l0.712,1.869L305.029,51.844z M613.353,49.189l-0.94-0.342l0.68-1.881l0.946,0.344L613.353,49.189z
						 M313.443,48.712l-0.68-1.881l0.944-0.339l0.674,1.883L313.443,48.712z M604.855,46.192l-0.948-0.322l0.641-1.895l0.954,0.324
						L604.855,46.192z M321.918,45.753l-0.639-1.896l0.95-0.319l0.635,1.896L321.918,45.753z M596.295,43.371l-0.956-0.303
						l0.602-1.907l0.96,0.304L596.295,43.371z M330.454,42.969l-0.601-1.907l0.956-0.3l0.597,1.909L330.454,42.969z M587.709,40.736
						l-0.959-0.282l0.562-1.919l0.961,0.282L587.709,40.736z M339.046,40.361l-0.562-1.919l0.963-0.281l0.557,1.921L339.046,40.361z
						 M579.073,38.279l-0.965-0.263l0.525-1.93l0.965,0.263L579.073,38.279z M347.688,37.93L347.166,36l0.968-0.26l0.518,1.932
						L347.688,37.93z M570.389,36l-0.971-0.243l0.484-1.94l0.971,0.243L570.389,36z M356.378,35.679l-0.48-1.941l0.972-0.24
						l0.478,1.942L356.378,35.679z M561.658,33.899l-0.973-0.222l0.441-1.95l0.979,0.223L561.658,33.899z M365.114,33.605
						l-0.442-1.95l0.979-0.221l0.437,1.952L365.114,33.605z M552.889,31.979l-0.979-0.202l0.404-1.959l0.98,0.203L552.889,31.979z
						 M373.89,31.711l-0.401-1.959l0.981-0.2l0.398,1.96L373.89,31.711z M544.08,30.24l-0.981-0.182l0.363-1.967l0.985,0.183
						L544.08,30.24z M382.702,29.998l-0.36-1.967l0.985-0.18l0.357,1.968L382.702,29.998z M535.24,28.68l-0.986-0.162l0.322-1.974
						l0.988,0.162L535.24,28.68z M391.55,28.466l-0.322-1.974l0.99-0.16l0.316,1.975L391.55,28.466z M526.366,27.303l-0.987-0.142
						l0.281-1.98l0.993,0.143L526.366,27.303z M400.425,27.116l-0.281-1.98l0.993-0.139l0.275,1.98L400.425,27.116z M517.469,26.106
						l-0.991-0.122L516.72,24l0.995,0.122L517.469,26.106z M409.326,25.946l-0.24-1.985l0.995-0.12l0.237,1.986L409.326,25.946z
						 M508.549,25.092l-0.993-0.102l0.201-1.99l0.997,0.102L508.549,25.092z M418.249,24.958l-0.199-1.99l0.995-0.099l0.199,1.99
						L418.249,24.958z M499.61,24.259l-0.996-0.082l0.161-1.993l0.999,0.082L499.61,24.259z M427.191,24.152l-0.158-1.994
						l0.999-0.079l0.155,1.994L427.191,24.152z M490.655,23.607l-0.996-0.061l0.119-1.996l1,0.061L490.655,23.607z M436.149,23.526
						l-0.12-1.996l1.001-0.059l0.114,1.997L436.149,23.526z M481.689,23.137l-0.996-0.041l0.079-1.998l1.001,0.041L481.689,23.137z
						 M445.116,23.083l-0.079-1.998l0.998-0.039l0.073,1.999L445.116,23.083z M472.716,22.847l-0.999-0.021l0.041-2l1.001,0.021
						L472.716,22.847z M454.07,22.82l-0.038-2l1-0.018l0.035,2L454.07,22.82z M463.738,22.737l-0.998-0.001v-2l0.998,0.001V22.737z"
						/>
				</g>
				<g id="Oval-1_1_">
					<path fill="#4A4A4A" d="M467.25,832.91l-0.059-5l0.991-0.014l0.073,5L467.25,832.91z M458.192,832.908l-1-0.013l0.059-5
						l1,0.013L458.192,832.908z M477.296,832.654l-0.191-4.996l0.986-0.04l0.207,4.996L477.296,832.654z M448.132,832.652
						l-1.006-0.04l0.205-4.996l0.992,0.04L448.132,832.652z M487.35,832.131l-0.338-4.988l0.997-0.067l0.338,4.988L487.35,832.131z
						 M438.082,832.128l-1.005-0.067l0.337-4.988l0.99,0.065L438.082,832.128z M497.383,831.336l-0.471-4.979l0.996-0.094
						l0.469,4.979L497.383,831.336z M428.043,831.331l-0.996-0.094l0.469-4.979l0.996,0.094L428.043,831.331z M507.389,830.271
						l-0.602-4.963l0.985-0.121l0.615,4.963L507.389,830.271z M418.036,830.263l-0.993-0.12l0.602-4.963l0.992,0.12L418.036,830.263
						z M517.371,828.933l-0.748-4.943l0.988-0.148l0.748,4.943L517.371,828.933z M408.061,828.925l-0.996-0.148l0.747-4.943
						l0.981,0.146L408.061,828.925z M527.299,827.325l-0.865-4.924l0.978-0.174l0.879,4.922L527.299,827.325z M398.126,827.315
						l-0.992-0.176l0.879-4.922l0.977,0.174L398.126,827.315z M537.195,825.446l-1.012-4.896l0.979-0.202l1.012,4.896
						L537.195,825.446z M388.239,825.436l-0.987-0.203l1.012-4.896l0.972,0.199L388.239,825.436z M547.026,823.297l-1.141-4.868
						l0.973-0.228l1.144,4.867L547.026,823.297z M378.405,823.286l-0.981-0.229l1.144-4.867l0.966,0.226L378.405,823.286z
						 M556.795,820.881l-1.271-4.836l0.966-0.254l1.275,4.834L556.795,820.881z M368.627,820.865l-0.967-0.255l1.274-4.834
						l0.967,0.255L368.627,820.865z M566.498,818.197l-1.404-4.799l0.958-0.28l1.408,4.797L566.498,818.197z M358.926,818.182
						l-0.961-0.281l1.406-4.799l0.959,0.281L358.926,818.182z M576.124,815.248l-1.537-4.758l0.952-0.308l1.537,4.758
						L576.124,815.248z M349.303,815.231l-0.963-0.311l1.546-4.756l0.948,0.307L349.303,815.231z M585.665,812.037l-1.668-4.713
						l0.943-0.334l1.668,4.713L585.665,812.037z M339.728,812.007l-0.954-0.338l1.677-4.711l0.939,0.333L339.728,812.007z
						 M595.115,808.565l-1.799-4.666l0.931-0.358l1.804,4.664L595.115,808.565z M330.248,808.521l-0.938-0.361l1.796-4.666
						l0.936,0.359L330.248,808.521z M604.459,804.839l-1.912-4.619l0.91-0.379l1.93,4.612L604.459,804.839z M320.875,804.778
						l-0.934-0.389l1.927-4.613l0.918,0.383L320.875,804.778z M613.676,800.868l-2.045-4.562l0.901-0.405l2.059,4.557
						L613.676,800.868z M311.603,800.778l-0.922-0.414l2.059-4.557l0.907,0.408L311.603,800.778z M622.776,796.65l-2.16-4.51
						l0.889-0.429l2.178,4.502L622.776,796.65z M302.453,796.529l-0.909-0.438l2.175-4.502l0.897,0.433L302.453,796.529z
						 M631.767,792.182l-2.289-4.445l0.883-0.455l2.295,4.442L631.767,792.182z M293.418,792.03l-0.891-0.46l2.294-4.443l0.891,0.46
						L293.418,792.03z M640.633,787.471l-2.41-4.381l0.867-0.479l2.422,4.375L640.633,787.471z M284.516,787.288l-0.883-0.487
						l2.424-4.373l0.872,0.481L284.516,787.288z M649.368,782.52l-2.525-4.316l0.852-0.499l2.543,4.305L649.368,782.52z
						 M275.75,782.308l-0.872-0.513l2.547-4.303l0.854,0.503L275.75,782.308z M657.97,777.33l-2.643-4.244l0.841-0.525l2.654,4.238
						L657.97,777.33z M267.123,777.09l-0.856-0.536l2.661-4.232l0.842,0.526L267.123,777.09z M666.431,771.908l-2.76-4.17
						l0.832-0.551l2.76,4.17L666.431,771.908z M258.643,771.641l-0.835-0.556l2.767-4.164l0.833,0.553L258.643,771.641z
						 M674.74,766.26l-2.865-4.098l0.812-0.57l2.875,4.092L674.74,766.26z M250.319,765.965l-0.825-0.581l2.884-4.084l0.812,0.571
						L250.319,765.965z M682.897,760.386l-2.977-4.018l0.794-0.59l2.992,4.006L682.897,760.386z M242.149,760.063l-0.804-0.599
						l2.989-4.008l0.801,0.597L242.149,760.063z M690.894,754.292l-3.084-3.936l0.78-0.613l3.094,3.928L690.894,754.292z
						 M234.148,753.948l-0.792-0.624l3.102-3.922l0.78,0.614L234.148,753.948z M698.721,747.985l-3.182-3.857l0.761-0.631
						l3.197,3.844L698.721,747.985z M226.315,747.617l-0.775-0.646l3.207-3.836l0.762,0.636L226.315,747.617z M706.384,741.462
						l-3.293-3.762l0.747-0.656l3.301,3.756L706.384,741.462z M218.658,741.079l-0.757-0.667l3.31-3.748l0.745,0.656
						L218.658,741.079z M713.862,734.741l-3.387-3.68l0.727-0.671l3.4,3.664L713.862,734.741z M211.181,734.336l-0.74-0.688
						l3.413-3.654l0.725,0.674L211.181,734.336z M721.16,727.813l-3.484-3.586l0.708-0.691l3.498,3.572L721.16,727.813z
						 M203.89,727.394l-0.715-0.702l3.502-3.568l0.712,0.698L203.89,727.394z M728.274,720.688l-3.586-3.484l0.691-0.714
						l3.594,3.477L728.274,720.688z M196.794,720.262l-0.702-0.727l3.604-3.465l0.687,0.711L196.794,720.262z M735.19,713.374
						l-3.68-3.387l0.669-0.729l3.693,3.371L735.19,713.374z M189.892,712.941l-0.68-0.743l3.693-3.371l0.669,0.731L189.892,712.941z
						 M741.907,705.874l-3.77-3.285l0.653-0.751l3.775,3.277L741.907,705.874z M183.192,705.437l-0.66-0.761l3.783-3.27l0.649,0.749
						L183.192,705.437z M748.42,698.196l-3.857-3.182l0.633-0.77l3.863,3.176L748.42,698.196z M176.698,697.756l-0.638-0.778
						l3.87-3.166l0.628,0.767L176.698,697.756z M754.722,690.344l-3.936-3.084l0.605-0.777l3.953,3.061L754.722,690.344z
						 M170.415,689.903l-0.619-0.797l3.957-3.057l0.606,0.781L170.415,689.903z M760.816,682.316l-4.023-2.969l0.59-0.802
						l4.029,2.961L760.816,682.316z M164.349,681.888l-0.597-0.812l4.037-2.951l0.584,0.797L164.349,681.888z M766.686,674.13
						l-4.104-2.857l0.569-0.819l4.107,2.851L766.686,674.13z M158.501,673.708l-0.572-0.825l4.113-2.842l0.565,0.815
						L158.501,673.708z M772.334,665.784l-4.178-2.746l0.545-0.833l4.186,2.736L772.334,665.784z M152.879,665.378l-0.546-0.835
						l4.184-2.738l0.546,0.835L152.879,665.378z M777.759,657.28l-4.258-2.619l0.524-0.853l4.259,2.619L777.759,657.28z
						 M147.488,656.901l-0.526-0.855l4.262-2.615l0.52,0.844L147.488,656.901z M782.943,648.643l-4.32-2.518l0.498-0.858l4.33,2.502
						L782.943,648.643z M142.329,648.284l-0.504-0.872l4.332-2.496l0.495,0.854L142.329,648.284z M787.895,639.857l-4.387-2.398
						l0.474-0.871l4.396,2.381L787.895,639.857z M137.405,639.527l-0.477-0.878l4.396-2.383l0.474,0.874L137.405,639.527z
						 M792.606,630.939l-4.451-2.277l0.452-0.888l4.457,2.266L792.606,630.939z M132.725,630.647l-0.455-0.895l4.46-2.26
						l0.449,0.883L132.725,630.647z M797.074,621.89l-4.516-2.148l0.431-0.905l4.516,2.148L797.074,621.89z M128.288,621.643
						l-0.43-0.906l4.521-2.136l0.424,0.896L128.288,621.643z M801.292,612.726l-4.57-2.029l0.403-0.911l4.574,2.018L801.292,612.726
						z M124.099,612.525l-0.402-0.911l4.573-2.021l0.402,0.911L124.099,612.525z M805.261,603.439l-4.627-1.896l0.378-0.923
						l4.631,1.885L805.261,603.439z M120.162,603.3l-0.379-0.926l4.627-1.896l0.379,0.926L120.162,603.3z M808.971,594.051
						l-4.676-1.773l0.353-0.934l4.679,1.764L808.971,594.051z M116.467,593.938l-0.356-0.944l4.682-1.756l0.35,0.927
						L116.467,593.938z M812.422,584.562l-4.719-1.65l0.326-0.939l4.726,1.633L812.422,584.562z M113.027,584.478l-0.33-0.954
						l4.729-1.625l0.324,0.937L113.027,584.478z M815.615,574.976l-4.764-1.52l0.3-0.948l4.77,1.502L815.615,574.976z
						 M109.849,574.928l-0.306-0.969l4.773-1.488l0.296,0.939L109.849,574.928z M818.535,565.331l-4.807-1.377l0.275-0.961
						l4.807,1.377L818.535,565.331z M106.933,565.292l-0.278-0.975l4.812-1.359l0.271,0.949L106.933,565.292z M821.187,555.622
						l-4.842-1.25l0.248-0.965l4.843,1.244L821.187,555.622z M104.283,555.582l-0.252-0.98l4.847-1.23l0.245,0.957L104.283,555.582z
						 M823.572,545.842l-4.873-1.115l0.22-0.966l4.877,1.098L823.572,545.842z M101.899,545.798l-0.223-0.982l4.878-1.099
						l0.22,0.968L101.899,545.798z M825.687,536.001l-4.902-0.98l0.193-0.975l4.906,0.967L825.687,536.001z M99.783,535.957
						l-0.196-0.982l4.904-0.977l0.195,0.979L99.783,535.957z M827.534,526.1l-4.93-0.834l0.168-0.986l4.93,0.834L827.534,526.1z
						 M97.94,526.063l-0.17-0.993l4.93-0.834l0.167,0.978L97.94,526.063z M829.109,516.167l-4.949-0.717l0.141-0.983l4.951,0.703
						L829.109,516.167z M96.365,516.123l-0.143-0.999l4.951-0.697l0.14,0.979L96.365,516.123z M830.414,506.18l-4.967-0.57
						l0.114-0.995l4.967,0.572L830.414,506.18z M95.061,506.14l-0.115-1l4.968-0.564l0.114,0.986L95.061,506.14z M831.447,496.169
						l-4.98-0.439l0.088-0.996l4.98,0.439L831.447,496.169z M94.03,496.13l-0.088-1.007l4.982-0.426l0.087,0.985L94.03,496.13z
						 M832.208,486.135l-4.99-0.309l0.06-0.99l4.992,0.293L832.208,486.135z M93.269,486.09l-0.061-1.001l4.991-0.301l0.06,0.995
						L93.269,486.09z M832.701,476.05l-4.998-0.142l0.033-0.993l4.998,0.162L832.701,476.05z M92.779,476.038l-0.034-1.002
						l4.997-0.162l0.034,0.988L92.779,476.038z M832.922,466.015l-5-0.029l0.007-1l5,0.029L832.922,466.015z M92.558,465.988
						l-0.007-1.007l5-0.029l0.007,0.992L92.558,465.988z M827.876,456.044l-0.019-0.991l4.998-0.103l0.021,1.005L827.876,456.044z
						 M97.605,456.012l-4.999-0.088l0.02-1.011l4.999,0.11L97.605,456.012z M827.565,446.126l-0.047-0.999l4.994-0.234l0.047,0.999
						L827.565,446.126z M97.917,446.089l-4.995-0.227l0.047-1.003l4.994,0.234L97.917,446.089z M826.988,436.21l-0.073-0.998
						l4.986-0.366l0.073,0.998L826.988,436.21z M98.496,436.174l-4.987-0.359l0.074-1.004l4.986,0.374L98.496,436.174z
						 M826.144,426.315l-0.101-0.987l4.975-0.513l0.101,1.003L826.144,426.315z M99.341,426.28l-4.976-0.491l0.101-1.005
						l4.974,0.513L99.341,426.28z M825.03,416.447l-0.126-0.984l4.959-0.645l0.128,1L825.03,416.447z M100.454,416.415l-4.96-0.63
						l0.127-0.996l4.959,0.638L100.454,416.415z M823.652,406.619l-0.154-0.988l4.939-0.776l0.154,0.989L823.652,406.619z
						 M101.835,406.58l-4.941-0.762l0.155-0.996l4.939,0.776L101.835,406.58z M822.002,396.819l-0.179-0.976l4.916-0.908
						l0.183,0.991L822.002,396.819z M103.483,396.79l-4.918-0.9l0.183-0.991l4.915,0.916L103.483,396.79z M820.091,387.082
						l-0.208-0.978l4.891-1.041l0.208,0.979L820.091,387.082z M105.399,387.046l-4.893-1.033l0.208-0.982l4.891,1.041
						L105.399,387.046z M817.909,377.394l-0.234-0.971l4.861-1.173l0.234,0.973L817.909,377.394z M107.579,377.358l-4.862-1.164
						l0.236-0.98l4.858,1.18L107.579,377.358z M815.467,367.77l-0.261-0.965l4.826-1.304l0.261,0.965L815.467,367.77z
						 M110.024,367.734l-4.829-1.297l0.264-0.976l4.823,1.317L110.024,367.734z M812.76,358.217l-0.287-0.958l4.789-1.436
						l0.287,0.958L812.76,358.217z M112.732,358.181l-4.792-1.429l0.291-0.968l4.785,1.449L112.732,358.181z M809.792,348.742
						l-0.313-0.949l4.748-1.568l0.313,0.949L809.792,348.742z M115.71,348.673l-4.751-1.56l0.318-0.961l4.746,1.574L115.71,348.673z
						 M806.568,339.351l-0.34-0.94l4.703-1.699l0.34,0.942L806.568,339.351z M118.95,339.251l-4.705-1.692l0.342-0.948l4.702,1.699
						L118.95,339.251z M803.083,330.047l-0.362-0.923l4.652-1.832l0.368,0.939L803.083,330.047z M122.447,329.921l-4.658-1.818
						l0.371-0.944l4.65,1.837L122.447,329.921z M799.363,320.883l-0.389-0.915l4.602-1.958l0.389,0.918L799.363,320.883z
						 M126.197,320.697l-4.604-1.948l0.395-0.932l4.599,1.964L126.197,320.697z M795.39,311.816l-0.412-0.905l4.549-2.076
						l0.414,0.907L795.39,311.816z M130.198,311.581l-4.55-2.074l0.417-0.913l4.55,2.074L130.198,311.581z M791.175,302.865
						l-0.438-0.893l4.486-2.207l0.439,0.896L791.175,302.865z M134.446,302.578l-4.491-2.198l0.444-0.905l4.486,2.207
						L134.446,302.578z M786.709,294.018l-0.459-0.876l4.428-2.324l0.465,0.888L786.709,294.018z M138.939,293.697l-4.431-2.317
						l0.469-0.894l4.425,2.329L138.939,293.697z M782.01,285.304l-0.486-0.87l4.365-2.439l0.486,0.87L782.01,285.304z
						 M143.669,284.947l-4.363-2.441l0.492-0.878l4.358,2.45L143.669,284.947z M777.072,276.713l-0.508-0.854l4.295-2.56l0.512,0.86
						L777.072,276.713z M148.638,276.328l-4.297-2.558l0.516-0.865l4.291,2.566L148.638,276.328z M771.903,268.261l-0.532-0.841
						l4.225-2.675l0.534,0.845L771.903,268.261z M153.838,267.849l-4.228-2.67l0.541-0.853l4.219,2.684L153.838,267.849z
						 M766.5,259.944l-0.551-0.822l4.148-2.79l0.561,0.835L766.5,259.944z M159.265,259.518l-4.152-2.785l0.563-0.836l4.145,2.797
						L159.265,259.518z M760.877,251.779l-0.573-0.807l4.07-2.904l0.583,0.82L760.877,251.779z M164.915,251.34l-4.075-2.897
						l0.584-0.819l4.069,2.905L164.915,251.34z M755.034,243.77l-0.599-0.796l3.992-3.01l0.603,0.8L755.034,243.77z
						 M170.785,243.318l-3.995-3.007l0.606-0.803l3.988,3.015L170.785,243.318z M748.973,235.915l-0.617-0.775l3.906-3.122
						l0.627,0.788L748.973,235.915z M176.868,235.461l-3.912-3.113l0.629-0.788l3.902,3.126L176.868,235.461z M742.698,228.226
						l-0.636-0.757l3.82-3.226l0.649,0.773L742.698,228.226z M183.161,227.772l-3.826-3.219l0.65-0.771l3.816,3.23L183.161,227.772z
						 M736.222,220.708l-0.657-0.739l3.731-3.328l0.671,0.755L736.222,220.708z M189.658,220.258l-3.738-3.32l0.67-0.752
						l3.728,3.332L189.658,220.258z M729.543,213.37l-0.679-0.723l3.641-3.428l0.688,0.735L729.543,213.37z M196.356,212.923
						l-3.647-3.42l0.69-0.734l3.637,3.432L196.356,212.923z M722.664,206.211l-0.7-0.707l3.551-3.521l0.706,0.714L722.664,206.211z
						 M203.247,205.774l-3.554-3.518l0.71-0.715l3.543,3.528L203.247,205.774z M715.593,199.237l-0.716-0.684l3.45-3.619l0.73,0.699
						L715.593,199.237z M210.328,198.814l-3.458-3.611l0.729-0.695l3.446,3.622L210.328,198.814z M708.339,192.46l-0.739-0.67
						l3.355-3.707l0.743,0.674L708.339,192.46z M217.593,192.05l-3.359-3.704l0.747-0.675l3.348,3.714L217.593,192.05z
						 M700.9,185.878l-0.757-0.65l3.254-3.796l0.761,0.653L700.9,185.878z M225.036,185.486l-3.258-3.793l0.765-0.654l3.246,3.803
						L225.036,185.486z M693.284,179.498l-0.774-0.629l3.15-3.883l0.778,0.633L693.284,179.498z M232.653,179.126l-3.154-3.88
						l0.782-0.633l3.142,3.89L232.653,179.126z M685.493,173.323l-0.787-0.605l3.045-3.967l0.799,0.615L685.493,173.323z
						 M240.436,172.977l-3.047-3.965l0.798-0.612l3.035,3.974L240.436,172.977z M677.542,167.365l-0.804-0.584l2.932-4.051
						l0.815,0.593L677.542,167.365z M248.381,167.042l-2.938-4.046l0.814-0.59l2.926,4.055L248.381,167.042z M669.431,161.622
						l-0.822-0.563l2.824-4.126l0.828,0.568L669.431,161.622z M256.483,161.324l-2.826-4.125l0.826-0.564l2.822,4.127
						L256.483,161.324z M661.163,156.099l-0.836-0.54l2.709-4.202l0.846,0.546L661.163,156.099z M264.736,155.829l-2.716-4.198
						l0.848-0.546l2.698,4.209L264.736,155.829z M652.749,150.805l-0.855-0.521l2.598-4.272l0.855,0.521L652.749,150.805z
						 M273.131,150.561l-2.602-4.27l0.858-0.521l2.59,4.277L273.131,150.561z M644.188,145.737l-0.866-0.495l2.479-4.343
						l0.872,0.499L644.188,145.737z M281.663,145.525l-2.482-4.34l0.871-0.497l2.474,4.345L281.663,145.525z M635.487,140.903
						l-0.874-0.469l2.357-4.409l0.892,0.479L635.487,140.903z M290.329,140.723l-2.367-4.404l0.886-0.474l2.353,4.412
						L290.329,140.723z M626.663,136.311l-0.89-0.446l2.236-4.472l0.901,0.452L626.663,136.311z M299.116,136.161l-2.242-4.469
						l0.894-0.448l2.236,4.473L299.116,136.161z M617.712,131.96l-0.902-0.422l2.113-4.532l0.914,0.428L617.712,131.96z
						 M308.023,131.84l-2.118-4.529l0.906-0.423l2.111,4.532L308.023,131.84z M608.643,127.854l-0.913-0.397l1.986-4.588
						l0.927,0.402L608.643,127.854z M317.041,127.765l-1.994-4.585l0.917-0.398l1.985,4.589L317.041,127.765z M599.459,123.997
						l-0.922-0.372l1.861-4.641l0.939,0.378L599.459,123.997z M326.165,123.938l-1.868-4.638l0.935-0.375l1.854,4.644
						L326.165,123.938z M590.174,120.393l-0.93-0.345l1.727-4.692l0.953,0.354L590.174,120.393z M335.425,120.349l-1.743-4.687
						l0.944-0.35l1.729,4.691L335.425,120.349z M580.79,117.045l-0.942-0.32l1.604-4.736l0.958,0.326L580.79,117.045z
						 M344.777,117.016l-1.612-4.733l0.955-0.324l1.597,4.738L344.777,117.016z M571.313,113.955l-0.948-0.294l1.471-4.778
						l0.97,0.301L571.313,113.955z M354.219,113.938l-1.486-4.774l0.965-0.299l1.466,4.78L354.219,113.938z M561.789,111.136
						l-0.954-0.267l1.34-4.817l0.972,0.272L561.789,111.136z M363.741,111.12l-1.355-4.812l0.974-0.272l1.333,4.819L363.741,111.12z
						 M552.197,108.58l-0.963-0.242l1.209-4.852l0.977,0.245L552.197,108.58z M373.336,108.566l-1.223-4.848l0.981-0.246l1.2,4.854
						L373.336,108.566z M542.538,106.288l-0.975-0.216l1.078-4.883l0.979,0.217L542.538,106.288z M382.995,106.275l-1.085-4.881
						l0.981-0.217l1.076,4.883L382.995,106.275z M532.815,104.26l-0.973-0.188l0.938-4.911l0.992,0.191L532.815,104.26z
						 M392.717,104.25l-0.952-4.908l0.99-0.19l0.937,4.911L392.717,104.25z M523.043,102.499l-0.979-0.162l0.805-4.935l0.995,0.164
						L523.043,102.499z M402.49,102.49l-0.821-4.932l0.998-0.164l0.798,4.936L402.49,102.49z M513.23,101.006l-0.988-0.136
						l0.674-4.954l0.994,0.136L513.23,101.006z M412.304,100.998l-0.682-4.953l0.995-0.136l0.673,4.954L412.304,100.998z
						 M503.37,99.778l-0.984-0.107l0.535-4.972l1.004,0.11L503.37,99.778z M422.159,99.773l-0.55-4.97l1.002-0.109l0.534,4.972
						L422.159,99.773z M493.49,98.82l-0.99-0.082l0.402-4.983l1.004,0.083L493.49,98.82z M432.044,98.815l-0.418-4.982l1.008-0.083
						l0.396,4.984L432.044,98.815z M483.581,98.129l-0.992-0.055l0.271-4.993l1.006,0.056L483.581,98.129z M441.948,98.125
						l-0.278-4.992l1.002-0.055l0.271,4.993L441.948,98.125z M473.658,97.705l-0.988-0.028l0.132-4.998l1.011,0.028L473.658,97.705z
						 M451.871,97.703l-0.147-4.998l1.004-0.028l0.132,4.998L451.871,97.703z M463.733,97.545l-0.993-0.001l-0.941,0.001l-0.016-5
						l0.957-0.001l1.007,0.001L463.733,97.545z"/>
				</g>
				<g id="Oval-1_2_" opacity="0.2794" enable-background="new    ">
					<path fill="#FBFBFB" d="M461.433,927.835l-0.065-5v-5l0.984-0.002l0.031,10L461.433,927.835z M455.31,927.796l-1.014-0.015
						l0.146-9.998l0.985,0.013L455.31,927.796z M468.454,927.783l-0.161-9.998l0.983-0.016l0.176,9.998L468.454,927.783z
						 M448.24,927.652l-1.014-0.028l0.293-9.996l0.985,0.028L448.24,927.652z M475.498,927.626l-0.294-9.996l0.98-0.029l0.324,9.994
						L475.498,927.626z M441.157,927.402l-0.999-0.044l0.439-9.99l0.999,0.044L441.157,927.402z M482.562,927.363l-0.439-9.99
						l0.984-0.045l0.469,9.988L482.562,927.363z M434.094,927.047l-0.999-0.059l0.586-9.982l0.998,0.059L434.094,927.047z
						 M489.626,926.996l-0.588-9.982l0.984-0.06l0.615,9.98L489.626,926.996z M427.035,926.587l-0.998-0.073l0.733-9.973
						l0.997,0.073L427.035,926.587z M496.696,926.521l-0.76-9.971l0.996-0.076l0.762,9.971L496.696,926.521z M419.986,926.02
						l-1.011-0.09l0.909-9.959l0.98,0.088L419.986,926.02z M503.745,925.939l-0.908-9.959l0.996-0.091l0.908,9.959L503.745,925.939z
						 M412.945,925.347l-1.009-0.105l1.056-9.943l0.979,0.102L412.945,925.347z M510.784,925.252l-1.053-9.944l0.992-0.104
						l1.057,9.943L510.784,925.252z M405.916,924.567l-1.008-0.121l1.202-9.928l0.978,0.117L405.916,924.567z M517.816,924.461
						l-1.205-9.928l0.98-0.119l1.229,9.924L517.816,924.461z M398.899,923.68l-1.006-0.136l1.349-9.908l0.976,0.132L398.899,923.68z
						 M524.829,923.56l-1.348-9.908l0.976-0.134l1.377,9.904L524.829,923.56z M391.895,922.688l-1.003-0.151l1.496-9.887
						l0.973,0.146L391.895,922.688z M531.829,922.554l-1.492-9.889l0.972-0.147l1.525,9.883L531.829,922.554z M384.894,921.588
						l-0.987-0.164l1.642-9.865l0.985,0.164L384.894,921.588z M538.819,921.441l-1.645-9.863l0.972-0.164l1.672,9.859
						L538.819,921.441z M377.923,920.383l-0.985-0.18l1.789-9.838l0.982,0.178L377.923,920.383z M545.784,920.223l-1.791-9.838
						l0.972-0.179l1.814,9.834L545.784,920.223z M370.972,919.07l-0.982-0.193l1.936-9.811l0.979,0.193L370.972,919.07z
						 M552.748,918.896l-1.967-9.805l0.983-0.197l1.961,9.807L552.748,918.896z M364.042,917.653l-0.994-0.212l2.11-9.775
						l0.962,0.206L364.042,917.653z M559.677,917.465l-2.113-9.773l0.977-0.211l2.113,9.773L559.677,917.465z M357.133,916.132
						l-0.99-0.228l2.256-9.742l0.959,0.22L357.133,916.132z M566.578,915.93l-2.252-9.742l0.97-0.226l2.26,9.742L566.578,915.93z
						 M350.247,914.503l-0.985-0.242l2.401-9.707l0.958,0.234L350.247,914.503z M573.462,914.289l-2.404-9.707l0.97-0.24
						l2.404,9.707L573.462,914.289z M343.388,912.771l-0.983-0.257l2.549-9.67l0.952,0.249L343.388,912.771z M580.317,912.543
						l-2.549-9.67l0.967-0.255l2.549,9.67L580.317,912.543z M336.556,910.933l-0.979-0.273l2.697-9.629l0.948,0.264L336.556,910.933
						z M587.15,910.692l-2.701-9.629l0.948-0.267l2.729,9.621L587.15,910.692z M329.753,908.991l-0.975-0.287l2.844-9.588
						l0.943,0.279L329.753,908.991z M593.948,908.736l-2.844-9.588l0.944-0.28l2.871,9.578L593.948,908.736z M322.971,906.942
						l-0.961-0.299l2.978-9.547l0.957,0.299L322.971,906.942z M600.718,906.678l-2.994-9.541l0.944-0.297l3.014,9.535
						L600.718,906.678z M316.202,904.784l-0.957-0.314l3.123-9.5l0.952,0.312L316.202,904.784z M607.454,904.516l-3.137-9.496
						l0.949-0.313l3.137,9.496L607.454,904.516z M309.465,902.521l-0.949-0.328l3.267-9.451l0.95,0.328L309.465,902.521z
						 M614.155,902.25l-3.275-9.447l0.939-0.327l3.285,9.445L614.155,902.25z M302.768,900.157l-0.946-0.344l3.415-9.398
						l0.941,0.342L302.768,900.157z M620.83,899.882l-3.434-9.393l0.944-0.344l3.424,9.395L620.83,899.882z M296.119,897.695
						l-0.954-0.362l3.562-9.344l0.923,0.351L296.119,897.695z M627.464,897.41l-3.582-9.336l0.938-0.359l3.572,9.34L627.464,897.41z
						 M289.498,895.127l-0.948-0.377l3.709-9.287l0.917,0.365L289.498,895.127z M634.04,894.847l-3.693-9.293l0.916-0.366
						l3.719,9.283L634.04,894.847z M282.917,892.458l-0.942-0.393l3.854-9.227l0.912,0.379L282.917,892.458z M640.571,892.187
						l-3.84-9.233l0.908-0.38l3.861,9.225L640.571,892.187z M276.38,889.688l-0.936-0.405l3.999-9.166l0.905,0.394L276.38,889.688z
						 M647.046,889.433l-3.961-9.182l0.891-0.388l4.006,9.162L647.046,889.433z M269.884,886.819l-0.914-0.413l4.118-9.113
						l0.914,0.413L269.884,886.819z M653.49,886.574l-4.105-9.119l0.884-0.4l4.152,9.098L653.49,886.574z M263.448,883.858
						l-0.922-0.434l4.267-9.045l0.893,0.42L263.448,883.858z M659.893,883.619l-4.248-9.053l0.89-0.42l4.271,9.043L659.893,883.619z
						 M257.045,880.792l-0.925-0.453l4.432-8.965l0.877,0.43L257.045,880.792z M666.243,880.567l-4.377-8.99l0.876-0.43l4.414,8.973
						L666.243,880.567z M250.69,877.629l-0.894-0.454l4.53-8.914l0.894,0.454L250.69,877.629z M672.563,877.415l-4.531-8.914
						l0.876-0.446l4.555,8.902L672.563,877.415z M244.4,874.377l-0.901-0.476l4.676-8.84l0.872,0.46L244.4,874.377z
						 M678.827,874.169l-4.67-8.842l0.874-0.463l4.684,8.836L678.827,874.169z M238.143,871.021l-0.89-0.488l4.819-8.762
						l0.868,0.475L238.143,871.021z M685.032,870.835l-4.787-8.779l0.856-0.471l4.822,8.762L685.032,870.835z M231.943,867.572
						l-0.872-0.495l4.939-8.695l0.872,0.495L231.943,867.572z M691.202,867.396l-4.936-8.697l0.855-0.486l4.959,8.684
						L691.202,867.396z M225.807,864.037l-0.878-0.517l5.087-8.609l0.85,0.499L225.807,864.037z M697.305,863.873l-5.049-8.631
						l0.842-0.496l5.084,8.611L697.305,863.873z M219.727,860.409l-0.87-0.528l5.205-8.539l0.842,0.513L219.727,860.409z
						 M703.372,860.247l-5.197-8.543l0.846-0.515l5.209,8.535L703.372,860.247z M213.69,856.682l-0.861-0.543l5.35-8.449
						l0.834,0.525L213.69,856.682z M709.373,856.538l-5.32-8.467l0.833-0.525l5.342,8.453L709.373,856.538z M207.72,852.868
						l-0.86-0.56l5.486-8.361l0.819,0.534L207.72,852.868z M715.323,852.732l-5.451-8.383l0.829-0.541l5.465,8.375L715.323,852.732z
						 M201.814,848.968l-0.844-0.567l5.587-8.293l0.817,0.55L201.814,848.968z M721.203,848.846l-5.561-8.312l0.805-0.541
						l5.607,8.279L721.203,848.846z M195.955,844.971l-0.826-0.573l5.708-8.211l0.819,0.569L195.955,844.971z M727.031,844.866
						l-5.676-8.234l0.793-0.551l5.729,8.197L727.031,844.866z M190.168,840.894l-0.827-0.593l5.847-8.113l0.8,0.575L190.168,840.894
						z M732.81,840.79l-5.814-8.135l0.794-0.57l5.848,8.111L732.81,840.79z M184.44,836.727l-0.813-0.604l5.965-8.025l0.795,0.588
						L184.44,836.727z M738.529,836.627l-5.953-8.035l0.795-0.59l5.967,8.025L738.529,836.627z M178.78,832.476l-0.813-0.623
						l6.1-7.924l0.777,0.594L178.78,832.476z M744.174,832.384l-6.07-7.947l0.786-0.601l6.084,7.936L744.174,832.384z
						 M173.185,828.141l-0.798-0.63l6.204-7.843l0.773,0.609L173.185,828.141z M749.756,828.056l-6.186-7.857l0.776-0.612
						l6.201,7.846L749.756,828.056z M167.654,823.72l-0.785-0.639l6.318-7.752l0.768,0.625L167.654,823.72z M755.273,823.644
						l-6.301-7.766l0.768-0.624l6.314,7.754L755.273,823.644z M162.195,819.218l-0.788-0.661l6.455-7.638l0.746,0.627
						L162.195,819.218z M760.723,819.147l-6.414-7.672l0.759-0.636l6.428,7.66L760.723,819.147z M156.801,814.633l-0.765-0.662
						l6.549-7.557l0.749,0.646L156.801,814.633z M766.112,814.564l-6.539-7.566l0.756-0.653l6.539,7.566L766.112,814.564z
						 M151.477,809.967l-0.758-0.676l6.673-7.448l0.735,0.655L151.477,809.967z M771.418,809.912l-6.635-7.482l0.731-0.652
						l6.664,7.457L771.418,809.912z M146.225,805.223l-0.743-0.684l6.779-7.352l0.729,0.67L146.225,805.223z M776.669,805.167
						l-6.756-7.373l0.728-0.668l6.771,7.357L776.669,805.167z M141.054,800.406l-0.737-0.698l6.886-7.252l0.714,0.677
						L141.054,800.406z M781.84,800.35l-6.863-7.273l0.711-0.673l6.893,7.244L781.84,800.35z M135.948,795.507l-0.729-0.713
						l7.005-7.137l0.7,0.684L135.948,795.507z M786.948,795.447l-6.982-7.158l0.707-0.691l6.998,7.145L786.948,795.447z
						 M130.919,790.531l-0.712-0.717l7.101-7.041l0.697,0.701L130.919,790.531z M791.964,790.48l-7.07-7.07l0.69-0.694l7.1,7.041
						L791.964,790.48z M125.968,785.484l-0.708-0.735l7.216-6.923l0.679,0.705L125.968,785.484z M796.922,785.426l-7.188-6.953
						l0.688-0.712l7.201,6.938L796.922,785.426z M121.091,780.36l-0.689-0.737l7.309-6.824l0.675,0.722L121.091,780.36z
						 M801.796,780.304l-7.287-6.848l0.669-0.716l7.315,6.818L801.796,780.304z M116.296,775.168l-0.682-0.752l7.414-6.711
						l0.661,0.729L116.296,775.168z M806.594,775.105l-7.387-6.741l0.658-0.725l7.414,6.711L806.594,775.105z M111.573,769.896
						l-0.664-0.754l7.512-6.602l0.656,0.746L111.573,769.896z M811.319,769.83l-7.496-6.617l0.647-0.736l7.523,6.588L811.319,769.83
						z M106.938,764.563l-0.658-0.771l7.619-6.477l0.639,0.748L106.938,764.563z M815.958,764.49l-7.592-6.508l0.636-0.745
						l7.619,6.477L815.958,764.49z M102.387,759.166l-0.65-0.785l7.714-6.365l0.624,0.754L102.387,759.166z M820.525,759.072
						l-7.699-6.381l0.631-0.762l7.713,6.364L820.525,759.072z M97.906,753.684l-0.628-0.784l7.806-6.25l0.622,0.774L97.906,753.684z
						 M825,753.593l-7.791-6.268l0.621-0.773l7.803,6.254L825,753.593z M93.518,748.148l-0.617-0.793l7.896-6.135l0.61,0.783
						L93.518,748.148z M829.391,748.053l-7.871-6.168l0.596-0.766l7.908,6.121L829.391,748.053z M89.215,742.548l-0.608-0.806
						l7.993-6.01l0.594,0.788L89.215,742.548z M833.707,742.433l-7.973-6.037l0.591-0.782l7.996,6.004L833.707,742.433z
						 M84.997,736.884l-0.596-0.815l8.08-5.891l0.582,0.796L84.997,736.884z M837.933,736.753l-8.059-5.92l0.578-0.791l8.084,5.887
						L837.933,736.753z M80.862,731.152l-0.58-0.819l8.166-5.771l0.573,0.81L80.862,731.152z M842.073,731.01l-8.145-5.801
						l0.566-0.8l8.168,5.768L842.073,731.01z M76.818,725.365l-0.568-0.828l8.25-5.652l0.561,0.818L76.818,725.365z
						 M846.125,725.206l-8.229-5.682l0.555-0.809l8.252,5.648L846.125,725.206z M72.864,719.521l-0.56-0.843l8.339-5.52l0.543,0.819
						L72.864,719.521z M850.098,719.328l-8.324-5.541l0.549-0.827l8.334,5.527L850.098,719.328z M68.997,713.615l-0.554-0.863
						l8.434-5.373l0.524,0.815L68.997,713.615z M853.974,713.402l-8.404-5.418l0.529-0.826l8.428,5.385L853.974,713.402z
						 M65.218,707.648l-0.534-0.859l8.503-5.264l0.519,0.836L65.218,707.648z M857.756,707.423l-8.475-5.309l0.514-0.826l8.504,5.26
						L857.756,707.423z M61.531,701.627l-0.516-0.861l8.577-5.141l0.51,0.85L61.531,701.627z M861.462,701.361l-8.572-5.148
						l0.516-0.858l8.572,5.148L861.462,701.361z M57.939,695.556l-0.507-0.874l8.658-5.004l0.493,0.851L57.939,695.556z
						 M865.062,695.269l-8.639-5.037l0.492-0.849l8.658,5.002L865.062,695.269z M54.436,689.427l-0.49-0.876l8.729-4.879
						l0.484,0.864L54.436,689.427z M868.575,689.109l-8.717-4.9l0.482-0.862l8.73,4.877L868.575,689.109z M51.031,683.253
						l-0.48-0.889l8.805-4.74l0.467,0.865L51.031,683.253z M871.996,682.896l-8.793-4.762l0.469-0.871l8.806,4.739L871.996,682.896z
						 M47.72,677.028l-0.467-0.896l8.873-4.613l0.454,0.872L47.72,677.028z M875.319,676.636l-8.861-4.635l0.45-0.865l8.885,4.588
						L875.319,676.636z M44.501,670.749l-0.453-0.902l8.944-4.473l0.441,0.879L44.501,670.749z M878.555,670.309l-8.943-4.473
						l0.448-0.896l8.943,4.473L878.555,670.309z M41.38,664.424l-0.439-0.909l9.014-4.33l0.427,0.886L41.38,664.424z
						 M881.683,663.954l-9.002-4.355l0.426-0.886l9.02,4.32L881.683,663.954z M38.357,658.058l-0.425-0.915l9.075-4.199l0.414,0.892
						L38.357,658.058z M884.72,657.539l-9.069-4.213l0.412-0.893l9.086,4.178L884.72,657.539z M35.429,651.644l-0.413-0.928
						l9.146-4.045l0.397,0.893L35.429,651.644z M887.657,651.078l-9.135-4.07l0.405-0.91l9.139,4.059L887.657,651.078z
						 M32.602,645.193l-0.399-0.934l9.203-3.912l0.384,0.898L32.602,645.193z M890.494,644.579l-9.191-3.939l0.389-0.91l9.201,3.914
						L890.494,644.579z M29.873,638.695l-0.384-0.938l9.258-3.779l0.375,0.913L29.873,638.695z M893.235,638.029l-9.252-3.795
						l0.374-0.916l9.262,3.77L893.235,638.029z M27.231,632.129l-0.368-0.938l9.312-3.646l0.363,0.926L27.231,632.129z
						 M895.875,631.436l-9.311-3.648l0.36-0.922l9.32,3.623L895.875,631.436z M24.692,625.528l-0.351-0.936l9.359-3.521l0.351,0.936
						L24.692,625.528z M898.416,624.8l-9.371-3.492l0.348-0.934l9.377,3.477L898.416,624.8z M22.252,618.884l-0.34-0.953l9.422-3.35
						l0.333,0.93L22.252,618.884z M900.852,618.13l-9.42-3.354l0.331-0.934l9.43,3.328L900.852,618.13z M19.915,612.209
						l-0.327-0.959l9.471-3.211l0.318,0.934L19.915,612.209z M903.187,611.421l-9.473-3.205l0.322-0.952l9.473,3.206
						L903.187,611.421z M17.679,605.493l-0.311-0.96l9.518-3.07l0.305,0.942L17.679,605.493z M905.419,604.674l-9.521-3.057
						l0.308-0.957l9.521,3.057L905.419,604.674z M15.548,598.748l-0.298-0.974l9.567-2.91l0.287,0.938L15.548,598.748z
						 M907.549,597.893l-9.568-2.908l0.295-0.966l9.565,2.916L907.549,597.893z M13.518,591.968l-0.281-0.969l9.607-2.776
						l0.276,0.95L13.518,591.968z M909.563,591.115l-9.605-2.781l0.272-0.948l9.613,2.756L909.563,591.115z M11.594,585.161
						l-0.268-0.978l9.649-2.625l0.26,0.95L11.594,585.161z M911.476,584.301l-9.648-2.631l0.26-0.955l9.652,2.611L911.476,584.301z
						 M9.774,578.325l-0.252-0.981l9.688-2.48l0.246,0.954L9.774,578.325z M913.282,577.463l-9.686-2.487l0.243-0.956l9.693,2.459
						L913.282,577.463z M8.056,571.452l-0.235-0.975l9.724-2.336l0.233,0.969L8.056,571.452z M914.984,570.596l-9.721-2.342
						l0.229-0.959l9.729,2.314L914.984,570.596z M6.446,564.564l-0.221-0.982l9.759-2.184l0.218,0.969L6.446,564.564z
						 M916.586,563.689l-9.764-2.164l0.218-0.979l9.762,2.17L916.586,563.689z M4.94,557.652l-0.206-0.985l9.79-2.037l0.203,0.972
						L4.94,557.652z M918.078,556.773l-9.795-2.018l0.203-0.982l9.793,2.023L918.078,556.773z M3.541,550.718l-0.191-0.988
						l9.819-1.891l0.188,0.975L3.541,550.718z M919.464,549.837l-9.824-1.871l0.188-0.985l9.822,1.877L919.464,549.837z
						 M2.247,543.764l-0.177-0.999l9.85-1.729l0.171,0.971L2.247,543.764z M920.744,542.88l-9.85-1.725l0.17-0.974l9.854,1.701
						L920.744,542.88z M1.058,536.782l-0.16-0.994l9.874-1.582l0.158,0.98L1.058,536.782z M921.918,535.905l-9.875-1.578
						l0.155-0.976l9.879,1.553L921.918,535.905z M-0.022,529.792l-0.144-0.987l9.894-1.453l0.145,0.991L-0.022,529.792z
						 M922.986,528.914l-9.896-1.436l0.141-0.976l9.9,1.406L922.986,528.914z M-0.997,522.788l-0.131-1l9.917-1.287l0.128,0.982
						L-0.997,522.788z M923.948,521.907l-9.916-1.291l0.125-0.976l9.92,1.258L923.948,521.907z M-1.866,515.769l-0.116-1.008
						l9.937-1.129l0.112,0.979L-1.866,515.769z M924.803,514.885l-9.936-1.14l0.111-0.981l9.938,1.113L924.803,514.885z
						 M-2.63,508.729l-0.1-1.001l9.951-0.983l0.099,0.989L-2.63,508.729z M925.55,507.854l-9.949-0.998l0.096-0.979l9.953,0.967
						L925.55,507.854z M-3.285,501.688l-0.084-1.003l9.965-0.836l0.083,0.989L-3.285,501.688z M926.196,500.795l-9.967-0.818
						l0.082-0.998l9.967,0.82L926.196,500.795z M-3.835,494.638l-0.07-1.006l9.977-0.688l0.069,0.989L-3.835,494.638z
						 M926.731,493.743l-9.977-0.676l0.067-0.997l9.977,0.674L926.731,493.743z M-4.278,487.578l-0.055-1.012l9.986-0.529
						l0.053,0.984L-4.278,487.578z M927.162,486.684l-9.986-0.527l0.051-0.984l9.988,0.498L927.162,486.684z M-4.616,480.506
						l-0.04-1.002l9.993-0.383l0.039,0.988L-4.616,480.506z M927.488,479.581l-9.994-0.343l0.036-0.986l9.994,0.352L927.488,479.581
						z M-4.847,473.458l-0.024-1.005l9.997-0.234l0.024,0.989L-4.847,473.458z M927.704,472.526l-9.998-0.211l0.022-0.985
						l9.998,0.205L927.704,472.526z M-4.974,466.395l-0.009-1.006l10-0.088l0.01,0.991L-4.974,466.395z M927.817,465.47l-10-0.079
						l0.008-0.985l10,0.059L927.817,465.47z M5.005,459.367l-10-0.044l0.005-1.007l10,0.059L5.005,459.367z M917.826,458.463
						l-0.008-0.985l10-0.088l0.008,1.014L917.826,458.463z M5.086,452.442l-9.998-0.19l0.02-1.007l9.998,0.205L5.086,452.442z
						 M917.73,451.544l-0.022-0.983l9.998-0.234l0.022,1.012L917.73,451.544z M5.272,445.519l-9.994-0.337l0.036-1.014l9.993,0.366
						L5.272,445.519z M917.532,444.64l-0.036-0.98l9.992-0.383l0.038,1.011L917.532,444.64z M5.56,438.606l-9.987-0.498l0.05-1.006
						l9.987,0.514L5.56,438.606z M917.23,437.724l-0.051-0.984l9.986-0.527l0.053,1.014L917.23,437.724z M5.953,431.691
						l-9.979-0.644l0.065-0.999l9.979,0.645L5.953,431.691z M916.826,430.824l-0.067-0.998l9.977-0.674l0.067,0.999L916.826,430.824
						z M6.449,424.783l-9.969-0.791l0.081-1.005l9.967,0.808L6.449,424.783z M916.316,423.917l-0.082-0.996l9.967-0.821l0.082,0.998
						L916.316,423.917z M7.049,417.884l-9.956-0.938l0.097-1.01l9.953,0.968L7.049,417.884z M915.704,417.019l-0.097-0.98
						l9.95-0.996l0.1,1.01L915.704,417.019z M7.753,411.001l-9.939-1.098l0.111-1.002l9.938,1.115L7.753,411.001z M914.985,410.13
						l-0.11-0.979l9.934-1.143l0.114,1.009L914.985,410.13z M8.561,404.124l-9.922-1.246l0.125-0.992l9.922,1.246L8.561,404.124z
						 M914.164,403.254l-0.125-0.977l9.916-1.289l0.129,1.008L914.164,403.254z M9.473,397.259l-9.902-1.392l0.141-0.998l9.9,1.408
						L9.473,397.259z M913.239,396.391l-0.141-0.975l9.896-1.437l0.145,1.005L913.239,396.391z M10.49,390.409l-9.881-1.537
						l0.158-1.003l9.876,1.568L10.49,390.409z M912.207,389.542l-0.155-0.973l9.875-1.582l0.159,1.003L912.207,389.542z
						 M11.61,383.582l-9.854-1.698l0.172-0.994l9.852,1.715L11.61,383.582z M911.073,382.71l-0.169-0.969l9.85-1.729l0.175,1.002
						L911.073,382.71z M12.834,376.767l-9.828-1.846l0.187-0.991l9.825,1.862L12.834,376.767z M909.84,375.913l-0.188-0.981
						l9.822-1.876l0.188,0.984L909.84,375.913z M14.162,369.971l-9.8-1.992l0.202-0.988L14.361,369L14.162,369.971z
						 M908.499,369.119l-0.202-0.978l9.793-2.023l0.202,0.981L908.499,369.119z M15.594,363.196l-9.769-2.139l0.219-0.992
						l9.762,2.169L15.594,363.196z M907.053,362.347l-0.217-0.975l9.762-2.169l0.217,0.978L907.053,362.347z M17.129,356.444
						l-9.735-2.284l0.233-0.989l9.729,2.315L17.129,356.444z M905.506,355.599l-0.229-0.959l9.723-2.343l0.235,0.987
						L905.506,355.599z M18.765,349.724l-9.696-2.446l0.248-0.978l9.691,2.463L18.765,349.724z M903.855,348.875l-0.243-0.954
						l9.686-2.491l0.251,0.985L903.855,348.875z M20.504,343.024l-9.657-2.594l0.261-0.972l9.654,2.607L20.504,343.024z
						 M902.103,342.177l-0.258-0.949l9.646-2.639l0.266,0.98L902.103,342.177z M22.347,336.348l-9.618-2.737l0.277-0.97l9.613,2.755
						L22.347,336.348z M900.248,335.508l-0.272-0.947l9.605-2.782l0.28,0.975L900.248,335.508z M24.291,329.705l-9.574-2.886
						l0.293-0.971l9.569,2.903L24.291,329.705z M898.289,328.865l-0.286-0.941l9.562-2.929l0.295,0.973L898.289,328.865z
						 M26.345,323.061l-9.529-3.031l0.308-0.966l9.524,3.048L26.345,323.061z M896.234,322.257l-0.302-0.939l9.516-3.074l0.31,0.965
						L896.234,322.257z M28.501,316.454l-9.481-3.18l0.322-0.959l9.477,3.193L28.501,316.454z M894.074,315.68l-0.315-0.935
						l9.467-3.22l0.325,0.961L894.074,315.68z M30.758,309.879l-9.432-3.323l0.338-0.956l9.425,3.341L30.758,309.879z
						 M891.815,309.136l-0.33-0.927l9.416-3.368l0.34,0.958L891.815,309.136z M33.116,303.336l-9.383-3.458l0.354-0.957l9.372,3.489
						L33.116,303.336z M889.455,302.629l-0.348-0.935l9.371-3.49l0.35,0.939L889.455,302.629z M35.572,296.839l-9.327-3.605
						l0.368-0.949l9.317,3.631L35.572,296.839z M886.999,296.16l-0.363-0.932l9.316-3.633l0.363,0.932L886.999,296.16z
						 M38.127,290.381l-9.27-3.752l0.38-0.936l9.265,3.764L38.127,290.381z M884.438,289.713l-0.371-0.911l9.258-3.779l0.383,0.941
						L884.438,289.713z M40.779,283.964l-9.209-3.896l0.395-0.933l9.202,3.914L40.779,283.964z M881.797,283.354l-0.389-0.914
						l9.201-3.916l0.391,0.918L881.797,283.354z M43.532,277.585l-9.152-4.029l0.409-0.926l9.145,4.047L43.532,277.585z
						 M879.052,277.017l-0.396-0.895l9.139-4.062l0.41,0.925L879.052,277.017z M46.378,271.257l-9.086-4.178l0.422-0.917l9.08,4.189
						L46.378,271.257z M876.217,270.737l-0.411-0.892l9.072-4.206l0.423,0.916L876.217,270.737z M49.323,264.965l-9.024-4.308
						l0.438-0.913l9.016,4.325L49.323,264.965z M873.288,264.497l-0.425-0.882l9.002-4.354l0.439,0.913L873.288,264.497z
						 M52.363,258.724l-8.959-4.442l0.454-0.913l8.944,4.472L52.363,258.724z M870.261,258.301l-0.443-0.889l8.943-4.472
						l0.447,0.894L870.261,258.301z M55.494,252.537l-8.885-4.589l0.463-0.896l8.879,4.6L55.494,252.537z M867.136,252.141
						l-0.452-0.874l8.873-4.612l0.464,0.896L867.136,252.141z M58.721,246.393l-8.815-4.722l0.48-0.895l8.803,4.744L58.721,246.393z
						 M863.923,246.04l-0.472-0.878l8.809-4.734l0.472,0.877L863.923,246.04z M62.042,240.3l-8.743-4.854l0.49-0.882l8.737,4.865
						L62.042,240.3z M860.612,239.972l-0.478-0.856l8.729-4.879l0.493,0.885L860.612,239.972z M65.453,234.26l-8.669-4.985
						l0.505-0.876l8.659,5.002L65.453,234.26z M857.213,233.969l-0.496-0.86l8.66-4.999l0.5,0.866L857.213,233.969z M68.956,228.273
						l-8.593-5.115l0.522-0.874l8.576,5.143L68.956,228.273z M853.72,228.005l-0.504-0.842l8.578-5.141l0.52,0.87L853.72,228.005z
						 M72.548,222.343l-8.511-5.25l0.529-0.858l8.505,5.261L72.548,222.343z M850.142,222.109l-0.524-0.848l8.506-5.259l0.524,0.848
						L850.142,222.109z M76.234,216.461l-8.438-5.367l0.548-0.858l8.42,5.395L76.234,216.461z M846.467,216.252l-0.528-0.826
						l8.414-5.404l0.546,0.854L846.467,216.252z M80.002,210.646l-8.352-5.5l0.555-0.841l8.345,5.51L80.002,210.646z
						 M842.706,210.454l-0.543-0.822l8.338-5.52l0.557,0.842L842.706,210.454z M83.858,204.888l-8.264-5.631l0.57-0.836l8.252,5.648
						L83.858,204.888z M838.861,204.72l-0.56-0.82l8.256-5.642l0.565,0.827L838.861,204.72z M87.804,199.186l-8.181-5.751
						l0.583-0.827l8.169,5.768L87.804,199.186z M834.927,199.037l-0.565-0.802l8.158-5.782l0.585,0.828L834.927,199.037z
						 M91.835,193.545l-8.096-5.87l0.598-0.823l8.077,5.896L91.835,193.545z M830.905,193.413l-0.579-0.794l8.074-5.9l0.597,0.819
						L830.905,193.413z M95.947,187.971l-8.002-5.998l0.607-0.808l7.989,6.014L95.947,187.971z M826.796,187.85l-0.59-0.785
						l7.986-6.019l0.609,0.811L826.796,187.85z M100.142,182.459l-7.907-6.121l0.62-0.8l7.894,6.14L100.142,182.459z
						 M822.61,182.351l-0.604-0.779l7.896-6.136l0.618,0.798L822.61,182.351z M104.424,177.009l-7.817-6.236l0.628-0.786
						l7.811,6.245L104.424,177.009z M818.34,176.918l-0.622-0.776l7.807-6.25l0.627,0.784L818.34,176.918z M108.782,171.628
						l-7.719-6.357l0.644-0.781l7.705,6.375L108.782,171.628z M813.986,171.547l-0.633-0.767l7.707-6.371l0.639,0.773
						L813.986,171.547z M113.226,166.311l-7.625-6.47l0.654-0.77l7.612,6.485L113.226,166.311z M809.549,166.239l-0.645-0.757
						l7.613-6.483l0.65,0.764L809.549,166.239z M117.745,161.065l-7.524-6.587l0.664-0.757l7.517,6.596L117.745,161.065z
						 M805.027,160.992l-0.648-0.739l7.512-6.602l0.668,0.763L805.027,160.992z M122.345,155.885l-7.428-6.695l0.677-0.75
						l7.414,6.711L122.345,155.885z M800.433,155.822l-0.66-0.729l7.408-6.718l0.68,0.752L800.433,155.822z M127.019,150.779
						l-7.323-6.81l0.692-0.743l7.302,6.833L127.019,150.779z M795.751,150.709l-0.663-0.712l7.309-6.825l0.698,0.751
						L795.751,150.709z M131.772,145.741l-7.224-6.916l0.7-0.729l7.209,6.931L131.772,145.741z M791.01,145.687l-0.682-0.709
						l7.201-6.938l0.703,0.732L791.01,145.687z M136.6,140.776l-7.122-7.02l0.718-0.725l7.093,7.049L136.6,140.776z
						 M786.186,140.728l-0.695-0.703l7.1-7.042l0.711,0.718L786.186,140.728z M141.495,135.893l-7.005-7.137l0.721-0.707l6.99,7.151
						L141.495,135.893z M781.28,135.833l-0.699-0.686l6.99-7.151l0.729,0.715L781.28,135.833z M146.469,131.076l-6.9-7.237
						l0.731-0.696l6.886,7.252L146.469,131.076z M776.307,131.021l-0.71-0.675l6.879-7.259l0.739,0.704L776.307,131.021z
						 M151.511,126.339l-6.787-7.344l0.742-0.685l6.771,7.358L151.511,126.339z M771.257,126.279l-0.719-0.664l6.771-7.358
						l0.75,0.692L771.257,126.279z M156.628,121.677l-6.68-7.441l0.752-0.674l6.664,7.456L156.628,121.677z M766.141,121.617
						l-0.729-0.654l6.656-7.462l0.761,0.681L766.141,121.617z M161.812,117.092l-6.57-7.539l0.762-0.662l6.555,7.552
						L161.812,117.092z M760.949,117.029l-0.739-0.643l6.547-7.559l0.771,0.67L760.949,117.029z M167.061,112.59l-6.452-7.64
						l0.771-0.65l6.437,7.653L167.061,112.59z M755.697,112.525l-0.756-0.637l6.436-7.653l0.773,0.652L755.697,112.525z
						 M172.38,108.165l-6.34-7.733l0.781-0.639l6.323,7.747L172.38,108.165z M750.368,108.096l-0.763-0.624l6.318-7.751l0.786,0.643
						L750.368,108.096z M177.761,103.825l-6.219-7.832l0.787-0.624l6.209,7.839L177.761,103.825z M744.974,103.746l-0.772-0.612
						l6.204-7.843l0.795,0.631L744.974,103.746z M183.209,99.563l-6.103-7.922l0.804-0.618l6.077,7.941L183.209,99.563z
						 M739.512,99.478l-0.777-0.597l6.08-7.939l0.809,0.622L739.512,99.478z M188.72,95.386l-5.986-8.011l0.81-0.603l5.967,8.024
						L188.72,95.386z M733.995,95.297l-0.794-0.59l5.963-8.028l0.812,0.605L733.995,95.297z M194.289,91.295l-5.858-8.104
						l0.814-0.587l5.849,8.111L194.289,91.295z M728.411,91.199l-0.807-0.582l5.844-8.114l0.816,0.589L728.411,91.199z
						 M199.922,87.287l-5.738-8.189l0.831-0.581l5.712,8.208L199.922,87.287z M722.759,87.181l-0.815-0.57l5.725-8.199l0.825,0.577
						L722.759,87.181z M205.609,83.368l-5.607-8.279l0.831-0.562l5.598,8.286L205.609,83.368z M717.053,83.252l-0.824-0.557
						l5.594-8.289l0.834,0.564L717.053,83.252z M211.363,79.53l-5.493-8.356l0.848-0.555l5.466,8.374L211.363,79.53z
						 M711.282,79.407l-0.833-0.545l5.473-8.37l0.843,0.551L711.282,79.407z M217.165,75.786l-5.359-8.442l0.852-0.539l5.342,8.453
						L217.165,75.786z M705.445,75.645l-0.829-0.525l5.34-8.455l0.862,0.546L705.445,75.645z M223.025,72.128l-5.231-8.522
						l0.859-0.526l5.214,8.533L223.025,72.128z M699.57,71.981l-0.843-0.515l5.205-8.539l0.866,0.53L699.57,71.981z M228.938,68.561
						l-5.102-8.601l0.867-0.513l5.084,8.611L228.938,68.561z M693.625,68.401l-0.846-0.5l5.07-8.62l0.879,0.52L693.625,68.401z
						 M234.904,65.083l-4.971-8.677l0.874-0.5l4.953,8.687L234.904,65.083z M687.633,64.914l-0.859-0.49l4.945-8.691l0.882,0.503
						L687.633,64.914z M240.921,61.698l-4.839-8.751l0.887-0.489l4.811,8.768L240.921,61.698z M681.581,61.514l-0.861-0.474
						l4.809-8.769l0.895,0.493L681.581,61.514z M246.987,58.404l-4.706-8.823l0.889-0.473l4.688,8.833L246.987,58.404z
						 M675.489,58.212l-0.879-0.467l4.682-8.836l0.891,0.473L675.489,58.212z M253.101,55.203l-4.572-8.894l0.901-0.462l4.543,8.909
						L253.101,55.203z M669.333,54.999l-0.881-0.45l4.543-8.909l0.904,0.463L669.333,54.999z M259.265,52.094l-4.442-8.959
						l0.908-0.448l4.413,8.974L259.265,52.094z M663.137,51.881l-0.894-0.44l4.414-8.974l0.905,0.446L663.137,51.881z
						 M265.466,49.085l-4.295-9.031l0.905-0.43l4.283,9.036L265.466,49.085z M656.886,48.855l-0.89-0.421l4.262-9.047l0.924,0.438
						L656.886,48.855z M271.719,46.166l-4.164-9.092l0.921-0.42l4.134,9.105L271.719,46.166z M650.592,45.927l-0.901-0.41
						l4.131-9.107l0.925,0.42L650.592,45.927z M278.008,43.345l-4.019-9.157l0.92-0.403l4.001,9.165L278.008,43.345z
						 M644.249,43.092l-0.901-0.394l3.986-9.171l0.937,0.409L644.249,43.092z M284.344,40.619l-3.886-9.214l0.933-0.392l3.855,9.227
						L284.344,40.619z M637.868,40.358l-0.914-0.382l3.854-9.228l0.937,0.392L637.868,40.358z M290.712,37.992l-3.736-9.275
						l0.937-0.377l3.719,9.283L290.712,37.992z M631.451,37.723l-0.926-0.371l3.709-9.287l0.938,0.375L631.451,37.723z
						 M297.156,35.45l-3.603-9.329l0.949-0.365l3.572,9.34L297.156,35.45z M624.981,35.181l-0.925-0.354l3.562-9.344l0.95,0.364
						L624.981,35.181z M303.631,33.008l-3.455-9.384l0.945-0.347l3.442,9.389L303.631,33.008z M618.478,32.74l-0.93-0.34
						l3.415-9.398l0.956,0.349L618.478,32.74z M310.145,30.664l-3.312-9.436l0.953-0.333l3.294,9.442L310.145,30.664z M611.936,30.4
						l-0.942-0.328l3.279-9.447l0.956,0.333L611.936,30.4z M316.695,28.42l-3.167-9.485l0.958-0.319l3.149,9.491L316.695,28.42z
						 M605.353,28.158l-0.942-0.312l3.131-9.497l0.966,0.319L605.353,28.158z M323.275,26.277l-3.017-9.534l0.96-0.303l3.004,9.538
						L323.275,26.277z M598.744,26.02l-0.956-0.3l2.99-9.542l0.962,0.301L598.744,26.02z M329.89,24.235l-2.871-9.579l0.965-0.289
						l2.857,9.583L329.89,24.235z M592.122,23.989l-0.956-0.284l2.844-9.587l0.962,0.285L592.122,23.989z M336.534,22.293
						l-2.724-9.622l0.969-0.274l2.71,9.626L336.534,22.293z M585.466,22.058l-0.952-0.267l2.693-9.631l0.974,0.273L585.466,22.058z
						 M343.211,20.454l-2.58-9.661l0.975-0.26l2.563,9.666L343.211,20.454z M578.795,20.233l-0.964-0.254l2.549-9.67l0.972,0.256
						L578.795,20.233z M349.912,18.716l-2.433-9.699l0.979-0.245l2.415,9.704L349.912,18.716z M572.087,18.509l-0.967-0.24
						l2.404-9.707l0.975,0.242L572.087,18.509z M356.641,17.082l-2.287-9.735l0.982-0.229l2.27,9.739L356.641,17.082z
						 M565.353,16.885l-0.957-0.222l2.238-9.746l0.992,0.229L565.353,16.885z M363.392,15.551l-2.139-9.769l0.984-0.214l2.124,9.771
						L363.392,15.551z M558.596,15.367l-0.961-0.208l2.094-9.778l0.994,0.214L558.596,15.367z M370.167,14.122l-1.992-9.8
						l0.996-0.201l1.961,9.806L370.167,14.122z M551.825,13.952l-0.971-0.194l1.947-9.809l0.99,0.198L551.825,13.952z
						 M376.964,12.797l-1.846-9.828l0.999-0.186l1.814,9.834L376.964,12.797z M545.037,12.642l-0.984-0.181l1.801-9.837l0.984,0.181
						L545.037,12.642z M383.772,11.577l-1.685-9.857l0.993-0.169l1.67,9.859L383.772,11.577z M538.209,11.432l-0.978-0.165
						l1.654-9.862l0.995,0.167L538.209,11.432z M390.607,10.458l-1.537-9.881l0.996-0.154l1.522,9.883L390.607,10.458z
						 M531.376,10.327l-0.975-0.149l1.492-9.888l1.004,0.153L531.376,10.327z M397.458,9.445l-1.392-9.902l1.006-0.14l1.361,9.907
						L397.458,9.445z M524.53,9.328l-0.985-0.135l1.348-9.909l0.997,0.136L524.53,9.328z M404.323,8.535l-1.246-9.922l1.008-0.125
						l1.215,9.926L404.323,8.535z M517.669,8.432l-0.993-0.121l1.201-9.928l0.993,0.121L517.669,8.432z M411.193,7.731L410.11-2.21
						l1.001-0.108l1.069,9.942L411.193,7.731z M510.782,7.638l-0.987-0.105l1.053-9.944l1.003,0.107L510.782,7.638z M418.084,7.03
						l-0.938-9.956l1.003-0.093l0.923,9.957L418.084,7.03z M503.891,6.95l-0.982-0.089l0.894-9.96l1.011,0.092L503.891,6.95z
						 M424.983,6.433l-0.792-9.969l1.012-0.079l0.762,9.971L424.983,6.433z M496.997,6.366l-0.991-0.075l0.748-9.972l1.003,0.076
						L496.997,6.366z M431.885,5.939l-0.63-9.98l1.006-0.063l0.614,9.981L431.885,5.939z M490.087,5.885l-0.989-0.06l0.6-9.982
						l1.007,0.061L490.087,5.885z M438.799,5.55l-0.483-9.988l1.006-0.048l0.469,9.989L438.799,5.55z M483.172,5.509l-0.991-0.046
						l0.453-9.989l1.007,0.046L483.172,5.509z M445.719,5.264l-0.338-9.994l1.003-0.033l0.323,9.995L445.719,5.264z M476.252,5.236
						l-0.985-0.03l0.293-9.996l1.015,0.031L476.252,5.236z M452.627,5.083l-0.19-9.998l1.005-0.018l0.176,9.998L452.627,5.083z
						 M469.336,5.067l-0.993-0.016l0.146-9.999l0.976,0.015L469.336,5.067z M459.548,5.003l-0.044-10L460.519-5l0.015,10
						L459.548,5.003z M462.409,5.001L461.417,5V-5l1.008,0.001L462.409,5.001z"/>
				</g>
			</g>
			<g id="Group-9-Copy" transform="translate(403.000000, 402.000000)">
				<g id="Oval-3-Copy-4">
					<path fill="#5A616D" d="M59,133.5c-0.345,0-0.688-0.003-1.031-0.008l0.452-30.996L59,102.5c0.243,0,0.485-0.002,0.728-0.007
						l0.545,30.996C59.849,133.496,59.425,133.5,59,133.5z M56.698,133.466c-0.41-0.014-0.819-0.029-1.228-0.048l1.455-30.966
						c0.256,0.012,0.513,0.021,0.771,0.029L56.698,133.466z M61.497,133.459l-0.996-30.984c0.227-0.007,0.452-0.017,0.678-0.028
						l1.639,30.957C62.379,133.427,61.939,133.444,61.497,133.459z M54.203,133.349c-0.411-0.026-0.821-0.057-1.23-0.089
						l2.458-30.902c0.254,0.021,0.509,0.039,0.765,0.056L54.203,133.349z M64.04,133.331l-2.086-30.93l0.813-0.061l2.453,30.902
						C64.828,133.274,64.435,133.305,64.04,133.331z M51.709,133.147c-0.424-0.041-0.848-0.086-1.271-0.135l3.548-30.797
						c0.239,0.027,0.478,0.053,0.718,0.076L51.709,133.147z M66.531,133.123l-3.084-30.846c0.24-0.024,0.48-0.051,0.72-0.079
						l3.633,30.787C67.377,133.035,66.955,133.081,66.531,133.123z M49.132,132.852c-0.393-0.053-0.786-0.107-1.177-0.166
						l4.55-30.664l0.802,0.113L49.132,132.852z M69.059,132.825l-4.168-30.719c0.265-0.036,0.529-0.074,0.792-0.113l4.562,30.662
						C69.852,132.714,69.456,132.771,69.059,132.825z M46.705,132.488c-0.424-0.07-0.847-0.145-1.269-0.223l5.642-30.482
						c0.233,0.043,0.466,0.084,0.701,0.123L46.705,132.488z M71.537,132.447l-5.17-30.566c0.235-0.04,0.471-0.081,0.705-0.126
						l5.729,30.467C72.381,132.3,71.96,132.376,71.537,132.447z M44.193,132.025c-0.406-0.083-0.811-0.168-1.214-0.256l6.638-30.281
						c0.247,0.055,0.495,0.106,0.743,0.156L44.193,132.025z M74.044,131.978l-6.254-30.363c0.245-0.05,0.489-0.102,0.732-0.156
						l6.744,30.258C74.862,131.806,74.453,131.893,74.044,131.978z M41.74,131.486c-0.403-0.096-0.805-0.195-1.206-0.297
						l7.636-30.045c0.245,0.062,0.49,0.123,0.736,0.182L41.74,131.486z M76.5,131.429l-7.262-30.137
						c0.249-0.061,0.498-0.123,0.746-0.187l7.711,30.025C77.297,131.233,76.9,131.333,76.5,131.429z M39.301,130.863
						c-0.416-0.113-0.831-0.231-1.244-0.353l8.732-29.744c0.226,0.066,0.452,0.13,0.68,0.192L39.301,130.863z M78.937,130.799
						l-8.264-29.879c0.233-0.064,0.466-0.131,0.698-0.199l8.791,29.727C79.754,130.568,79.346,130.686,78.937,130.799z
						 M36.879,130.156c-0.41-0.127-0.818-0.258-1.226-0.393l9.722-29.436c0.225,0.074,0.452,0.146,0.678,0.217L36.879,130.156z
						 M81.379,130.076l-9.312-29.568c0.241-0.076,0.482-0.154,0.724-0.234l9.775,29.418
						C82.172,129.822,81.777,129.951,81.379,130.076z M34.482,129.367c-0.408-0.142-0.814-0.287-1.219-0.437l10.726-29.086
						c0.22,0.081,0.441,0.16,0.664,0.237L34.482,129.367z M83.785,129.273l-10.318-29.232c0.239-0.084,0.478-0.171,0.715-0.259
						l10.775,29.066C84.568,128.993,84.177,129.135,83.785,129.273z M32.106,128.493c-0.403-0.155-0.804-0.314-1.204-0.478
						l11.717-28.701c0.217,0.089,0.436,0.176,0.655,0.261L32.106,128.493z M86.162,128.389L74.852,99.525
						c0.23-0.09,0.461-0.183,0.688-0.276l11.795,28.668C86.946,128.077,86.555,128.234,86.162,128.389z M29.78,127.546
						c-0.399-0.17-0.797-0.344-1.193-0.521l12.684-28.287c0.21,0.095,0.42,0.187,0.632,0.276L29.78,127.546z M88.522,127.417
						L76.201,98.97c0.231-0.101,0.463-0.202,0.694-0.307l12.766,28.25C89.283,127.084,88.904,127.252,88.522,127.417z
						 M27.458,126.509c-0.378-0.177-0.754-0.356-1.129-0.539l13.589-27.863c0.222,0.108,0.445,0.216,0.669,0.32L27.458,126.509z
						 M90.812,126.382L77.568,98.353c0.217-0.102,0.432-0.206,0.646-0.312l13.756,27.781
						C91.584,126.012,91.198,126.198,90.812,126.382z M25.174,125.392c-0.372-0.189-0.742-0.382-1.11-0.578L38.633,97.45
						c0.219,0.116,0.438,0.23,0.659,0.344L25.174,125.392z M93.098,125.252L78.873,97.709c0.219-0.113,0.437-0.228,0.653-0.344
						l14.691,27.297C93.847,124.862,93.473,125.059,93.098,125.252z M22.954,124.211c-0.365-0.202-0.728-0.407-1.09-0.615
						l15.479-26.859c0.214,0.124,0.43,0.245,0.646,0.365L22.954,124.211z M95.31,124.065L80.193,97.001
						c0.209-0.116,0.416-0.234,0.621-0.354l15.615,26.781C96.058,123.644,95.685,123.855,95.31,124.065z M20.785,122.963
						c-0.365-0.218-0.728-0.438-1.088-0.664l16.389-26.312c0.204,0.126,0.409,0.251,0.615,0.375L20.785,122.963z M97.497,122.793
						L81.468,96.258c0.204-0.123,0.406-0.247,0.607-0.374l16.52,26.232C98.232,122.345,97.865,122.57,97.497,122.793z
						 M18.64,121.629c-0.347-0.225-0.691-0.45-1.034-0.68L34.823,95.17c0.21,0.141,0.421,0.279,0.634,0.416L18.64,121.629z
						 M99.661,121.434L82.697,95.488c0.216-0.142,0.432-0.284,0.646-0.429l17.342,25.695
						C100.345,120.983,100.004,121.21,99.661,121.434z M16.563,120.237c-0.349-0.241-0.697-0.487-1.042-0.736l18.108-25.16
						c0.195,0.14,0.391,0.278,0.589,0.416L16.563,120.237z M101.726,120.037L83.948,94.641c0.194-0.136,0.387-0.273,0.578-0.413
						l18.25,25.059C102.429,119.539,102.078,119.79,101.726,120.037z M14.502,118.756c-0.335-0.25-0.668-0.503-0.999-0.758
						l18.94-24.541c0.196,0.151,0.394,0.301,0.592,0.449L14.502,118.756z M103.765,118.557L85.15,93.768
						c0.197-0.147,0.392-0.298,0.587-0.449l19.031,24.471C104.436,118.048,104.101,118.304,103.765,118.557z M12.511,117.217
						c-0.327-0.261-0.651-0.524-0.974-0.791L31.29,92.533c0.19,0.157,0.383,0.313,0.576,0.469L12.511,117.217z M105.777,116.985
						L86.29,92.876c0.186-0.15,0.37-0.302,0.553-0.455l19.926,23.748C106.442,116.443,106.111,116.716,105.777,116.985z
						 M10.573,115.615c-0.318-0.272-0.634-0.548-0.947-0.824L30.165,91.57c0.186,0.165,0.372,0.327,0.561,0.488L10.573,115.615z
						 M107.705,115.375L87.434,91.922c0.187-0.161,0.371-0.323,0.556-0.488l20.662,23.109
						C108.338,114.823,108.023,115.101,107.705,115.375z M8.693,113.95c-0.317-0.29-0.631-0.584-0.943-0.88l21.346-22.48
						c0.171,0.163,0.344,0.324,0.519,0.483L8.693,113.95z M109.58,113.698L88.539,90.933c0.183-0.168,0.363-0.339,0.542-0.51
						l21.414,22.416C110.194,113.127,109.888,113.414,109.58,113.698z M6.856,112.211c-0.303-0.297-0.604-0.597-0.901-0.898
						l22.079-21.761c0.17,0.172,0.341,0.343,0.515,0.513L6.856,112.211z M111.42,111.938L89.59,89.927
						c0.184-0.182,0.365-0.364,0.546-0.549l22.146,21.691C111.996,111.361,111.709,111.651,111.42,111.938z M5.081,110.41
						c-0.289-0.304-0.576-0.609-0.86-0.917l22.788-21.018c0.168,0.183,0.337,0.363,0.508,0.542L5.081,110.41z M113.175,110.141
						L90.628,88.865c0.177-0.188,0.354-0.377,0.528-0.568l22.852,20.947C113.733,109.545,113.455,109.844,113.175,110.141z
						 M3.386,108.571c-0.285-0.319-0.568-0.643-0.848-0.968L26.03,87.377c0.155,0.181,0.312,0.359,0.47,0.536L3.386,108.571z
						 M114.869,108.285L91.629,87.77c0.163-0.185,0.325-0.371,0.484-0.558l23.582,20.121
						C115.423,107.652,115.148,107.97,114.869,108.285z M1.722,106.643c-0.267-0.321-0.533-0.646-0.795-0.972L25.08,86.239
						c0.156,0.193,0.313,0.385,0.472,0.575L1.722,106.643z M116.501,106.371L92.589,86.643c0.15-0.183,0.3-0.365,0.446-0.551
						l24.277,19.277C117.045,105.705,116.775,106.04,116.501,106.371z M0.121,104.65c-0.249-0.322-0.496-0.645-0.739-0.969
						l24.789-18.615c0.157,0.209,0.315,0.416,0.476,0.623L0.121,104.65z M118.07,104.403L93.511,85.485
						c0.143-0.185,0.283-0.37,0.421-0.557l24.92,18.439C118.595,103.715,118.333,104.061,118.07,104.403z M-1.374,102.655
						c-0.247-0.342-0.491-0.685-0.733-1.03l25.418-17.746c0.14,0.201,0.283,0.401,0.427,0.601L-1.374,102.655z M119.59,102.355
						L94.371,84.328c0.148-0.209,0.297-0.419,0.443-0.63l25.48,17.654C120.063,101.688,119.828,102.023,119.59,102.355z
						 M-2.812,100.599c-0.24-0.356-0.478-0.715-0.712-1.076l26.015-16.859c0.129,0.199,0.26,0.397,0.393,0.594L-2.812,100.599z
						 M121.007,100.308L95.228,83.091c0.131-0.196,0.261-0.394,0.388-0.592l26.098,16.73
						C121.481,99.592,121.245,99.951,121.007,100.308z M-4.215,98.438c-0.216-0.347-0.43-0.695-0.642-1.046l26.555-15.996
						c0.133,0.222,0.269,0.441,0.405,0.661L-4.215,98.438z M122.372,98.184L96.019,81.859c0.131-0.211,0.26-0.424,0.388-0.639
						l26.615,15.896C122.808,97.475,122.591,97.83,122.372,98.184z M-5.499,96.303c-0.211-0.365-0.42-0.731-0.625-1.101
						L20.959,80.12c0.12,0.215,0.241,0.429,0.365,0.642L-5.499,96.303z M123.666,96.013l-26.898-15.41
						c0.128-0.223,0.254-0.447,0.378-0.672l27.121,15.016C124.069,95.304,123.868,95.659,123.666,96.013z M-6.731,94.092
						c-0.199-0.372-0.395-0.746-0.587-1.121l27.581-14.152c0.113,0.219,0.227,0.437,0.343,0.654L-6.731,94.092z M124.885,93.801
						l-27.41-14.479c0.114-0.217,0.227-0.433,0.337-0.651l27.654,14.01C125.276,93.056,125.081,93.43,124.885,93.801z
						 M-7.895,91.821c-0.183-0.373-0.363-0.746-0.54-1.122L19.611,77.49c0.108,0.229,0.218,0.458,0.33,0.685L-7.895,91.821z
						 M126.019,91.569L98.148,77.997c0.104-0.213,0.205-0.426,0.305-0.641l28.117,13.055
						C126.39,90.798,126.206,91.185,126.019,91.569z M-8.965,89.549c-0.176-0.391-0.348-0.782-0.517-1.177l28.493-12.211
						c0.095,0.221,0.192,0.44,0.291,0.659L-8.965,89.549z M127.084,89.281l-28.32-12.607c0.099-0.223,0.196-0.446,0.292-0.671
						l28.531,12.123C127.423,88.513,127.255,88.898,127.084,89.281z M-9.971,87.204c-0.157-0.385-0.312-0.771-0.463-1.157
						l28.879-11.271c0.092,0.236,0.186,0.472,0.281,0.706L-9.971,87.204z M128.07,86.963L99.337,75.324
						c0.093-0.228,0.183-0.457,0.271-0.687l28.924,11.152C128.381,86.184,128.227,86.573,128.07,86.963z M-10.885,84.861
						c-0.148-0.4-0.293-0.803-0.435-1.208l29.257-10.248c0.08,0.228,0.162,0.454,0.246,0.681L-10.885,84.861z M128.981,84.601
						L99.865,73.956c0.083-0.228,0.165-0.454,0.244-0.685L129.408,83.4C129.269,83.803,129.126,84.203,128.981,84.601z
						 M-11.731,82.444c-0.13-0.394-0.258-0.789-0.382-1.187l29.581-9.271c0.076,0.241,0.153,0.482,0.233,0.724L-11.731,82.444z
						 M129.81,82.208l-29.463-9.639c0.077-0.235,0.152-0.471,0.226-0.708l29.619,9.148C130.068,81.411,129.94,81.811,129.81,82.208z
						 M-12.49,80.021c-0.117-0.4-0.231-0.802-0.342-1.204l29.89-8.223c0.066,0.24,0.134,0.479,0.205,0.72L-12.49,80.021z
						 M130.554,79.803l-29.77-8.648c0.07-0.241,0.138-0.484,0.204-0.728l29.902,8.18C130.781,79.006,130.669,79.405,130.554,79.803z
						 M-13.157,77.594c-0.104-0.405-0.205-0.811-0.302-1.217l30.147-7.219c0.058,0.242,0.118,0.483,0.18,0.725L-13.157,77.594z
						 M131.214,77.372l-30.043-7.646c0.059-0.23,0.115-0.461,0.17-0.692l30.178,7.09C131.421,76.54,131.32,76.958,131.214,77.372z
						 M-13.744,75.135c-0.091-0.411-0.178-0.822-0.262-1.236l30.381-6.166c0.049,0.24,0.1,0.481,0.153,0.721L-13.744,75.135z
						 M131.801,74.878L101.5,68.327c0.054-0.247,0.105-0.495,0.155-0.743l30.398,6.08C131.973,74.069,131.888,74.475,131.801,74.878
						z M-14.244,72.676c-0.078-0.42-0.153-0.842-0.224-1.265l30.573-5.125c0.04,0.235,0.081,0.47,0.125,0.704L-14.244,72.676z
						 M132.292,72.418l-30.498-5.553c0.045-0.247,0.087-0.494,0.128-0.742l30.584,5.066
						C132.438,71.602,132.366,72.011,132.292,72.418z M-14.663,70.188c-0.064-0.423-0.125-0.849-0.181-1.275l30.73-4.08
						c0.031,0.235,0.064,0.47,0.1,0.703L-14.663,70.188z M132.7,69.943l-30.664-4.549c0.035-0.236,0.067-0.474,0.099-0.711
						l30.742,3.99C132.823,69.099,132.763,69.521,132.7,69.943z M-14.999,67.674c-0.049-0.422-0.095-0.845-0.136-1.269l30.851-3.039
						c0.024,0.24,0.049,0.48,0.078,0.72L-14.999,67.674z M133.03,67.412l-30.807-3.453l0.084-0.807l30.848,3.076
						C133.115,66.624,133.073,67.019,133.03,67.412z M-15.248,65.162c-0.035-0.424-0.066-0.847-0.093-1.271l30.936-1.996
						c0.016,0.241,0.033,0.482,0.053,0.723L-15.248,65.162z M133.267,64.922l-30.902-2.453c0.019-0.241,0.036-0.481,0.051-0.724
						l30.941,1.906C133.33,64.075,133.301,64.499,133.267,64.922z M-15.411,62.646c-0.02-0.416-0.037-0.833-0.05-1.252l30.984-0.996
						c0.008,0.249,0.018,0.498,0.03,0.746L-15.411,62.646z M133.426,62.383l-30.971-1.367c0.012-0.255,0.021-0.512,0.029-0.769
						l30.986,0.906C133.459,61.564,133.444,61.974,133.426,62.383z M-15.491,60.125C-15.497,59.75-15.5,59.375-15.5,59v-0.104h31
						l0.005,0.771L-15.491,60.125z M133.494,59.896l-30.998-0.389l0.004-0.653l30.998-0.305L133.5,59L133.494,59.896z
						 M15.508,58.169l-30.995-0.545c0.007-0.425,0.019-0.849,0.034-1.272l30.98,1.094C15.519,57.687,15.512,57.928,15.508,58.169z
						 M102.49,58.02c-0.004-0.228-0.011-0.454-0.021-0.68l30.975-1.273c0.018,0.439,0.03,0.878,0.04,1.319L102.49,58.02z
						 M15.56,56.693l-30.959-1.587c0.021-0.425,0.047-0.85,0.077-1.273l30.926,2.138C15.587,56.211,15.573,56.452,15.56,56.693z
						 M102.435,56.565c-0.015-0.256-0.031-0.511-0.049-0.766l30.922-2.186c0.029,0.408,0.056,0.818,0.079,1.229L102.435,56.565z
						 M15.662,55.221l-30.888-2.631c0.036-0.425,0.076-0.849,0.12-1.272l30.836,3.184C15.705,54.741,15.682,54.981,15.662,55.221z
						 M102.325,55.07c-0.021-0.24-0.044-0.479-0.069-0.719l30.826-3.273c0.045,0.423,0.086,0.847,0.124,1.271L102.325,55.07z
						 M15.812,53.752l-30.781-3.672c0.049-0.417,0.103-0.834,0.16-1.249l30.716,4.187C15.873,53.262,15.841,53.506,15.812,53.752z
						 M102.173,53.627l-0.105-0.804l30.717-4.187c0.053,0.392,0.105,0.785,0.154,1.179L102.173,53.627z M16.011,52.296
						l-30.639-4.721c0.064-0.415,0.131-0.828,0.202-1.241l30.556,5.229C16.089,51.807,16.049,52.051,16.011,52.296z M101.966,52.146
						c-0.037-0.237-0.076-0.474-0.118-0.71l30.533-5.361c0.073,0.42,0.144,0.84,0.21,1.262L101.966,52.146z M16.265,50.825
						l-30.468-5.721c0.079-0.42,0.162-0.839,0.248-1.256l30.359,6.271C16.356,50.354,16.309,50.59,16.265,50.825z M101.716,50.72
						c-0.049-0.249-0.098-0.497-0.15-0.744l30.34-6.368c0.084,0.404,0.166,0.81,0.244,1.216L101.716,50.72z M16.556,49.412
						l-30.242-6.812c0.092-0.409,0.188-0.818,0.287-1.226l30.124,7.315C16.667,48.93,16.611,49.171,16.556,49.412z M101.41,49.264
						c-0.057-0.248-0.116-0.496-0.176-0.743l30.113-7.358c0.099,0.4,0.193,0.801,0.285,1.204L101.41,49.264z M16.903,47.987
						l-29.99-7.849c0.105-0.401,0.213-0.801,0.324-1.2L17.1,47.257C17.032,47.5,16.967,47.743,16.903,47.987z M101.054,47.818
						c-0.061-0.229-0.122-0.456-0.187-0.682l29.824-8.456c0.117,0.414,0.231,0.83,0.341,1.247L101.054,47.818z M17.299,46.566
						l-29.708-8.857c0.121-0.404,0.245-0.808,0.372-1.209l29.552,9.365C17.44,46.098,17.369,46.332,17.299,46.566z M100.658,46.421
						c-0.072-0.241-0.147-0.481-0.224-0.721l29.533-9.422c0.127,0.397,0.251,0.797,0.372,1.197L100.658,46.421z M17.753,45.132
						l-29.409-9.803c0.137-0.41,0.277-0.817,0.421-1.224l29.218,10.36C17.905,44.687,17.827,44.909,17.753,45.132z M100.207,45.013
						c-0.081-0.24-0.165-0.479-0.25-0.718l29.199-10.412c0.14,0.391,0.276,0.784,0.41,1.178L100.207,45.013z M18.237,43.769
						l-29.041-10.845c0.148-0.398,0.3-0.794,0.456-1.189l28.845,11.356C18.408,43.316,18.322,43.542,18.237,43.769z M99.708,43.622
						c-0.088-0.232-0.177-0.463-0.269-0.692l28.814-11.435c0.154,0.391,0.308,0.784,0.456,1.178L99.708,43.622z M18.773,42.406
						L-9.877,30.564c0.161-0.389,0.324-0.775,0.491-1.16l28.443,12.327C18.961,41.955,18.866,42.18,18.773,42.406z M99.165,42.258
						c-0.098-0.234-0.197-0.466-0.299-0.699l28.414-12.396c0.166,0.381,0.33,0.763,0.49,1.146L99.165,42.258z M19.353,41.066
						L-8.873,28.249c0.172-0.38,0.348-0.758,0.526-1.134l28.013,13.276C19.56,40.615,19.456,40.84,19.353,41.066z M98.577,40.913
						c-0.102-0.222-0.204-0.442-0.31-0.661l27.941-13.427c0.184,0.383,0.364,0.768,0.542,1.154L98.577,40.913z M19.99,39.725
						L-7.802,25.989c0.188-0.38,0.379-0.759,0.574-1.135l27.542,14.228C20.205,39.294,20.096,39.509,19.99,39.725z M97.935,39.57
						c-0.112-0.223-0.226-0.445-0.341-0.667l27.496-14.314c0.193,0.371,0.385,0.744,0.571,1.118L97.935,39.57z M20.661,38.424
						L-6.643,23.746c0.197-0.367,0.398-0.733,0.602-1.097l27.061,15.125C20.898,37.989,20.779,38.206,20.661,38.424z M97.246,38.252
						c-0.117-0.216-0.236-0.431-0.357-0.645l26.994-15.243c0.207,0.367,0.412,0.736,0.613,1.107L97.246,38.252z M21.377,37.146
						L-5.412,21.545c0.214-0.367,0.431-0.733,0.651-1.096l26.506,16.076C21.621,36.731,21.498,36.938,21.377,37.146z M96.52,36.969
						c-0.125-0.212-0.251-0.422-0.379-0.631l26.457-16.156c0.22,0.36,0.438,0.722,0.65,1.085L96.52,36.969z M22.136,35.892
						L-4.103,19.384c0.223-0.354,0.449-0.708,0.677-1.058l25.961,16.942C22.401,35.476,22.268,35.683,22.136,35.892z M95.751,35.712
						c-0.129-0.204-0.261-0.406-0.394-0.608l25.877-17.069c0.234,0.355,0.466,0.713,0.694,1.072L95.751,35.712z M22.941,34.659
						L-2.726,17.275c0.232-0.344,0.468-0.685,0.706-1.024L23.368,34.04C23.224,34.245,23.082,34.452,22.941,34.659z M94.947,34.492
						c-0.139-0.203-0.279-0.405-0.422-0.605l25.281-17.941c0.244,0.344,0.484,0.69,0.723,1.038L94.947,34.492z M23.794,33.443
						l-25.081-18.22c0.25-0.343,0.502-0.684,0.757-1.022l24.756,18.658C24.08,33.052,23.936,33.247,23.794,33.443z M94.079,33.27
						c-0.14-0.191-0.282-0.38-0.426-0.568l24.652-18.796c0.261,0.342,0.519,0.687,0.773,1.034L94.079,33.27z M24.674,32.276
						L0.238,13.2c0.257-0.33,0.518-0.657,0.78-0.982l24.118,19.477C24.98,31.886,24.826,32.081,24.674,32.276z M93.18,32.09
						c-0.146-0.186-0.294-0.371-0.444-0.554l24.012-19.608c0.271,0.333,0.541,0.669,0.808,1.008L93.18,32.09z M25.597,31.133
						L1.826,11.233c0.266-0.317,0.535-0.633,0.806-0.947l23.453,20.271C25.921,30.749,25.758,30.94,25.597,31.133z M92.251,30.952
						c-0.145-0.172-0.291-0.343-0.44-0.513L115.09,9.968c0.292,0.333,0.579,0.667,0.864,1.005L92.251,30.952z M26.565,30.014
						L3.473,9.331c0.276-0.308,0.554-0.614,0.835-0.918l22.767,21.04C26.903,29.639,26.733,29.826,26.565,30.014z M91.285,29.846
						c-0.163-0.18-0.327-0.359-0.492-0.536l22.635-21.181c0.29,0.309,0.577,0.622,0.861,0.937L91.285,29.846z M27.572,28.925
						L5.18,7.486c0.29-0.302,0.582-0.603,0.876-0.9L28.09,28.393C27.916,28.568,27.743,28.746,27.572,28.925z M90.271,28.76
						c-0.161-0.167-0.323-0.332-0.487-0.496l21.875-21.966c0.309,0.307,0.613,0.618,0.915,0.93L90.271,28.76z M28.594,27.892
						L6.97,5.678c0.292-0.285,0.587-0.567,0.883-0.848l21.299,22.524C28.965,27.533,28.779,27.712,28.594,27.892z M89.232,27.722
						c-0.175-0.168-0.351-0.336-0.528-0.502l21.16-22.655c0.311,0.29,0.617,0.582,0.921,0.876L89.232,27.722z M29.685,26.861
						L8.787,3.964c0.31-0.282,0.621-0.562,0.935-0.839l20.517,23.239C30.052,26.528,29.868,26.694,29.685,26.861z M88.159,26.719
						c-0.184-0.166-0.369-0.33-0.556-0.493l20.395-23.347c0.315,0.275,0.628,0.554,0.938,0.834L88.159,26.719z M30.788,25.888
						L10.684,2.29c0.32-0.272,0.641-0.542,0.965-0.809l19.707,23.93C31.165,25.568,30.976,25.728,30.788,25.888z M87.031,25.734
						c-0.178-0.15-0.355-0.298-0.536-0.445l19.559-24.051c0.337,0.274,0.671,0.551,1.001,0.831L87.031,25.734z M31.932,24.944
						L12.627,0.688c0.332-0.264,0.666-0.525,1.003-0.784l18.875,24.592C32.313,24.644,32.121,24.793,31.932,24.944z M85.907,24.817
						c-0.198-0.155-0.396-0.309-0.596-0.461l18.789-24.657c0.329,0.251,0.657,0.505,0.982,0.762L85.907,24.817z M33.108,24.041
						L14.624-0.846c0.34-0.253,0.683-0.503,1.028-0.75l18.044,25.207C33.499,23.752,33.302,23.896,33.108,24.041z M84.731,23.921
						c-0.197-0.145-0.396-0.289-0.596-0.43l17.924-25.293c0.343,0.243,0.684,0.489,1.023,0.739L84.731,23.921z M34.289,23.193
						L16.698-2.332c0.342-0.236,0.686-0.469,1.031-0.7l17.186,25.801C34.705,22.909,34.497,23.05,34.289,23.193z M83.519,23.061
						c-0.202-0.138-0.404-0.274-0.608-0.409l17.08-25.87c0.351,0.231,0.701,0.466,1.048,0.705L83.519,23.061z M35.515,22.375
						L18.804-3.735c0.348-0.223,0.697-0.443,1.049-0.661L36.16,21.969C35.944,22.103,35.729,22.239,35.515,22.375z M82.294,22.254
						c-0.204-0.13-0.41-0.259-0.617-0.385L97.853-4.576c0.361,0.221,0.72,0.445,1.076,0.671L82.294,22.254z M36.791,21.586
						L20.934-5.051c0.363-0.216,0.727-0.429,1.094-0.639l15.399,26.904C37.214,21.336,37.002,21.461,36.791,21.586z M81.03,21.479
						c-0.203-0.12-0.408-0.239-0.615-0.355L95.678-5.858c0.373,0.211,0.744,0.426,1.113,0.644L81.03,21.479z M38.063,20.857
						L23.139-6.313c0.364-0.2,0.729-0.397,1.097-0.592L38.73,20.498C38.507,20.616,38.284,20.736,38.063,20.857z M79.774,20.768
						c-0.221-0.12-0.441-0.237-0.664-0.354L93.481-7.054c0.367,0.192,0.732,0.387,1.096,0.584L79.774,20.768z M39.377,20.164
						L25.368-7.491c0.376-0.19,0.754-0.378,1.134-0.562l13.537,27.889C39.817,19.943,39.596,20.052,39.377,20.164z M78.458,20.08
						c-0.212-0.106-0.425-0.211-0.639-0.313l13.389-27.96c0.386,0.185,0.769,0.373,1.15,0.564L78.458,20.08z M40.698,19.522
						L27.656-8.601c0.379-0.176,0.76-0.349,1.143-0.519l12.582,28.332C41.152,19.314,40.925,19.417,40.698,19.522z M77.139,19.447
						c-0.228-0.104-0.455-0.207-0.685-0.308L88.952-9.23c0.378,0.167,0.755,0.336,1.132,0.509L77.139,19.447z M42.058,18.918
						L29.961-9.624c0.392-0.166,0.785-0.329,1.18-0.488L42.732,18.64C42.506,18.731,42.281,18.824,42.058,18.918z M75.784,18.852
						c-0.225-0.095-0.451-0.187-0.679-0.278l11.521-28.779c0.39,0.156,0.778,0.315,1.165,0.477L75.784,18.852z M43.427,18.367
						L32.313-10.573c0.392-0.151,0.787-0.298,1.183-0.443l10.627,29.122C43.89,18.191,43.657,18.278,43.427,18.367z M74.437,18.314
						c-0.229-0.087-0.458-0.172-0.688-0.255l10.496-29.169c0.396,0.143,0.792,0.289,1.187,0.438L74.437,18.314z M44.806,17.863
						L34.704-11.444c0.401-0.139,0.805-0.274,1.209-0.405l9.586,29.48C45.267,17.707,45.036,17.784,44.806,17.863z M73.055,17.817
						c-0.231-0.079-0.464-0.156-0.696-0.231l9.488-29.512c0.402,0.129,0.803,0.262,1.202,0.398L73.055,17.817z M46.209,17.406
						L37.118-12.23c0.405-0.125,0.811-0.245,1.219-0.363l8.57,29.792C46.674,17.266,46.441,17.335,46.209,17.406z M71.646,17.362
						c-0.226-0.068-0.453-0.135-0.682-0.2l8.451-29.826c0.416,0.118,0.827,0.239,1.238,0.364L71.646,17.362z M47.612,17.001
						l-8.053-29.936c0.401-0.108,0.804-0.213,1.208-0.314l7.572,30.061C48.095,16.874,47.853,16.937,47.612,17.001z M70.243,16.962
						c-0.243-0.065-0.488-0.127-0.733-0.188l7.498-30.08c0.401,0.1,0.803,0.204,1.202,0.31L70.243,16.962z M49.048,16.64
						l-7.047-30.188c0.41-0.096,0.821-0.188,1.233-0.277l6.532,30.304C49.526,16.53,49.287,16.584,49.048,16.64z M68.805,16.606
						c-0.243-0.056-0.486-0.109-0.731-0.162l6.471-30.317c0.409,0.087,0.816,0.177,1.222,0.271L68.805,16.606z M50.506,16.326
						l-6.054-30.403c0.42-0.083,0.843-0.164,1.267-0.24l5.485,30.511C50.971,16.236,50.738,16.28,50.506,16.326z M67.377,16.303
						c-0.237-0.046-0.475-0.09-0.712-0.132l5.361-30.533c0.419,0.074,0.838,0.151,1.255,0.232L67.377,16.303z M51.947,16.066
						l-5.001-30.594c0.421-0.069,0.843-0.134,1.265-0.195l4.447,30.68C52.421,15.991,52.183,16.028,51.947,16.066z M65.93,16.047
						c-0.243-0.039-0.486-0.075-0.731-0.11l4.346-30.693c0.417,0.059,0.832,0.122,1.247,0.188L65.93,16.047z M53.405,15.855
						l-3.957-30.746c0.422-0.055,0.846-0.105,1.27-0.152L54.12,15.77C53.881,15.796,53.642,15.825,53.405,15.855z M64.47,15.839
						c-0.245-0.031-0.49-0.059-0.736-0.085l3.309-30.823c0.418,0.045,0.835,0.094,1.25,0.145L64.47,15.839z M54.869,15.693
						L51.956-15.17c0.423-0.04,0.848-0.077,1.274-0.109l2.356,30.91C55.347,15.65,55.108,15.67,54.869,15.693z M63.004,15.681
						c-0.246-0.022-0.493-0.042-0.741-0.061l2.268-30.917c0.418,0.031,0.835,0.065,1.251,0.103L63.004,15.681z M56.34,15.58
						l-1.866-30.943c0.416-0.025,0.833-0.047,1.251-0.065l1.36,30.97C56.837,15.552,56.588,15.565,56.34,15.58z M61.511,15.571
						c-0.24-0.014-0.482-0.025-0.724-0.035l1.227-30.976c0.425,0.017,0.849,0.037,1.272,0.062L61.511,15.571z M57.814,15.516
						l-0.819-30.989c0.416-0.011,0.833-0.019,1.25-0.022l0.317,30.998C58.313,15.505,58.063,15.509,57.814,15.516z M60.039,15.512
						c-0.249-0.006-0.498-0.009-0.748-0.011l0.227-30.999c0.418,0.003,0.835,0.009,1.25,0.019L60.039,15.512z"/>
				</g>
				<g id="Oval-3-Copy-4_1_">
					<path fill="#FC9004" d="M59,69c5.522,0,10-4.478,10-10s-4.478-10-10-10c-5.523,0-10,4.478-10,10S53.477,69,59,69z"/>
				</g>
			</g>
		</g>
	</g>
</g>
</svg>
